G04 #@! TF.FileFunction,Copper,L3,Inr,Signal*
%FSLAX46Y46*%
G04 Gerber Fmt 4.6, Leading zero omitted, Abs format (unit mm)*
G04 Created by KiCad (PCBNEW 4.0.0-rc1-stable) date 29/02/2016 1:35:43 AM*
%MOMM*%
G01*
G04 APERTURE LIST*
%ADD10C,0.100000*%
%ADD11C,0.650000*%
%ADD12C,1.700000*%
%ADD13C,4.064000*%
%ADD14C,1.300000*%
%ADD15R,3.500120X3.500120*%
%ADD16C,0.600000*%
%ADD17C,0.345000*%
%ADD18C,0.750000*%
%ADD19C,0.500000*%
%ADD20C,0.254000*%
G04 APERTURE END LIST*
D10*
D11*
X88090000Y-80280000D03*
X86970000Y-80300000D03*
X85600000Y-80330000D03*
X84150000Y-80360000D03*
X48970000Y-59010000D03*
X96880000Y-75070000D03*
X96880000Y-74070000D03*
X96880000Y-73070000D03*
X96880000Y-72070000D03*
X95930000Y-71110000D03*
X94160000Y-71090000D03*
X95930000Y-70070000D03*
X95930000Y-69070000D03*
X95930000Y-68070000D03*
X95930000Y-67070000D03*
X95930000Y-66070000D03*
X95930000Y-65070000D03*
X95930000Y-64070000D03*
X95930000Y-63070000D03*
X95930000Y-62070000D03*
X95930000Y-61070000D03*
X95930000Y-60070000D03*
X95930000Y-59070000D03*
X94100000Y-66650000D03*
X94210000Y-64740000D03*
X94220000Y-63460000D03*
X97330000Y-55370000D03*
X96360000Y-55310000D03*
X95360000Y-55250000D03*
X97130000Y-57860000D03*
X96010000Y-57900000D03*
X94100000Y-76410000D03*
X94240000Y-75160000D03*
X98560000Y-76800000D03*
X97580000Y-76790000D03*
X96480000Y-76810000D03*
X96420000Y-78720000D03*
X97530000Y-78740000D03*
X98530000Y-78680000D03*
X91980000Y-76110000D03*
X90770000Y-78840000D03*
X91920000Y-77210000D03*
X90790000Y-77820000D03*
X90910000Y-70230000D03*
X91930000Y-70090000D03*
X91930000Y-68990000D03*
X103370000Y-81370000D03*
X102670000Y-81370000D03*
X101970000Y-81370000D03*
X101270000Y-81370000D03*
X100570000Y-81370000D03*
X99870000Y-81370000D03*
X103270000Y-74050000D03*
X102570000Y-74050000D03*
X101870000Y-74050000D03*
X101170000Y-74050000D03*
X100470000Y-74050000D03*
X99770000Y-74050000D03*
X103320000Y-60150000D03*
X102620000Y-60150000D03*
X101920000Y-60150000D03*
X101220000Y-60150000D03*
X100520000Y-60150000D03*
X99820000Y-60150000D03*
X103390000Y-52800000D03*
X102690000Y-52800000D03*
X101990000Y-52800000D03*
X101290000Y-52800000D03*
X100590000Y-52800000D03*
X99890000Y-52800000D03*
X68810000Y-52720000D03*
X92370000Y-53810000D03*
X94610000Y-52960000D03*
X94830000Y-54040000D03*
X93470000Y-54230000D03*
X83500000Y-63250000D03*
X82190000Y-63360000D03*
X82800000Y-64420000D03*
X82720000Y-65620000D03*
X82640000Y-66910000D03*
X82610000Y-68110000D03*
X87640000Y-67830000D03*
X87610000Y-66630000D03*
X89090000Y-66600000D03*
X89030000Y-65480000D03*
X87780000Y-65420000D03*
X87830000Y-64240000D03*
X88890000Y-64240000D03*
X88730000Y-63040000D03*
X87640000Y-62990000D03*
X74610000Y-56560000D03*
X73500000Y-56780000D03*
X72460000Y-56760000D03*
X71180000Y-56920000D03*
X70330000Y-56230000D03*
X69320000Y-56670000D03*
X64440000Y-56450000D03*
X63050000Y-56480000D03*
X61890000Y-56480000D03*
X60520000Y-56520000D03*
X57440000Y-56120000D03*
X57590000Y-57060000D03*
X56430000Y-57340000D03*
X56340000Y-56260000D03*
X54930000Y-56140000D03*
X53600000Y-56140000D03*
X52350000Y-56110000D03*
X49000000Y-54110000D03*
X49020000Y-55040000D03*
X49020000Y-55990000D03*
X49010000Y-57050000D03*
X49010000Y-58060000D03*
X49140000Y-53230000D03*
X51150000Y-57130000D03*
X51180000Y-56080000D03*
X75430000Y-55260000D03*
X75830000Y-52710000D03*
X74830000Y-52720000D03*
X73850000Y-52750000D03*
X73010000Y-52770000D03*
X71450000Y-52750000D03*
X70390000Y-52790000D03*
X67950000Y-52690000D03*
X66890000Y-52670000D03*
X65850000Y-52690000D03*
X64850000Y-52690000D03*
X63850000Y-52690000D03*
X62780000Y-52750000D03*
X61660000Y-52720000D03*
X60570000Y-52780000D03*
X58620000Y-52390000D03*
X57850000Y-52690000D03*
X56850000Y-52690000D03*
X55850000Y-52690000D03*
X54850000Y-52690000D03*
X53850000Y-52690000D03*
X52850000Y-52690000D03*
X51850000Y-52690000D03*
X50850000Y-52690000D03*
X49850000Y-52690000D03*
X74210000Y-55150000D03*
X73210000Y-55150000D03*
X72210000Y-55150000D03*
X71210000Y-55150000D03*
X70360000Y-55220000D03*
X68700000Y-55190000D03*
X67890000Y-55230000D03*
X66210000Y-55150000D03*
X65210000Y-55150000D03*
X64210000Y-55150000D03*
X63210000Y-55150000D03*
X62210000Y-55150000D03*
X61210000Y-55150000D03*
X60270000Y-55150000D03*
X59300000Y-55140000D03*
X58030000Y-55180000D03*
X57210000Y-55150000D03*
X56210000Y-55150000D03*
X55210000Y-55150000D03*
X54210000Y-55150000D03*
X53210000Y-55150000D03*
X52210000Y-55150000D03*
X51210000Y-55150000D03*
X78730000Y-85300000D03*
X81230000Y-82400000D03*
X80380000Y-80320000D03*
X81090000Y-79830000D03*
X89370000Y-79770000D03*
X88530000Y-75310000D03*
X88470000Y-72330000D03*
X88430000Y-71450000D03*
X88460000Y-70510000D03*
X88420000Y-69720000D03*
X88680000Y-68760000D03*
X89410000Y-68000000D03*
X94100000Y-70160000D03*
X93980000Y-68980000D03*
X94020000Y-67900000D03*
X77900000Y-52910000D03*
X78600000Y-52940000D03*
X79070000Y-53590000D03*
X79310000Y-54660000D03*
X79320000Y-55480000D03*
X79330000Y-56400000D03*
X77170000Y-55150000D03*
X77200000Y-56130000D03*
X77200000Y-56950000D03*
X77170000Y-57860000D03*
X76320000Y-57840000D03*
X75310000Y-57870000D03*
X74400000Y-58530000D03*
X74340000Y-59530000D03*
X74350000Y-60660000D03*
X74760000Y-61740000D03*
X75800000Y-62060000D03*
X76960000Y-62100000D03*
X77870000Y-63130000D03*
X80310000Y-62080000D03*
X80420000Y-63160000D03*
X77920000Y-62100000D03*
X81380000Y-62130000D03*
X82530000Y-62090000D03*
X83590000Y-59680000D03*
X83590000Y-60910000D03*
X87220000Y-59380000D03*
X87230000Y-58480000D03*
X87230000Y-60280000D03*
X87220000Y-61410000D03*
X88200000Y-61840000D03*
X89260000Y-61870000D03*
X90280000Y-61810000D03*
X88510000Y-52420000D03*
X89730000Y-52440000D03*
X91190000Y-53370000D03*
X91240000Y-54270000D03*
X91290000Y-55230000D03*
X98390000Y-55340000D03*
X94370000Y-55260000D03*
X93330000Y-55240000D03*
X92330000Y-55250000D03*
X95010000Y-57900000D03*
X98440000Y-57810000D03*
X94250000Y-62120000D03*
X94170000Y-61050000D03*
X94170000Y-59990000D03*
X94150000Y-58950000D03*
X94090000Y-57840000D03*
X91330000Y-61470000D03*
X91330000Y-60220000D03*
X91330000Y-59160000D03*
D12*
X36670000Y-54890000D03*
X36670000Y-57430000D03*
X36670000Y-59970000D03*
X46240000Y-69610000D03*
X43700000Y-69610000D03*
X41160000Y-69610000D03*
D13*
X92370000Y-50630000D03*
X95810000Y-85410000D03*
X40850000Y-55560000D03*
X47550000Y-85160000D03*
D14*
X80070000Y-73910700D03*
X34350000Y-73910700D03*
X36890000Y-73910700D03*
X39430000Y-73910700D03*
X41970000Y-73910700D03*
X44510000Y-73910700D03*
X47050000Y-73910700D03*
X49590000Y-73910700D03*
X52130000Y-73910700D03*
X54670000Y-73910700D03*
X57210000Y-73910700D03*
X59750000Y-73910700D03*
X62290000Y-73910700D03*
X64830000Y-73910700D03*
X67370000Y-73910700D03*
X69910000Y-73910700D03*
X72450000Y-73910700D03*
X74990000Y-73910700D03*
X77530000Y-73910700D03*
X82610000Y-73910700D03*
X85150000Y-73910700D03*
X87690000Y-73910700D03*
X80060000Y-50110700D03*
X34340000Y-50110700D03*
X36880000Y-50110700D03*
X39420000Y-50110700D03*
X41960000Y-50110700D03*
X44500000Y-50110700D03*
X47040000Y-50110700D03*
X49580000Y-50110700D03*
X52120000Y-50110700D03*
X54660000Y-50110700D03*
X57200000Y-50110700D03*
X59740000Y-50110700D03*
X62280000Y-50110700D03*
X64820000Y-50110700D03*
X67360000Y-50110700D03*
X69900000Y-50110700D03*
X72440000Y-50110700D03*
X74980000Y-50110700D03*
X77520000Y-50110700D03*
X82600000Y-50110700D03*
X85140000Y-50110700D03*
X87680000Y-50110700D03*
D15*
X43190660Y-80970000D03*
X37190660Y-80970000D03*
X40190660Y-85669000D03*
D16*
X67780000Y-81150000D03*
X90940000Y-71300000D03*
X86170000Y-63310000D03*
X82450000Y-52440000D03*
X86280000Y-52300000D03*
X84830000Y-63090000D03*
X66080000Y-62220000D03*
X53320000Y-62180000D03*
X45540000Y-53750000D03*
X44470000Y-59000000D03*
X58090000Y-60370000D03*
X44490000Y-61920000D03*
X44335700Y-66408300D03*
X42748200Y-66865500D03*
X36230000Y-67400000D03*
X49974500Y-62166500D03*
X50711100Y-62890400D03*
X51523900Y-62153800D03*
X50025300Y-61442600D03*
X50711100Y-61379100D03*
X51447700Y-61404500D03*
X50736500Y-62166500D03*
X65660000Y-86250000D03*
X60040000Y-85860000D03*
X103590000Y-48820000D03*
X102510000Y-48770000D03*
X101170000Y-48940000D03*
X98710000Y-52070000D03*
X98450000Y-53130000D03*
X98400000Y-54100000D03*
X96480000Y-52180000D03*
X96500000Y-51270000D03*
X96460000Y-50210000D03*
X96440000Y-49300000D03*
X95500000Y-49320000D03*
X95440000Y-50230000D03*
X95340000Y-51210000D03*
X95320000Y-52240000D03*
X97550000Y-53170000D03*
X97540000Y-54060000D03*
X96500000Y-54010000D03*
X96470000Y-53050000D03*
X97660000Y-48930000D03*
X97560000Y-50010000D03*
X97580000Y-51080000D03*
X97560000Y-52100000D03*
X73140000Y-76790000D03*
X69540000Y-60050000D03*
X69330000Y-65150000D03*
X80240000Y-86490000D03*
X102540000Y-68040000D03*
X100890000Y-66620000D03*
X103590000Y-69530000D03*
X102400000Y-69540000D03*
X103640000Y-68080000D03*
X101250000Y-69460000D03*
X99270000Y-69600000D03*
X97320000Y-66500000D03*
X97320000Y-69570000D03*
X97370000Y-67980000D03*
X98710000Y-67920000D03*
X98740000Y-66440000D03*
X98680000Y-64990000D03*
X97480000Y-65070000D03*
X79070000Y-57760000D03*
X79110000Y-56940000D03*
X91460000Y-57220000D03*
X92480000Y-57180000D03*
X93410000Y-57180000D03*
X92030000Y-72330000D03*
X92030000Y-73330000D03*
X92030000Y-74260000D03*
X92050000Y-75220000D03*
X99940000Y-85720000D03*
X100970000Y-85670000D03*
X98850000Y-86900000D03*
X99830000Y-87090000D03*
X101000000Y-87070000D03*
X102230000Y-87010000D03*
X103520000Y-87090000D03*
X103630000Y-85780000D03*
X102340000Y-85750000D03*
X98830000Y-85670000D03*
X98321100Y-71457700D03*
X95200000Y-78510000D03*
X80910000Y-58140000D03*
X81580000Y-58160000D03*
X82330000Y-58160000D03*
X88930000Y-54690000D03*
X88940000Y-55630000D03*
X88910000Y-56850000D03*
X88940000Y-58010000D03*
X89030000Y-58990000D03*
X89040000Y-59900000D03*
X81860000Y-60160000D03*
X80900000Y-60140000D03*
X79990000Y-60210000D03*
X78800000Y-60210000D03*
X77720000Y-60220000D03*
X76630000Y-60220000D03*
X57020000Y-61110000D03*
X84200000Y-52530000D03*
X51880000Y-58270000D03*
X75120000Y-62430000D03*
X65940000Y-56410000D03*
X99090000Y-48860000D03*
X100010000Y-50160000D03*
X100050000Y-48960000D03*
X98990000Y-49940000D03*
X99720000Y-66220000D03*
X100690000Y-64160000D03*
X100670000Y-65330000D03*
X99740000Y-62960000D03*
X99690000Y-64460000D03*
X102730000Y-65330000D03*
X103520000Y-66860000D03*
X102040000Y-66840000D03*
X101210000Y-68060000D03*
X99640000Y-67510000D03*
X101700000Y-63710000D03*
X101640000Y-65330000D03*
X103610000Y-64250000D03*
X103420000Y-63300000D03*
X103460000Y-50090000D03*
X98650000Y-60890000D03*
X91850000Y-67920000D03*
X91290000Y-62190000D03*
X76590000Y-85480000D03*
X78748640Y-82184560D03*
X84898510Y-57062790D03*
X103480000Y-71170000D03*
X98920700Y-84239600D03*
X100762200Y-84214200D03*
X102959300Y-84201500D03*
X98882600Y-79997800D03*
X98882600Y-82093300D03*
X51040000Y-79350000D03*
X66720000Y-80360000D03*
X63300000Y-66790000D03*
X73650000Y-81670000D03*
X92314400Y-78530300D03*
X85381110Y-57624130D03*
X84377810Y-57624130D03*
X84327010Y-56430330D03*
X85419210Y-56519230D03*
X79334360Y-66456560D03*
X82243680Y-84480720D03*
X99682700Y-71006200D03*
X102121100Y-70968100D03*
X93774900Y-77539700D03*
X93749500Y-78949400D03*
X93762200Y-78200100D03*
X98882600Y-75387700D03*
X80324960Y-65567560D03*
X80324960Y-66469260D03*
X80312260Y-67383660D03*
X79397860Y-67383660D03*
X78508860Y-65504060D03*
X78572360Y-67409060D03*
X78572360Y-66469260D03*
X55670000Y-78340000D03*
X98768300Y-73292200D03*
X57950000Y-58060000D03*
X92692000Y-64662000D03*
X91129900Y-65563700D03*
X91129900Y-64636600D03*
X92692000Y-65627200D03*
X91942700Y-65119200D03*
X49910000Y-65380000D03*
X50490000Y-65990000D03*
X51180000Y-66640000D03*
X48880000Y-65420000D03*
X53110000Y-85830000D03*
X75190000Y-76720000D03*
X69430000Y-68340000D03*
X73610000Y-67070000D03*
X64760000Y-69290000D03*
X41110000Y-59250000D03*
X45370000Y-57020000D03*
X96120000Y-80800000D03*
X89460000Y-81720000D03*
X87820000Y-86060000D03*
X53420000Y-67550000D03*
X38670000Y-61870000D03*
X38220000Y-68450000D03*
X67390000Y-76950000D03*
D17*
X71170000Y-71970000D02*
X71170000Y-75890000D01*
X69110000Y-79820000D02*
X67780000Y-81150000D01*
X69110000Y-77950000D02*
X69110000Y-79820000D01*
X71170000Y-75890000D02*
X69110000Y-77950000D01*
D18*
X90940000Y-71300000D02*
X90940000Y-76470000D01*
X81250000Y-76250000D02*
X81250000Y-71970000D01*
X90540000Y-76870000D02*
X81870000Y-76870000D01*
X81870000Y-76870000D02*
X81250000Y-76250000D01*
X90540000Y-76870000D02*
X90940000Y-76470000D01*
X81640000Y-71970000D02*
X81640000Y-71170000D01*
X81640000Y-71170000D02*
X82050000Y-70760000D01*
X73650000Y-71970000D02*
X81250000Y-71970000D01*
X81250000Y-71970000D02*
X81640000Y-71970000D01*
X81640000Y-71970000D02*
X83930000Y-71970000D01*
X83930000Y-71970000D02*
X86170000Y-69730000D01*
X86170000Y-69730000D02*
X86170000Y-63310000D01*
X66080000Y-65170000D02*
X68080000Y-65170000D01*
X68230000Y-65320000D02*
X68230000Y-70280000D01*
X68080000Y-65170000D02*
X68230000Y-65320000D01*
X66080000Y-68120000D02*
X66080000Y-71890000D01*
X66160000Y-71970000D02*
X71170000Y-71970000D01*
X71170000Y-71970000D02*
X73650000Y-71970000D01*
X66080000Y-71890000D02*
X66160000Y-71970000D01*
X66080000Y-65170000D02*
X66080000Y-68120000D01*
X66080000Y-68120000D02*
X66080000Y-68130000D01*
X66080000Y-68130000D02*
X68230000Y-70280000D01*
X68230000Y-70280000D02*
X68710000Y-70760000D01*
X68710000Y-70760000D02*
X73210000Y-70760000D01*
X80100000Y-70760000D02*
X82050000Y-70760000D01*
X73210000Y-70760000D02*
X80100000Y-70760000D01*
X82050000Y-70760000D02*
X83360000Y-70760000D01*
X84830000Y-69290000D02*
X84830000Y-63090000D01*
X83360000Y-70760000D02*
X84830000Y-69290000D01*
X73650000Y-71200000D02*
X73210000Y-70760000D01*
X73650000Y-71970000D02*
X73650000Y-71200000D01*
X52830000Y-64460000D02*
X65370000Y-64460000D01*
X65370000Y-64460000D02*
X66080000Y-65170000D01*
X66080000Y-62220000D02*
X66080000Y-65170000D01*
X53320000Y-62180000D02*
X66040000Y-62180000D01*
D19*
X66040000Y-62180000D02*
X66080000Y-62220000D01*
D18*
X36670000Y-57430000D02*
X37370000Y-57430000D01*
X37370000Y-57430000D02*
X40820000Y-60880000D01*
X40820000Y-60880000D02*
X44930000Y-60880000D01*
X44930000Y-60880000D02*
X48510000Y-64460000D01*
X48510000Y-64460000D02*
X52830000Y-64460000D01*
X52830000Y-64460000D02*
X53320000Y-63970000D01*
X53320000Y-63970000D02*
X53320000Y-62180000D01*
D17*
X52560000Y-82710000D02*
X52560000Y-85280000D01*
X52560000Y-85280000D02*
X53110000Y-85830000D01*
D18*
X75720000Y-77250000D02*
X75190000Y-76720000D01*
X75720000Y-83270000D02*
X75720000Y-77250000D01*
X69430000Y-68340000D02*
X70760000Y-67010000D01*
X70760000Y-67010000D02*
X73610000Y-67070000D01*
D17*
X53420000Y-67550000D02*
X53420000Y-67950000D01*
D18*
X54760000Y-69290000D02*
X64760000Y-69290000D01*
X53420000Y-67950000D02*
X54760000Y-69290000D01*
X41110000Y-59250000D02*
X42860000Y-59250000D01*
X45090000Y-57020000D02*
X45370000Y-57020000D01*
X42860000Y-59250000D02*
X45090000Y-57020000D01*
X89460000Y-81720000D02*
X91610000Y-81720000D01*
X92530000Y-80800000D02*
X96120000Y-80800000D01*
X91610000Y-81720000D02*
X92530000Y-80800000D01*
X87910000Y-83270000D02*
X89460000Y-81720000D01*
X87910000Y-83270000D02*
X87840000Y-83270000D01*
X87840000Y-83270000D02*
X87840000Y-86040000D01*
X87840000Y-86040000D02*
X87820000Y-86060000D01*
X49730000Y-82710000D02*
X52560000Y-82710000D01*
X52560000Y-82710000D02*
X70140000Y-82710000D01*
X43700000Y-72230000D02*
X43240000Y-72810000D01*
X43240000Y-72810000D02*
X43240000Y-76100000D01*
X43240000Y-76100000D02*
X49730000Y-82710000D01*
X43700000Y-69610000D02*
X43700000Y-72230000D01*
X70700000Y-83270000D02*
X75720000Y-83270000D01*
X75720000Y-83270000D02*
X82830000Y-83270000D01*
X70140000Y-82710000D02*
X70700000Y-83270000D01*
X82830000Y-83270000D02*
X87840000Y-83270000D01*
D19*
X43700000Y-69610000D02*
X43700000Y-69420000D01*
D18*
X43700000Y-69420000D02*
X45570000Y-67550000D01*
X45570000Y-67550000D02*
X53420000Y-67550000D01*
D19*
X43700000Y-69610000D02*
X43700000Y-69530000D01*
D18*
X43700000Y-69530000D02*
X40120000Y-65950000D01*
X40120000Y-65950000D02*
X40120000Y-63320000D01*
X40120000Y-63320000D02*
X38670000Y-61870000D01*
X38220000Y-68450000D02*
X38220000Y-66640000D01*
X35890000Y-60750000D02*
X36670000Y-59970000D01*
X35890000Y-64310000D02*
X35890000Y-60750000D01*
X38220000Y-66640000D02*
X35890000Y-64310000D01*
D19*
X38220000Y-68450000D02*
X38150000Y-68380000D01*
D18*
X47400000Y-72080000D02*
X47400000Y-72210000D01*
X48280000Y-73090000D02*
X48280000Y-75940000D01*
X47400000Y-72210000D02*
X48280000Y-73090000D01*
D19*
X46240000Y-69610000D02*
X46240000Y-69900000D01*
D18*
X46240000Y-69900000D02*
X47400000Y-71060000D01*
X46790000Y-72690000D02*
X45710000Y-72690000D01*
X47400000Y-72080000D02*
X46790000Y-72690000D01*
X47400000Y-71060000D02*
X47400000Y-72080000D01*
X67390000Y-76950000D02*
X66380000Y-75940000D01*
X66380000Y-75940000D02*
X48280000Y-75940000D01*
X45710000Y-75100000D02*
X45710000Y-72690000D01*
X48280000Y-75940000D02*
X46550000Y-75940000D01*
X46550000Y-75940000D02*
X45710000Y-75100000D01*
X45710000Y-72690000D02*
X45710000Y-70140000D01*
D19*
X45710000Y-70140000D02*
X46240000Y-69610000D01*
D18*
X34290000Y-50098000D02*
X34290000Y-68840000D01*
X40270000Y-70500000D02*
X41160000Y-69610000D01*
X35950000Y-70500000D02*
X40270000Y-70500000D01*
X34290000Y-68840000D02*
X35950000Y-70500000D01*
D19*
X36670000Y-50258000D02*
X36830000Y-50098000D01*
D18*
X36670000Y-54890000D02*
X36670000Y-50258000D01*
D20*
G36*
X103850000Y-87260000D02*
X97731773Y-87260000D01*
X98069655Y-86922707D01*
X98476536Y-85942827D01*
X98477462Y-84881828D01*
X98072291Y-83901239D01*
X97322707Y-83150345D01*
X97207000Y-83102299D01*
X97207000Y-48485500D01*
X103850000Y-48485500D01*
X103850000Y-87260000D01*
X103850000Y-87260000D01*
G37*
X103850000Y-87260000D02*
X97731773Y-87260000D01*
X98069655Y-86922707D01*
X98476536Y-85942827D01*
X98477462Y-84881828D01*
X98072291Y-83901239D01*
X97322707Y-83150345D01*
X97207000Y-83102299D01*
X97207000Y-48485500D01*
X103850000Y-48485500D01*
X103850000Y-87260000D01*
M02*
