G04 #@! TF.FileFunction,Copper,L2,Inr,Signal*
%FSLAX46Y46*%
G04 Gerber Fmt 4.6, Leading zero omitted, Abs format (unit mm)*
G04 Created by KiCad (PCBNEW 4.0.0-rc1-stable) date 29/02/2016 1:35:43 AM*
%MOMM*%
G01*
G04 APERTURE LIST*
%ADD10C,0.100000*%
%ADD11C,0.650000*%
%ADD12C,1.700000*%
%ADD13C,4.064000*%
%ADD14C,1.300000*%
%ADD15R,3.500120X3.500120*%
%ADD16C,0.600000*%
%ADD17C,0.500000*%
%ADD18C,0.750000*%
%ADD19C,0.345000*%
%ADD20C,0.254000*%
G04 APERTURE END LIST*
D10*
D11*
X88090000Y-80280000D03*
X86970000Y-80300000D03*
X85600000Y-80330000D03*
X84150000Y-80360000D03*
X48970000Y-59010000D03*
X96880000Y-75070000D03*
X96880000Y-74070000D03*
X96880000Y-73070000D03*
X96880000Y-72070000D03*
X95930000Y-71110000D03*
X94160000Y-71090000D03*
X95930000Y-70070000D03*
X95930000Y-69070000D03*
X95930000Y-68070000D03*
X95930000Y-67070000D03*
X95930000Y-66070000D03*
X95930000Y-65070000D03*
X95930000Y-64070000D03*
X95930000Y-63070000D03*
X95930000Y-62070000D03*
X95930000Y-61070000D03*
X95930000Y-60070000D03*
X95930000Y-59070000D03*
X94100000Y-66650000D03*
X94210000Y-64740000D03*
X94220000Y-63460000D03*
X97330000Y-55370000D03*
X96360000Y-55310000D03*
X95360000Y-55250000D03*
X97130000Y-57860000D03*
X96010000Y-57900000D03*
X94100000Y-76410000D03*
X94240000Y-75160000D03*
X98560000Y-76800000D03*
X97580000Y-76790000D03*
X96480000Y-76810000D03*
X96420000Y-78720000D03*
X97530000Y-78740000D03*
X98530000Y-78680000D03*
X91980000Y-76110000D03*
X90770000Y-78840000D03*
X91920000Y-77210000D03*
X90790000Y-77820000D03*
X90910000Y-70230000D03*
X91930000Y-70090000D03*
X91930000Y-68990000D03*
X103370000Y-81370000D03*
X102670000Y-81370000D03*
X101970000Y-81370000D03*
X101270000Y-81370000D03*
X100570000Y-81370000D03*
X99870000Y-81370000D03*
X103270000Y-74050000D03*
X102570000Y-74050000D03*
X101870000Y-74050000D03*
X101170000Y-74050000D03*
X100470000Y-74050000D03*
X99770000Y-74050000D03*
X103320000Y-60150000D03*
X102620000Y-60150000D03*
X101920000Y-60150000D03*
X101220000Y-60150000D03*
X100520000Y-60150000D03*
X99820000Y-60150000D03*
X103390000Y-52800000D03*
X102690000Y-52800000D03*
X101990000Y-52800000D03*
X101290000Y-52800000D03*
X100590000Y-52800000D03*
X99890000Y-52800000D03*
X68810000Y-52720000D03*
X92370000Y-53810000D03*
X94610000Y-52960000D03*
X94830000Y-54040000D03*
X93470000Y-54230000D03*
X83500000Y-63250000D03*
X82190000Y-63360000D03*
X82800000Y-64420000D03*
X82720000Y-65620000D03*
X82640000Y-66910000D03*
X82610000Y-68110000D03*
X87640000Y-67830000D03*
X87610000Y-66630000D03*
X89090000Y-66600000D03*
X89030000Y-65480000D03*
X87780000Y-65420000D03*
X87830000Y-64240000D03*
X88890000Y-64240000D03*
X88730000Y-63040000D03*
X87640000Y-62990000D03*
X74610000Y-56560000D03*
X73500000Y-56780000D03*
X72460000Y-56760000D03*
X71180000Y-56920000D03*
X70330000Y-56230000D03*
X69320000Y-56670000D03*
X64440000Y-56450000D03*
X63050000Y-56480000D03*
X61890000Y-56480000D03*
X60520000Y-56520000D03*
X57440000Y-56120000D03*
X57590000Y-57060000D03*
X56430000Y-57340000D03*
X56340000Y-56260000D03*
X54930000Y-56140000D03*
X53600000Y-56140000D03*
X52350000Y-56110000D03*
X49000000Y-54110000D03*
X49020000Y-55040000D03*
X49020000Y-55990000D03*
X49010000Y-57050000D03*
X49010000Y-58060000D03*
X49140000Y-53230000D03*
X51150000Y-57130000D03*
X51180000Y-56080000D03*
X75430000Y-55260000D03*
X75830000Y-52710000D03*
X74830000Y-52720000D03*
X73850000Y-52750000D03*
X73010000Y-52770000D03*
X71450000Y-52750000D03*
X70390000Y-52790000D03*
X67950000Y-52690000D03*
X66890000Y-52670000D03*
X65850000Y-52690000D03*
X64850000Y-52690000D03*
X63850000Y-52690000D03*
X62780000Y-52750000D03*
X61660000Y-52720000D03*
X60570000Y-52780000D03*
X58620000Y-52390000D03*
X57850000Y-52690000D03*
X56850000Y-52690000D03*
X55850000Y-52690000D03*
X54850000Y-52690000D03*
X53850000Y-52690000D03*
X52850000Y-52690000D03*
X51850000Y-52690000D03*
X50850000Y-52690000D03*
X49850000Y-52690000D03*
X74210000Y-55150000D03*
X73210000Y-55150000D03*
X72210000Y-55150000D03*
X71210000Y-55150000D03*
X70360000Y-55220000D03*
X68700000Y-55190000D03*
X67890000Y-55230000D03*
X66210000Y-55150000D03*
X65210000Y-55150000D03*
X64210000Y-55150000D03*
X63210000Y-55150000D03*
X62210000Y-55150000D03*
X61210000Y-55150000D03*
X60270000Y-55150000D03*
X59300000Y-55140000D03*
X58030000Y-55180000D03*
X57210000Y-55150000D03*
X56210000Y-55150000D03*
X55210000Y-55150000D03*
X54210000Y-55150000D03*
X53210000Y-55150000D03*
X52210000Y-55150000D03*
X51210000Y-55150000D03*
X78730000Y-85300000D03*
X81230000Y-82400000D03*
X80380000Y-80320000D03*
X81090000Y-79830000D03*
X89370000Y-79770000D03*
X88530000Y-75310000D03*
X88470000Y-72330000D03*
X88430000Y-71450000D03*
X88460000Y-70510000D03*
X88420000Y-69720000D03*
X88680000Y-68760000D03*
X89410000Y-68000000D03*
X94100000Y-70160000D03*
X93980000Y-68980000D03*
X94020000Y-67900000D03*
X77900000Y-52910000D03*
X78600000Y-52940000D03*
X79070000Y-53590000D03*
X79310000Y-54660000D03*
X79320000Y-55480000D03*
X79330000Y-56400000D03*
X77170000Y-55150000D03*
X77200000Y-56130000D03*
X77200000Y-56950000D03*
X77170000Y-57860000D03*
X76320000Y-57840000D03*
X75310000Y-57870000D03*
X74400000Y-58530000D03*
X74340000Y-59530000D03*
X74350000Y-60660000D03*
X74760000Y-61740000D03*
X75800000Y-62060000D03*
X76960000Y-62100000D03*
X77870000Y-63130000D03*
X80310000Y-62080000D03*
X80420000Y-63160000D03*
X77920000Y-62100000D03*
X81380000Y-62130000D03*
X82530000Y-62090000D03*
X83590000Y-59680000D03*
X83590000Y-60910000D03*
X87220000Y-59380000D03*
X87230000Y-58480000D03*
X87230000Y-60280000D03*
X87220000Y-61410000D03*
X88200000Y-61840000D03*
X89260000Y-61870000D03*
X90280000Y-61810000D03*
X88510000Y-52420000D03*
X89730000Y-52440000D03*
X91190000Y-53370000D03*
X91240000Y-54270000D03*
X91290000Y-55230000D03*
X98390000Y-55340000D03*
X94370000Y-55260000D03*
X93330000Y-55240000D03*
X92330000Y-55250000D03*
X95010000Y-57900000D03*
X98440000Y-57810000D03*
X94250000Y-62120000D03*
X94170000Y-61050000D03*
X94170000Y-59990000D03*
X94150000Y-58950000D03*
X94090000Y-57840000D03*
X91330000Y-61470000D03*
X91330000Y-60220000D03*
X91330000Y-59160000D03*
D12*
X36670000Y-54890000D03*
X36670000Y-57430000D03*
X36670000Y-59970000D03*
X46240000Y-69610000D03*
X43700000Y-69610000D03*
X41160000Y-69610000D03*
D13*
X92370000Y-50630000D03*
X95810000Y-85410000D03*
X40850000Y-55560000D03*
X47550000Y-85160000D03*
D14*
X80070000Y-73910700D03*
X34350000Y-73910700D03*
X36890000Y-73910700D03*
X39430000Y-73910700D03*
X41970000Y-73910700D03*
X44510000Y-73910700D03*
X47050000Y-73910700D03*
X49590000Y-73910700D03*
X52130000Y-73910700D03*
X54670000Y-73910700D03*
X57210000Y-73910700D03*
X59750000Y-73910700D03*
X62290000Y-73910700D03*
X64830000Y-73910700D03*
X67370000Y-73910700D03*
X69910000Y-73910700D03*
X72450000Y-73910700D03*
X74990000Y-73910700D03*
X77530000Y-73910700D03*
X82610000Y-73910700D03*
X85150000Y-73910700D03*
X87690000Y-73910700D03*
X80060000Y-50110700D03*
X34340000Y-50110700D03*
X36880000Y-50110700D03*
X39420000Y-50110700D03*
X41960000Y-50110700D03*
X44500000Y-50110700D03*
X47040000Y-50110700D03*
X49580000Y-50110700D03*
X52120000Y-50110700D03*
X54660000Y-50110700D03*
X57200000Y-50110700D03*
X59740000Y-50110700D03*
X62280000Y-50110700D03*
X64820000Y-50110700D03*
X67360000Y-50110700D03*
X69900000Y-50110700D03*
X72440000Y-50110700D03*
X74980000Y-50110700D03*
X77520000Y-50110700D03*
X82600000Y-50110700D03*
X85140000Y-50110700D03*
X87680000Y-50110700D03*
D15*
X43190660Y-80970000D03*
X37190660Y-80970000D03*
X40190660Y-85669000D03*
D16*
X67780000Y-81150000D03*
X90940000Y-71300000D03*
X86170000Y-63310000D03*
X82450000Y-52440000D03*
X86280000Y-52300000D03*
X84830000Y-63090000D03*
X66080000Y-62220000D03*
X53320000Y-62180000D03*
X45540000Y-53750000D03*
X44470000Y-59000000D03*
X58090000Y-60370000D03*
X44490000Y-61920000D03*
X44335700Y-66408300D03*
X42748200Y-66865500D03*
X36230000Y-67400000D03*
X49974500Y-62166500D03*
X50711100Y-62890400D03*
X51523900Y-62153800D03*
X50025300Y-61442600D03*
X50711100Y-61379100D03*
X51447700Y-61404500D03*
X50736500Y-62166500D03*
X65660000Y-86250000D03*
X60040000Y-85860000D03*
X103590000Y-48820000D03*
X102510000Y-48770000D03*
X101170000Y-48940000D03*
X98710000Y-52070000D03*
X98450000Y-53130000D03*
X98400000Y-54100000D03*
X96480000Y-52180000D03*
X96500000Y-51270000D03*
X96460000Y-50210000D03*
X96440000Y-49300000D03*
X95500000Y-49320000D03*
X95440000Y-50230000D03*
X95340000Y-51210000D03*
X95320000Y-52240000D03*
X97550000Y-53170000D03*
X97540000Y-54060000D03*
X96500000Y-54010000D03*
X96470000Y-53050000D03*
X97660000Y-48930000D03*
X97560000Y-50010000D03*
X97580000Y-51080000D03*
X97560000Y-52100000D03*
X73140000Y-76790000D03*
X69540000Y-60050000D03*
X69330000Y-65150000D03*
X80240000Y-86490000D03*
X102540000Y-68040000D03*
X100890000Y-66620000D03*
X103590000Y-69530000D03*
X102400000Y-69540000D03*
X103640000Y-68080000D03*
X101250000Y-69460000D03*
X99270000Y-69600000D03*
X97320000Y-66500000D03*
X97320000Y-69570000D03*
X97370000Y-67980000D03*
X98710000Y-67920000D03*
X98740000Y-66440000D03*
X98680000Y-64990000D03*
X97480000Y-65070000D03*
X79070000Y-57760000D03*
X79110000Y-56940000D03*
X91460000Y-57220000D03*
X92480000Y-57180000D03*
X93410000Y-57180000D03*
X92030000Y-72330000D03*
X92030000Y-73330000D03*
X92030000Y-74260000D03*
X92050000Y-75220000D03*
X99940000Y-85720000D03*
X100970000Y-85670000D03*
X98850000Y-86900000D03*
X99830000Y-87090000D03*
X101000000Y-87070000D03*
X102230000Y-87010000D03*
X103520000Y-87090000D03*
X103630000Y-85780000D03*
X102340000Y-85750000D03*
X98830000Y-85670000D03*
X98321100Y-71457700D03*
X95200000Y-78510000D03*
X80910000Y-58140000D03*
X81580000Y-58160000D03*
X82330000Y-58160000D03*
X88930000Y-54690000D03*
X88940000Y-55630000D03*
X88910000Y-56850000D03*
X88940000Y-58010000D03*
X89030000Y-58990000D03*
X89040000Y-59900000D03*
X81860000Y-60160000D03*
X80900000Y-60140000D03*
X79990000Y-60210000D03*
X78800000Y-60210000D03*
X77720000Y-60220000D03*
X76630000Y-60220000D03*
X57020000Y-61110000D03*
X84200000Y-52530000D03*
X51880000Y-58270000D03*
X75120000Y-62430000D03*
X65940000Y-56410000D03*
X99090000Y-48860000D03*
X100010000Y-50160000D03*
X100050000Y-48960000D03*
X98990000Y-49940000D03*
X99720000Y-66220000D03*
X100690000Y-64160000D03*
X100670000Y-65330000D03*
X99740000Y-62960000D03*
X99690000Y-64460000D03*
X102730000Y-65330000D03*
X103520000Y-66860000D03*
X102040000Y-66840000D03*
X101210000Y-68060000D03*
X99640000Y-67510000D03*
X101700000Y-63710000D03*
X101640000Y-65330000D03*
X103610000Y-64250000D03*
X103420000Y-63300000D03*
X103460000Y-50090000D03*
X98650000Y-60890000D03*
X91850000Y-67920000D03*
X91290000Y-62190000D03*
X76590000Y-85480000D03*
X78748640Y-82184560D03*
X84898510Y-57062790D03*
X103480000Y-71170000D03*
X98920700Y-84239600D03*
X100762200Y-84214200D03*
X102959300Y-84201500D03*
X98882600Y-79997800D03*
X98882600Y-82093300D03*
X51040000Y-79350000D03*
X66720000Y-80360000D03*
X63300000Y-66790000D03*
X73650000Y-81670000D03*
X92314400Y-78530300D03*
X85381110Y-57624130D03*
X84377810Y-57624130D03*
X84327010Y-56430330D03*
X85419210Y-56519230D03*
X79334360Y-66456560D03*
X82243680Y-84480720D03*
X99682700Y-71006200D03*
X102121100Y-70968100D03*
X93774900Y-77539700D03*
X93749500Y-78949400D03*
X93762200Y-78200100D03*
X98882600Y-75387700D03*
X80324960Y-65567560D03*
X80324960Y-66469260D03*
X80312260Y-67383660D03*
X79397860Y-67383660D03*
X78508860Y-65504060D03*
X78572360Y-67409060D03*
X78572360Y-66469260D03*
X55670000Y-78340000D03*
X98768300Y-73292200D03*
X57950000Y-58060000D03*
X92692000Y-64662000D03*
X91129900Y-65563700D03*
X91129900Y-64636600D03*
X92692000Y-65627200D03*
X91942700Y-65119200D03*
X49910000Y-65380000D03*
X50490000Y-65990000D03*
X51180000Y-66640000D03*
X48880000Y-65420000D03*
X53110000Y-85830000D03*
X75190000Y-76720000D03*
X69430000Y-68340000D03*
X73610000Y-67070000D03*
X64760000Y-69290000D03*
X41110000Y-59250000D03*
X45370000Y-57020000D03*
X96120000Y-80800000D03*
X89460000Y-81720000D03*
X87820000Y-86060000D03*
X53420000Y-67550000D03*
X38670000Y-61870000D03*
X38220000Y-68450000D03*
X67390000Y-76950000D03*
D17*
X50736500Y-62191900D02*
X50736500Y-62166500D01*
D18*
X103460000Y-50090000D02*
X103500000Y-50050000D01*
X103500000Y-50050000D02*
X103590000Y-48820000D01*
D19*
X79070000Y-56980000D02*
X79070000Y-57760000D01*
X79110000Y-56940000D02*
X79070000Y-56980000D01*
X92440000Y-57220000D02*
X91460000Y-57220000D01*
X92480000Y-57180000D02*
X92440000Y-57220000D01*
X93550000Y-57180000D02*
X93410000Y-57180000D01*
X94090000Y-57720000D02*
X93550000Y-57180000D01*
X94090000Y-57840000D02*
X94090000Y-57720000D01*
X91980000Y-76110000D02*
X91980000Y-75290000D01*
X92030000Y-74260000D02*
X92030000Y-73330000D01*
X91980000Y-75290000D02*
X92050000Y-75220000D01*
X98893500Y-85733500D02*
X98830000Y-85670000D01*
X75120000Y-62430000D02*
X75300000Y-62430000D01*
D18*
X100050000Y-50120000D02*
X100050000Y-48960000D01*
X100010000Y-50160000D02*
X100050000Y-50120000D01*
X99740000Y-62960000D02*
X99710000Y-62990000D01*
X99710000Y-62990000D02*
X99690000Y-64460000D01*
X101700000Y-65270000D02*
X101700000Y-63710000D01*
X101640000Y-65330000D02*
X101700000Y-65270000D01*
X103530000Y-63410000D02*
X103610000Y-64250000D01*
X103420000Y-63300000D02*
X103530000Y-63410000D01*
D19*
X84915000Y-57065000D02*
X84900720Y-57065000D01*
X84900720Y-57065000D02*
X84898510Y-57062790D01*
D17*
X103440000Y-71130000D02*
X103580000Y-69590000D01*
X103480000Y-71170000D02*
X103440000Y-71130000D01*
X98882600Y-84201500D02*
X98920700Y-84239600D01*
X100762200Y-84214200D02*
X100774900Y-84201500D01*
X100774900Y-84201500D02*
X102959300Y-84201500D01*
X98882600Y-82093300D02*
X98882600Y-84201500D01*
X98882600Y-82093300D02*
X98882600Y-79997800D01*
X79334360Y-66456560D02*
X79334360Y-65631060D01*
X98768300Y-72034900D02*
X98311100Y-71577700D01*
X98768300Y-73292200D02*
X98768300Y-72034900D01*
X102083000Y-71006200D02*
X102121100Y-70968100D01*
X99682700Y-71006200D02*
X102083000Y-71006200D01*
X98768300Y-75273400D02*
X98882600Y-75387700D01*
X98768300Y-75273400D02*
X98768300Y-73292200D01*
X41910000Y-50098000D02*
X41910000Y-50253900D01*
D20*
G36*
X90110345Y-49117293D02*
X89703464Y-50097173D01*
X89702538Y-51158172D01*
X90107709Y-52138761D01*
X90857293Y-52889655D01*
X91837173Y-53296536D01*
X92898172Y-53297462D01*
X93878761Y-52892291D01*
X94629655Y-52142707D01*
X95036536Y-51162827D01*
X95037462Y-50101828D01*
X94632291Y-49121239D01*
X93997661Y-48485500D01*
X103850000Y-48485500D01*
X103850000Y-54593000D01*
X99330000Y-54593000D01*
X99280590Y-54603006D01*
X99238965Y-54631447D01*
X99211685Y-54673841D01*
X99203000Y-54720000D01*
X99203000Y-58220000D01*
X99213006Y-58269410D01*
X99241447Y-58311035D01*
X99283841Y-58338315D01*
X99330000Y-58347000D01*
X103850000Y-58347000D01*
X103850000Y-75803000D01*
X99270000Y-75803000D01*
X99220590Y-75813006D01*
X99178965Y-75841447D01*
X99151685Y-75883841D01*
X99143000Y-75930000D01*
X99143000Y-79440000D01*
X99153006Y-79489410D01*
X99181447Y-79531035D01*
X99223841Y-79558315D01*
X99270000Y-79567000D01*
X103850000Y-79567000D01*
X103850000Y-87260000D01*
X97731773Y-87260000D01*
X98069655Y-86922707D01*
X98476536Y-85942827D01*
X98477462Y-84881828D01*
X98072291Y-83901239D01*
X97322707Y-83150345D01*
X96342827Y-82743464D01*
X95281828Y-82742538D01*
X94301239Y-83147709D01*
X93550345Y-83897293D01*
X93143464Y-84877173D01*
X93142538Y-85938172D01*
X93547709Y-86918761D01*
X93888353Y-87260000D01*
X49221336Y-87260000D01*
X49809655Y-86672707D01*
X50082688Y-86015167D01*
X52174838Y-86015167D01*
X52316883Y-86358943D01*
X52579673Y-86622192D01*
X52923201Y-86764838D01*
X53295167Y-86765162D01*
X53638943Y-86623117D01*
X53902192Y-86360327D01*
X53950010Y-86245167D01*
X86884838Y-86245167D01*
X87026883Y-86588943D01*
X87289673Y-86852192D01*
X87633201Y-86994838D01*
X88005167Y-86995162D01*
X88348943Y-86853117D01*
X88612192Y-86590327D01*
X88754838Y-86246799D01*
X88755162Y-85874833D01*
X88613117Y-85531057D01*
X88350327Y-85267808D01*
X88006799Y-85125162D01*
X87634833Y-85124838D01*
X87291057Y-85266883D01*
X87027808Y-85529673D01*
X86885162Y-85873201D01*
X86884838Y-86245167D01*
X53950010Y-86245167D01*
X54044838Y-86016799D01*
X54045162Y-85644833D01*
X53903117Y-85301057D01*
X53640327Y-85037808D01*
X53296799Y-84895162D01*
X52924833Y-84894838D01*
X52581057Y-85036883D01*
X52317808Y-85299673D01*
X52175162Y-85643201D01*
X52174838Y-86015167D01*
X50082688Y-86015167D01*
X50216536Y-85692827D01*
X50217462Y-84631828D01*
X49812291Y-83651239D01*
X49062707Y-82900345D01*
X48082827Y-82493464D01*
X47021828Y-82492538D01*
X46041239Y-82897709D01*
X45290345Y-83647293D01*
X44883464Y-84627173D01*
X44882538Y-85688172D01*
X45287709Y-86668761D01*
X45877917Y-87260000D01*
X33680000Y-87260000D01*
X33680000Y-79219940D01*
X40793160Y-79219940D01*
X40793160Y-82720060D01*
X40837438Y-82955377D01*
X40976510Y-83171501D01*
X41188710Y-83316491D01*
X41440600Y-83367500D01*
X44940720Y-83367500D01*
X45176037Y-83323222D01*
X45392161Y-83184150D01*
X45537151Y-82971950D01*
X45588160Y-82720060D01*
X45588160Y-81335167D01*
X66844838Y-81335167D01*
X66986883Y-81678943D01*
X67249673Y-81942192D01*
X67593201Y-82084838D01*
X67965167Y-82085162D01*
X68308943Y-81943117D01*
X68346959Y-81905167D01*
X88524838Y-81905167D01*
X88666883Y-82248943D01*
X88929673Y-82512192D01*
X89273201Y-82654838D01*
X89645167Y-82655162D01*
X89988943Y-82513117D01*
X90252192Y-82250327D01*
X90394838Y-81906799D01*
X90395162Y-81534833D01*
X90253117Y-81191057D01*
X90047586Y-80985167D01*
X95184838Y-80985167D01*
X95326883Y-81328943D01*
X95589673Y-81592192D01*
X95933201Y-81734838D01*
X96305167Y-81735162D01*
X96648943Y-81593117D01*
X96912192Y-81330327D01*
X97054838Y-80986799D01*
X97055162Y-80614833D01*
X96913117Y-80271057D01*
X96650327Y-80007808D01*
X96306799Y-79865162D01*
X95934833Y-79864838D01*
X95591057Y-80006883D01*
X95327808Y-80269673D01*
X95185162Y-80613201D01*
X95184838Y-80985167D01*
X90047586Y-80985167D01*
X89990327Y-80927808D01*
X89646799Y-80785162D01*
X89274833Y-80784838D01*
X88931057Y-80926883D01*
X88667808Y-81189673D01*
X88525162Y-81533201D01*
X88524838Y-81905167D01*
X68346959Y-81905167D01*
X68572192Y-81680327D01*
X68714838Y-81336799D01*
X68715162Y-80964833D01*
X68573117Y-80621057D01*
X68310327Y-80357808D01*
X67966799Y-80215162D01*
X67594833Y-80214838D01*
X67251057Y-80356883D01*
X66987808Y-80619673D01*
X66845162Y-80963201D01*
X66844838Y-81335167D01*
X45588160Y-81335167D01*
X45588160Y-79219940D01*
X45543882Y-78984623D01*
X45404810Y-78768499D01*
X45192610Y-78623509D01*
X44940720Y-78572500D01*
X41440600Y-78572500D01*
X41205283Y-78616778D01*
X40989159Y-78755850D01*
X40844169Y-78968050D01*
X40793160Y-79219940D01*
X33680000Y-79219940D01*
X33680000Y-77135167D01*
X66454838Y-77135167D01*
X66596883Y-77478943D01*
X66859673Y-77742192D01*
X67203201Y-77884838D01*
X67575167Y-77885162D01*
X67918943Y-77743117D01*
X68182192Y-77480327D01*
X68324838Y-77136799D01*
X68325039Y-76905167D01*
X74254838Y-76905167D01*
X74396883Y-77248943D01*
X74659673Y-77512192D01*
X75003201Y-77654838D01*
X75375167Y-77655162D01*
X75718943Y-77513117D01*
X75982192Y-77250327D01*
X76124838Y-76906799D01*
X76125162Y-76534833D01*
X75983117Y-76191057D01*
X75720327Y-75927808D01*
X75376799Y-75785162D01*
X75004833Y-75784838D01*
X74661057Y-75926883D01*
X74397808Y-76189673D01*
X74255162Y-76533201D01*
X74254838Y-76905167D01*
X68325039Y-76905167D01*
X68325162Y-76764833D01*
X68183117Y-76421057D01*
X67920327Y-76157808D01*
X67576799Y-76015162D01*
X67204833Y-76014838D01*
X66861057Y-76156883D01*
X66597808Y-76419673D01*
X66455162Y-76763201D01*
X66454838Y-77135167D01*
X33680000Y-77135167D01*
X33680000Y-75023870D01*
X34093276Y-75195477D01*
X34604481Y-75195923D01*
X35076943Y-75000705D01*
X35438735Y-74639545D01*
X35620205Y-74202518D01*
X35799995Y-74637643D01*
X36161155Y-74999435D01*
X36633276Y-75195477D01*
X37144481Y-75195923D01*
X37616943Y-75000705D01*
X37978735Y-74639545D01*
X38160205Y-74202518D01*
X38339995Y-74637643D01*
X38701155Y-74999435D01*
X39173276Y-75195477D01*
X39684481Y-75195923D01*
X40156943Y-75000705D01*
X40518735Y-74639545D01*
X40700205Y-74202518D01*
X40879995Y-74637643D01*
X41241155Y-74999435D01*
X41713276Y-75195477D01*
X42224481Y-75195923D01*
X42696943Y-75000705D01*
X43058735Y-74639545D01*
X43240205Y-74202518D01*
X43419995Y-74637643D01*
X43781155Y-74999435D01*
X44253276Y-75195477D01*
X44764481Y-75195923D01*
X45236943Y-75000705D01*
X45598735Y-74639545D01*
X45780205Y-74202518D01*
X45959995Y-74637643D01*
X46321155Y-74999435D01*
X46793276Y-75195477D01*
X47304481Y-75195923D01*
X47776943Y-75000705D01*
X48138735Y-74639545D01*
X48320205Y-74202518D01*
X48499995Y-74637643D01*
X48861155Y-74999435D01*
X49333276Y-75195477D01*
X49844481Y-75195923D01*
X50316943Y-75000705D01*
X50678735Y-74639545D01*
X50860205Y-74202518D01*
X51039995Y-74637643D01*
X51401155Y-74999435D01*
X51873276Y-75195477D01*
X52384481Y-75195923D01*
X52856943Y-75000705D01*
X53218735Y-74639545D01*
X53400205Y-74202518D01*
X53579995Y-74637643D01*
X53941155Y-74999435D01*
X54413276Y-75195477D01*
X54924481Y-75195923D01*
X55396943Y-75000705D01*
X55758735Y-74639545D01*
X55940205Y-74202518D01*
X56119995Y-74637643D01*
X56481155Y-74999435D01*
X56953276Y-75195477D01*
X57464481Y-75195923D01*
X57936943Y-75000705D01*
X58298735Y-74639545D01*
X58480205Y-74202518D01*
X58659995Y-74637643D01*
X59021155Y-74999435D01*
X59493276Y-75195477D01*
X60004481Y-75195923D01*
X60476943Y-75000705D01*
X60838735Y-74639545D01*
X61020205Y-74202518D01*
X61199995Y-74637643D01*
X61561155Y-74999435D01*
X62033276Y-75195477D01*
X62544481Y-75195923D01*
X63016943Y-75000705D01*
X63378735Y-74639545D01*
X63560205Y-74202518D01*
X63739995Y-74637643D01*
X64101155Y-74999435D01*
X64573276Y-75195477D01*
X65084481Y-75195923D01*
X65556943Y-75000705D01*
X65918735Y-74639545D01*
X66100205Y-74202518D01*
X66279995Y-74637643D01*
X66641155Y-74999435D01*
X67113276Y-75195477D01*
X67624481Y-75195923D01*
X68096943Y-75000705D01*
X68458735Y-74639545D01*
X68640205Y-74202518D01*
X68819995Y-74637643D01*
X69181155Y-74999435D01*
X69653276Y-75195477D01*
X70164481Y-75195923D01*
X70636943Y-75000705D01*
X70998735Y-74639545D01*
X71180205Y-74202518D01*
X71359995Y-74637643D01*
X71721155Y-74999435D01*
X72193276Y-75195477D01*
X72704481Y-75195923D01*
X73176943Y-75000705D01*
X73538735Y-74639545D01*
X73720205Y-74202518D01*
X73899995Y-74637643D01*
X74261155Y-74999435D01*
X74733276Y-75195477D01*
X75244481Y-75195923D01*
X75716943Y-75000705D01*
X76078735Y-74639545D01*
X76260205Y-74202518D01*
X76439995Y-74637643D01*
X76801155Y-74999435D01*
X77273276Y-75195477D01*
X77784481Y-75195923D01*
X78256943Y-75000705D01*
X78618735Y-74639545D01*
X78800205Y-74202518D01*
X78979995Y-74637643D01*
X79341155Y-74999435D01*
X79813276Y-75195477D01*
X80324481Y-75195923D01*
X80796943Y-75000705D01*
X81158735Y-74639545D01*
X81340205Y-74202518D01*
X81519995Y-74637643D01*
X81881155Y-74999435D01*
X82353276Y-75195477D01*
X82864481Y-75195923D01*
X83336943Y-75000705D01*
X83698735Y-74639545D01*
X83880205Y-74202518D01*
X84059995Y-74637643D01*
X84421155Y-74999435D01*
X84893276Y-75195477D01*
X85404481Y-75195923D01*
X85876943Y-75000705D01*
X86238735Y-74639545D01*
X86420205Y-74202518D01*
X86599995Y-74637643D01*
X86961155Y-74999435D01*
X87433276Y-75195477D01*
X87944481Y-75195923D01*
X88416943Y-75000705D01*
X88778735Y-74639545D01*
X88974777Y-74167424D01*
X88975223Y-73656219D01*
X88780005Y-73183757D01*
X88418845Y-72821965D01*
X87946724Y-72625923D01*
X87435519Y-72625477D01*
X86963057Y-72820695D01*
X86601265Y-73181855D01*
X86419795Y-73618882D01*
X86240005Y-73183757D01*
X85878845Y-72821965D01*
X85406724Y-72625923D01*
X84895519Y-72625477D01*
X84423057Y-72820695D01*
X84061265Y-73181855D01*
X83879795Y-73618882D01*
X83700005Y-73183757D01*
X83338845Y-72821965D01*
X82866724Y-72625923D01*
X82355519Y-72625477D01*
X81883057Y-72820695D01*
X81521265Y-73181855D01*
X81339795Y-73618882D01*
X81160005Y-73183757D01*
X80798845Y-72821965D01*
X80326724Y-72625923D01*
X79815519Y-72625477D01*
X79343057Y-72820695D01*
X78981265Y-73181855D01*
X78799795Y-73618882D01*
X78620005Y-73183757D01*
X78258845Y-72821965D01*
X77786724Y-72625923D01*
X77275519Y-72625477D01*
X76803057Y-72820695D01*
X76441265Y-73181855D01*
X76259795Y-73618882D01*
X76080005Y-73183757D01*
X75718845Y-72821965D01*
X75246724Y-72625923D01*
X74735519Y-72625477D01*
X74263057Y-72820695D01*
X73901265Y-73181855D01*
X73719795Y-73618882D01*
X73540005Y-73183757D01*
X73178845Y-72821965D01*
X72706724Y-72625923D01*
X72195519Y-72625477D01*
X71723057Y-72820695D01*
X71361265Y-73181855D01*
X71179795Y-73618882D01*
X71000005Y-73183757D01*
X70638845Y-72821965D01*
X70166724Y-72625923D01*
X69655519Y-72625477D01*
X69183057Y-72820695D01*
X68821265Y-73181855D01*
X68639795Y-73618882D01*
X68460005Y-73183757D01*
X68098845Y-72821965D01*
X67626724Y-72625923D01*
X67115519Y-72625477D01*
X66643057Y-72820695D01*
X66281265Y-73181855D01*
X66099795Y-73618882D01*
X65920005Y-73183757D01*
X65558845Y-72821965D01*
X65086724Y-72625923D01*
X64575519Y-72625477D01*
X64103057Y-72820695D01*
X63741265Y-73181855D01*
X63559795Y-73618882D01*
X63380005Y-73183757D01*
X63018845Y-72821965D01*
X62546724Y-72625923D01*
X62035519Y-72625477D01*
X61563057Y-72820695D01*
X61201265Y-73181855D01*
X61019795Y-73618882D01*
X60840005Y-73183757D01*
X60478845Y-72821965D01*
X60006724Y-72625923D01*
X59495519Y-72625477D01*
X59023057Y-72820695D01*
X58661265Y-73181855D01*
X58479795Y-73618882D01*
X58300005Y-73183757D01*
X57938845Y-72821965D01*
X57466724Y-72625923D01*
X56955519Y-72625477D01*
X56483057Y-72820695D01*
X56121265Y-73181855D01*
X55939795Y-73618882D01*
X55760005Y-73183757D01*
X55398845Y-72821965D01*
X54926724Y-72625923D01*
X54415519Y-72625477D01*
X53943057Y-72820695D01*
X53581265Y-73181855D01*
X53399795Y-73618882D01*
X53220005Y-73183757D01*
X52858845Y-72821965D01*
X52386724Y-72625923D01*
X51875519Y-72625477D01*
X51403057Y-72820695D01*
X51041265Y-73181855D01*
X50859795Y-73618882D01*
X50680005Y-73183757D01*
X50318845Y-72821965D01*
X49846724Y-72625923D01*
X49335519Y-72625477D01*
X48863057Y-72820695D01*
X48501265Y-73181855D01*
X48319795Y-73618882D01*
X48140005Y-73183757D01*
X47778845Y-72821965D01*
X47306724Y-72625923D01*
X46795519Y-72625477D01*
X46323057Y-72820695D01*
X45961265Y-73181855D01*
X45779795Y-73618882D01*
X45600005Y-73183757D01*
X45238845Y-72821965D01*
X44766724Y-72625923D01*
X44255519Y-72625477D01*
X43783057Y-72820695D01*
X43421265Y-73181855D01*
X43239795Y-73618882D01*
X43060005Y-73183757D01*
X42698845Y-72821965D01*
X42226724Y-72625923D01*
X41715519Y-72625477D01*
X41243057Y-72820695D01*
X40881265Y-73181855D01*
X40699795Y-73618882D01*
X40520005Y-73183757D01*
X40158845Y-72821965D01*
X39686724Y-72625923D01*
X39175519Y-72625477D01*
X38703057Y-72820695D01*
X38341265Y-73181855D01*
X38159795Y-73618882D01*
X37980005Y-73183757D01*
X37618845Y-72821965D01*
X37146724Y-72625923D01*
X36635519Y-72625477D01*
X36163057Y-72820695D01*
X35801265Y-73181855D01*
X35619795Y-73618882D01*
X35440005Y-73183757D01*
X35078845Y-72821965D01*
X34606724Y-72625923D01*
X34095519Y-72625477D01*
X33680000Y-72797167D01*
X33680000Y-71485167D01*
X90004838Y-71485167D01*
X90146883Y-71828943D01*
X90409673Y-72092192D01*
X90753201Y-72234838D01*
X91125167Y-72235162D01*
X91468943Y-72093117D01*
X91732192Y-71830327D01*
X91874838Y-71486799D01*
X91875162Y-71114833D01*
X91733117Y-70771057D01*
X91470327Y-70507808D01*
X91126799Y-70365162D01*
X90754833Y-70364838D01*
X90411057Y-70506883D01*
X90147808Y-70769673D01*
X90005162Y-71113201D01*
X90004838Y-71485167D01*
X33680000Y-71485167D01*
X33680000Y-69904089D01*
X39674743Y-69904089D01*
X39900344Y-70450086D01*
X40317717Y-70868188D01*
X40863319Y-71094742D01*
X41454089Y-71095257D01*
X42000086Y-70869656D01*
X42418188Y-70452283D01*
X42429748Y-70424443D01*
X42440344Y-70450086D01*
X42857717Y-70868188D01*
X43403319Y-71094742D01*
X43994089Y-71095257D01*
X44540086Y-70869656D01*
X44958188Y-70452283D01*
X44969748Y-70424443D01*
X44980344Y-70450086D01*
X45397717Y-70868188D01*
X45943319Y-71094742D01*
X46534089Y-71095257D01*
X47080086Y-70869656D01*
X47498188Y-70452283D01*
X47724742Y-69906681D01*
X47725118Y-69475167D01*
X63824838Y-69475167D01*
X63966883Y-69818943D01*
X64229673Y-70082192D01*
X64573201Y-70224838D01*
X64945167Y-70225162D01*
X65288943Y-70083117D01*
X65552192Y-69820327D01*
X65694838Y-69476799D01*
X65695162Y-69104833D01*
X65553117Y-68761057D01*
X65317639Y-68525167D01*
X68494838Y-68525167D01*
X68636883Y-68868943D01*
X68899673Y-69132192D01*
X69243201Y-69274838D01*
X69615167Y-69275162D01*
X69958943Y-69133117D01*
X70222192Y-68870327D01*
X70364838Y-68526799D01*
X70365162Y-68154833D01*
X70223117Y-67811057D01*
X69960327Y-67547808D01*
X69616799Y-67405162D01*
X69244833Y-67404838D01*
X68901057Y-67546883D01*
X68637808Y-67809673D01*
X68495162Y-68153201D01*
X68494838Y-68525167D01*
X65317639Y-68525167D01*
X65290327Y-68497808D01*
X64946799Y-68355162D01*
X64574833Y-68354838D01*
X64231057Y-68496883D01*
X63967808Y-68759673D01*
X63825162Y-69103201D01*
X63824838Y-69475167D01*
X47725118Y-69475167D01*
X47725257Y-69315911D01*
X47499656Y-68769914D01*
X47082283Y-68351812D01*
X46536681Y-68125258D01*
X45945911Y-68124743D01*
X45399914Y-68350344D01*
X44981812Y-68767717D01*
X44970252Y-68795557D01*
X44959656Y-68769914D01*
X44542283Y-68351812D01*
X43996681Y-68125258D01*
X43405911Y-68124743D01*
X42859914Y-68350344D01*
X42441812Y-68767717D01*
X42430252Y-68795557D01*
X42419656Y-68769914D01*
X42002283Y-68351812D01*
X41456681Y-68125258D01*
X40865911Y-68124743D01*
X40319914Y-68350344D01*
X39901812Y-68767717D01*
X39675258Y-69313319D01*
X39674743Y-69904089D01*
X33680000Y-69904089D01*
X33680000Y-68635167D01*
X37284838Y-68635167D01*
X37426883Y-68978943D01*
X37689673Y-69242192D01*
X38033201Y-69384838D01*
X38405167Y-69385162D01*
X38748943Y-69243117D01*
X39012192Y-68980327D01*
X39154838Y-68636799D01*
X39155162Y-68264833D01*
X39013117Y-67921057D01*
X38750327Y-67657808D01*
X38406799Y-67515162D01*
X38034833Y-67514838D01*
X37691057Y-67656883D01*
X37427808Y-67919673D01*
X37285162Y-68263201D01*
X37284838Y-68635167D01*
X33680000Y-68635167D01*
X33680000Y-67585167D01*
X35294838Y-67585167D01*
X35436883Y-67928943D01*
X35699673Y-68192192D01*
X36043201Y-68334838D01*
X36415167Y-68335162D01*
X36758943Y-68193117D01*
X37022192Y-67930327D01*
X37164838Y-67586799D01*
X37165162Y-67214833D01*
X37097331Y-67050667D01*
X41813038Y-67050667D01*
X41955083Y-67394443D01*
X42217873Y-67657692D01*
X42561401Y-67800338D01*
X42933367Y-67800662D01*
X43091877Y-67735167D01*
X52484838Y-67735167D01*
X52626883Y-68078943D01*
X52889673Y-68342192D01*
X53233201Y-68484838D01*
X53605167Y-68485162D01*
X53948943Y-68343117D01*
X54212192Y-68080327D01*
X54354838Y-67736799D01*
X54355162Y-67364833D01*
X54309850Y-67255167D01*
X72674838Y-67255167D01*
X72816883Y-67598943D01*
X73079673Y-67862192D01*
X73423201Y-68004838D01*
X73795167Y-68005162D01*
X74138943Y-67863117D01*
X74402192Y-67600327D01*
X74544838Y-67256799D01*
X74545162Y-66884833D01*
X74403117Y-66541057D01*
X74140327Y-66277808D01*
X73796799Y-66135162D01*
X73424833Y-66134838D01*
X73081057Y-66276883D01*
X72817808Y-66539673D01*
X72675162Y-66883201D01*
X72674838Y-67255167D01*
X54309850Y-67255167D01*
X54213117Y-67021057D01*
X53950327Y-66757808D01*
X53606799Y-66615162D01*
X53234833Y-66614838D01*
X52891057Y-66756883D01*
X52627808Y-67019673D01*
X52485162Y-67363201D01*
X52484838Y-67735167D01*
X43091877Y-67735167D01*
X43277143Y-67658617D01*
X43540392Y-67395827D01*
X43675518Y-67070410D01*
X43805373Y-67200492D01*
X44148901Y-67343138D01*
X44520867Y-67343462D01*
X44864643Y-67201417D01*
X45127892Y-66938627D01*
X45270538Y-66595099D01*
X45270862Y-66223133D01*
X45128817Y-65879357D01*
X44866027Y-65616108D01*
X44839679Y-65605167D01*
X47944838Y-65605167D01*
X48086883Y-65948943D01*
X48349673Y-66212192D01*
X48693201Y-66354838D01*
X49065167Y-66355162D01*
X49408943Y-66213117D01*
X49429297Y-66192798D01*
X49589632Y-66259375D01*
X49696883Y-66518943D01*
X49959673Y-66782192D01*
X50282463Y-66916227D01*
X50386883Y-67168943D01*
X50649673Y-67432192D01*
X50993201Y-67574838D01*
X51365167Y-67575162D01*
X51708943Y-67433117D01*
X51972192Y-67170327D01*
X52114838Y-66826799D01*
X52115162Y-66454833D01*
X51973117Y-66111057D01*
X51710327Y-65847808D01*
X51387537Y-65713773D01*
X51283117Y-65461057D01*
X51020327Y-65197808D01*
X50810368Y-65110625D01*
X50703117Y-64851057D01*
X50440327Y-64587808D01*
X50096799Y-64445162D01*
X49724833Y-64444838D01*
X49381057Y-64586883D01*
X49360703Y-64607202D01*
X49066799Y-64485162D01*
X48694833Y-64484838D01*
X48351057Y-64626883D01*
X48087808Y-64889673D01*
X47945162Y-65233201D01*
X47944838Y-65605167D01*
X44839679Y-65605167D01*
X44522499Y-65473462D01*
X44150533Y-65473138D01*
X43806757Y-65615183D01*
X43543508Y-65877973D01*
X43408382Y-66203390D01*
X43278527Y-66073308D01*
X42934999Y-65930662D01*
X42563033Y-65930338D01*
X42219257Y-66072383D01*
X41956008Y-66335173D01*
X41813362Y-66678701D01*
X41813038Y-67050667D01*
X37097331Y-67050667D01*
X37023117Y-66871057D01*
X36760327Y-66607808D01*
X36416799Y-66465162D01*
X36044833Y-66464838D01*
X35701057Y-66606883D01*
X35437808Y-66869673D01*
X35295162Y-67213201D01*
X35294838Y-67585167D01*
X33680000Y-67585167D01*
X33680000Y-62055167D01*
X37734838Y-62055167D01*
X37876883Y-62398943D01*
X38139673Y-62662192D01*
X38483201Y-62804838D01*
X38855167Y-62805162D01*
X39198943Y-62663117D01*
X39462192Y-62400327D01*
X39584753Y-62105167D01*
X43554838Y-62105167D01*
X43696883Y-62448943D01*
X43959673Y-62712192D01*
X44303201Y-62854838D01*
X44675167Y-62855162D01*
X45018943Y-62713117D01*
X45282192Y-62450327D01*
X45323159Y-62351667D01*
X49039338Y-62351667D01*
X49181383Y-62695443D01*
X49444173Y-62958692D01*
X49786355Y-63100779D01*
X49917983Y-63419343D01*
X50180773Y-63682592D01*
X50524301Y-63825238D01*
X50896267Y-63825562D01*
X51240043Y-63683517D01*
X51503292Y-63420727D01*
X51563734Y-63275167D01*
X83894838Y-63275167D01*
X84036883Y-63618943D01*
X84299673Y-63882192D01*
X84643201Y-64024838D01*
X85015167Y-64025162D01*
X85358943Y-63883117D01*
X85390016Y-63852099D01*
X85639673Y-64102192D01*
X85983201Y-64244838D01*
X86355167Y-64245162D01*
X86698943Y-64103117D01*
X86962192Y-63840327D01*
X87104838Y-63496799D01*
X87105162Y-63124833D01*
X86963117Y-62781057D01*
X86700327Y-62517808D01*
X86356799Y-62375162D01*
X85984833Y-62374838D01*
X85641057Y-62516883D01*
X85609984Y-62547901D01*
X85360327Y-62297808D01*
X85016799Y-62155162D01*
X84644833Y-62154838D01*
X84301057Y-62296883D01*
X84037808Y-62559673D01*
X83895162Y-62903201D01*
X83894838Y-63275167D01*
X51563734Y-63275167D01*
X51641078Y-63088903D01*
X51709067Y-63088962D01*
X52052843Y-62946917D01*
X52316092Y-62684127D01*
X52416608Y-62442058D01*
X52526883Y-62708943D01*
X52789673Y-62972192D01*
X53133201Y-63114838D01*
X53505167Y-63115162D01*
X53848943Y-62973117D01*
X54112192Y-62710327D01*
X54238906Y-62405167D01*
X65144838Y-62405167D01*
X65286883Y-62748943D01*
X65549673Y-63012192D01*
X65893201Y-63154838D01*
X66265167Y-63155162D01*
X66608943Y-63013117D01*
X66872192Y-62750327D01*
X67014838Y-62406799D01*
X67015162Y-62034833D01*
X66873117Y-61691057D01*
X66610327Y-61427808D01*
X66266799Y-61285162D01*
X65894833Y-61284838D01*
X65551057Y-61426883D01*
X65287808Y-61689673D01*
X65145162Y-62033201D01*
X65144838Y-62405167D01*
X54238906Y-62405167D01*
X54254838Y-62366799D01*
X54255162Y-61994833D01*
X54113117Y-61651057D01*
X53850327Y-61387808D01*
X53506799Y-61245162D01*
X53134833Y-61244838D01*
X52791057Y-61386883D01*
X52527808Y-61649673D01*
X52427292Y-61891742D01*
X52342746Y-61687127D01*
X52382538Y-61591299D01*
X52382862Y-61219333D01*
X52240817Y-60875557D01*
X51978027Y-60612308D01*
X51840417Y-60555167D01*
X57154838Y-60555167D01*
X57296883Y-60898943D01*
X57559673Y-61162192D01*
X57903201Y-61304838D01*
X58275167Y-61305162D01*
X58618943Y-61163117D01*
X58882192Y-60900327D01*
X59024838Y-60556799D01*
X59025162Y-60184833D01*
X58883117Y-59841057D01*
X58620327Y-59577808D01*
X58276799Y-59435162D01*
X57904833Y-59434838D01*
X57561057Y-59576883D01*
X57297808Y-59839673D01*
X57155162Y-60183201D01*
X57154838Y-60555167D01*
X51840417Y-60555167D01*
X51634499Y-60469662D01*
X51262533Y-60469338D01*
X51110035Y-60532349D01*
X50897899Y-60444262D01*
X50525933Y-60443938D01*
X50291586Y-60540768D01*
X50212099Y-60507762D01*
X49840133Y-60507438D01*
X49496357Y-60649483D01*
X49233108Y-60912273D01*
X49090462Y-61255801D01*
X49090138Y-61627767D01*
X49137850Y-61743239D01*
X49039662Y-61979701D01*
X49039338Y-62351667D01*
X45323159Y-62351667D01*
X45424838Y-62106799D01*
X45425162Y-61734833D01*
X45283117Y-61391057D01*
X45020327Y-61127808D01*
X44676799Y-60985162D01*
X44304833Y-60984838D01*
X43961057Y-61126883D01*
X43697808Y-61389673D01*
X43555162Y-61733201D01*
X43554838Y-62105167D01*
X39584753Y-62105167D01*
X39604838Y-62056799D01*
X39605162Y-61684833D01*
X39463117Y-61341057D01*
X39200327Y-61077808D01*
X38856799Y-60935162D01*
X38484833Y-60934838D01*
X38141057Y-61076883D01*
X37877808Y-61339673D01*
X37735162Y-61683201D01*
X37734838Y-62055167D01*
X33680000Y-62055167D01*
X33680000Y-55184089D01*
X35184743Y-55184089D01*
X35410344Y-55730086D01*
X35827717Y-56148188D01*
X35855557Y-56159748D01*
X35829914Y-56170344D01*
X35411812Y-56587717D01*
X35185258Y-57133319D01*
X35184743Y-57724089D01*
X35410344Y-58270086D01*
X35827717Y-58688188D01*
X35855557Y-58699748D01*
X35829914Y-58710344D01*
X35411812Y-59127717D01*
X35185258Y-59673319D01*
X35184743Y-60264089D01*
X35410344Y-60810086D01*
X35827717Y-61228188D01*
X36373319Y-61454742D01*
X36964089Y-61455257D01*
X37510086Y-61229656D01*
X37928188Y-60812283D01*
X38154742Y-60266681D01*
X38155257Y-59675911D01*
X38055784Y-59435167D01*
X40174838Y-59435167D01*
X40316883Y-59778943D01*
X40579673Y-60042192D01*
X40923201Y-60184838D01*
X41295167Y-60185162D01*
X41638943Y-60043117D01*
X41902192Y-59780327D01*
X42044838Y-59436799D01*
X42045057Y-59185167D01*
X43534838Y-59185167D01*
X43676883Y-59528943D01*
X43939673Y-59792192D01*
X44283201Y-59934838D01*
X44655167Y-59935162D01*
X44998943Y-59793117D01*
X45262192Y-59530327D01*
X45404838Y-59186799D01*
X45405162Y-58814833D01*
X45263117Y-58471057D01*
X45000327Y-58207808D01*
X44656799Y-58065162D01*
X44284833Y-58064838D01*
X43941057Y-58206883D01*
X43677808Y-58469673D01*
X43535162Y-58813201D01*
X43534838Y-59185167D01*
X42045057Y-59185167D01*
X42045162Y-59064833D01*
X41903117Y-58721057D01*
X41640327Y-58457808D01*
X41296799Y-58315162D01*
X40924833Y-58314838D01*
X40581057Y-58456883D01*
X40317808Y-58719673D01*
X40175162Y-59063201D01*
X40174838Y-59435167D01*
X38055784Y-59435167D01*
X37929656Y-59129914D01*
X37512283Y-58711812D01*
X37484443Y-58700252D01*
X37510086Y-58689656D01*
X37928188Y-58272283D01*
X38154742Y-57726681D01*
X38155257Y-57135911D01*
X37929656Y-56589914D01*
X37512283Y-56171812D01*
X37484443Y-56160252D01*
X37510086Y-56149656D01*
X37571677Y-56088172D01*
X38182538Y-56088172D01*
X38587709Y-57068761D01*
X39337293Y-57819655D01*
X40317173Y-58226536D01*
X41378172Y-58227462D01*
X42358761Y-57822291D01*
X42976963Y-57205167D01*
X44434838Y-57205167D01*
X44576883Y-57548943D01*
X44839673Y-57812192D01*
X45183201Y-57954838D01*
X45555167Y-57955162D01*
X45898943Y-57813117D01*
X46162192Y-57550327D01*
X46304838Y-57206799D01*
X46305162Y-56834833D01*
X46163117Y-56491057D01*
X45900327Y-56227808D01*
X45556799Y-56085162D01*
X45184833Y-56084838D01*
X44841057Y-56226883D01*
X44577808Y-56489673D01*
X44435162Y-56833201D01*
X44434838Y-57205167D01*
X42976963Y-57205167D01*
X43109655Y-57072707D01*
X43516536Y-56092827D01*
X43517462Y-55031828D01*
X43112291Y-54051239D01*
X42996422Y-53935167D01*
X44604838Y-53935167D01*
X44746883Y-54278943D01*
X45009673Y-54542192D01*
X45353201Y-54684838D01*
X45725167Y-54685162D01*
X46068943Y-54543117D01*
X46332192Y-54280327D01*
X46474838Y-53936799D01*
X46475162Y-53564833D01*
X46333117Y-53221057D01*
X46070327Y-52957808D01*
X45726799Y-52815162D01*
X45354833Y-52814838D01*
X45011057Y-52956883D01*
X44747808Y-53219673D01*
X44605162Y-53563201D01*
X44604838Y-53935167D01*
X42996422Y-53935167D01*
X42362707Y-53300345D01*
X41382827Y-52893464D01*
X40321828Y-52892538D01*
X39341239Y-53297709D01*
X38590345Y-54047293D01*
X38183464Y-55027173D01*
X38182538Y-56088172D01*
X37571677Y-56088172D01*
X37928188Y-55732283D01*
X38154742Y-55186681D01*
X38155257Y-54595911D01*
X37929656Y-54049914D01*
X37512283Y-53631812D01*
X36966681Y-53405258D01*
X36375911Y-53404743D01*
X35829914Y-53630344D01*
X35411812Y-54047717D01*
X35185258Y-54593319D01*
X35184743Y-55184089D01*
X33680000Y-55184089D01*
X33680000Y-52625167D01*
X81514838Y-52625167D01*
X81656883Y-52968943D01*
X81919673Y-53232192D01*
X82263201Y-53374838D01*
X82635167Y-53375162D01*
X82978943Y-53233117D01*
X83242192Y-52970327D01*
X83384838Y-52626799D01*
X83384961Y-52485167D01*
X85344838Y-52485167D01*
X85486883Y-52828943D01*
X85749673Y-53092192D01*
X86093201Y-53234838D01*
X86465167Y-53235162D01*
X86808943Y-53093117D01*
X87072192Y-52830327D01*
X87214838Y-52486799D01*
X87215162Y-52114833D01*
X87073117Y-51771057D01*
X86810327Y-51507808D01*
X86466799Y-51365162D01*
X86094833Y-51364838D01*
X85751057Y-51506883D01*
X85487808Y-51769673D01*
X85345162Y-52113201D01*
X85344838Y-52485167D01*
X83384961Y-52485167D01*
X83385162Y-52254833D01*
X83243117Y-51911057D01*
X82980327Y-51647808D01*
X82636799Y-51505162D01*
X82264833Y-51504838D01*
X81921057Y-51646883D01*
X81657808Y-51909673D01*
X81515162Y-52253201D01*
X81514838Y-52625167D01*
X33680000Y-52625167D01*
X33680000Y-51228022D01*
X34083276Y-51395477D01*
X34594481Y-51395923D01*
X35066943Y-51200705D01*
X35428735Y-50839545D01*
X35610205Y-50402518D01*
X35789995Y-50837643D01*
X36151155Y-51199435D01*
X36623276Y-51395477D01*
X37134481Y-51395923D01*
X37606943Y-51200705D01*
X37968735Y-50839545D01*
X38150205Y-50402518D01*
X38329995Y-50837643D01*
X38691155Y-51199435D01*
X39163276Y-51395477D01*
X39674481Y-51395923D01*
X40146943Y-51200705D01*
X40508735Y-50839545D01*
X40690205Y-50402518D01*
X40869995Y-50837643D01*
X41231155Y-51199435D01*
X41703276Y-51395477D01*
X42214481Y-51395923D01*
X42686943Y-51200705D01*
X43048735Y-50839545D01*
X43230205Y-50402518D01*
X43409995Y-50837643D01*
X43771155Y-51199435D01*
X44243276Y-51395477D01*
X44754481Y-51395923D01*
X45226943Y-51200705D01*
X45588735Y-50839545D01*
X45770205Y-50402518D01*
X45949995Y-50837643D01*
X46311155Y-51199435D01*
X46783276Y-51395477D01*
X47294481Y-51395923D01*
X47766943Y-51200705D01*
X48128735Y-50839545D01*
X48310205Y-50402518D01*
X48489995Y-50837643D01*
X48851155Y-51199435D01*
X49323276Y-51395477D01*
X49834481Y-51395923D01*
X50306943Y-51200705D01*
X50668735Y-50839545D01*
X50850205Y-50402518D01*
X51029995Y-50837643D01*
X51391155Y-51199435D01*
X51863276Y-51395477D01*
X52374481Y-51395923D01*
X52846943Y-51200705D01*
X53208735Y-50839545D01*
X53390205Y-50402518D01*
X53569995Y-50837643D01*
X53931155Y-51199435D01*
X54403276Y-51395477D01*
X54914481Y-51395923D01*
X55386943Y-51200705D01*
X55748735Y-50839545D01*
X55930205Y-50402518D01*
X56109995Y-50837643D01*
X56471155Y-51199435D01*
X56943276Y-51395477D01*
X57454481Y-51395923D01*
X57926943Y-51200705D01*
X58288735Y-50839545D01*
X58470205Y-50402518D01*
X58649995Y-50837643D01*
X59011155Y-51199435D01*
X59483276Y-51395477D01*
X59994481Y-51395923D01*
X60466943Y-51200705D01*
X60828735Y-50839545D01*
X61010205Y-50402518D01*
X61189995Y-50837643D01*
X61551155Y-51199435D01*
X62023276Y-51395477D01*
X62534481Y-51395923D01*
X63006943Y-51200705D01*
X63368735Y-50839545D01*
X63550205Y-50402518D01*
X63729995Y-50837643D01*
X64091155Y-51199435D01*
X64563276Y-51395477D01*
X65074481Y-51395923D01*
X65546943Y-51200705D01*
X65908735Y-50839545D01*
X66090205Y-50402518D01*
X66269995Y-50837643D01*
X66631155Y-51199435D01*
X67103276Y-51395477D01*
X67614481Y-51395923D01*
X68086943Y-51200705D01*
X68448735Y-50839545D01*
X68630205Y-50402518D01*
X68809995Y-50837643D01*
X69171155Y-51199435D01*
X69643276Y-51395477D01*
X70154481Y-51395923D01*
X70626943Y-51200705D01*
X70988735Y-50839545D01*
X71170205Y-50402518D01*
X71349995Y-50837643D01*
X71711155Y-51199435D01*
X72183276Y-51395477D01*
X72694481Y-51395923D01*
X73166943Y-51200705D01*
X73528735Y-50839545D01*
X73710205Y-50402518D01*
X73889995Y-50837643D01*
X74251155Y-51199435D01*
X74723276Y-51395477D01*
X75234481Y-51395923D01*
X75706943Y-51200705D01*
X76068735Y-50839545D01*
X76250205Y-50402518D01*
X76429995Y-50837643D01*
X76791155Y-51199435D01*
X77263276Y-51395477D01*
X77774481Y-51395923D01*
X78246943Y-51200705D01*
X78608735Y-50839545D01*
X78790205Y-50402518D01*
X78969995Y-50837643D01*
X79331155Y-51199435D01*
X79803276Y-51395477D01*
X80314481Y-51395923D01*
X80786943Y-51200705D01*
X81148735Y-50839545D01*
X81330205Y-50402518D01*
X81509995Y-50837643D01*
X81871155Y-51199435D01*
X82343276Y-51395477D01*
X82854481Y-51395923D01*
X83326943Y-51200705D01*
X83688735Y-50839545D01*
X83870205Y-50402518D01*
X84049995Y-50837643D01*
X84411155Y-51199435D01*
X84883276Y-51395477D01*
X85394481Y-51395923D01*
X85866943Y-51200705D01*
X86228735Y-50839545D01*
X86410205Y-50402518D01*
X86589995Y-50837643D01*
X86951155Y-51199435D01*
X87423276Y-51395477D01*
X87934481Y-51395923D01*
X88406943Y-51200705D01*
X88768735Y-50839545D01*
X88964777Y-50367424D01*
X88965223Y-49856219D01*
X88770005Y-49383757D01*
X88408845Y-49021965D01*
X87936724Y-48825923D01*
X87425519Y-48825477D01*
X86953057Y-49020695D01*
X86591265Y-49381855D01*
X86409795Y-49818882D01*
X86230005Y-49383757D01*
X85868845Y-49021965D01*
X85396724Y-48825923D01*
X84885519Y-48825477D01*
X84413057Y-49020695D01*
X84051265Y-49381855D01*
X83869795Y-49818882D01*
X83690005Y-49383757D01*
X83328845Y-49021965D01*
X82856724Y-48825923D01*
X82345519Y-48825477D01*
X81873057Y-49020695D01*
X81511265Y-49381855D01*
X81329795Y-49818882D01*
X81150005Y-49383757D01*
X80788845Y-49021965D01*
X80316724Y-48825923D01*
X79805519Y-48825477D01*
X79333057Y-49020695D01*
X78971265Y-49381855D01*
X78789795Y-49818882D01*
X78610005Y-49383757D01*
X78248845Y-49021965D01*
X77776724Y-48825923D01*
X77265519Y-48825477D01*
X76793057Y-49020695D01*
X76431265Y-49381855D01*
X76249795Y-49818882D01*
X76070005Y-49383757D01*
X75708845Y-49021965D01*
X75236724Y-48825923D01*
X74725519Y-48825477D01*
X74253057Y-49020695D01*
X73891265Y-49381855D01*
X73709795Y-49818882D01*
X73530005Y-49383757D01*
X73168845Y-49021965D01*
X72696724Y-48825923D01*
X72185519Y-48825477D01*
X71713057Y-49020695D01*
X71351265Y-49381855D01*
X71169795Y-49818882D01*
X70990005Y-49383757D01*
X70628845Y-49021965D01*
X70156724Y-48825923D01*
X69645519Y-48825477D01*
X69173057Y-49020695D01*
X68811265Y-49381855D01*
X68629795Y-49818882D01*
X68450005Y-49383757D01*
X68088845Y-49021965D01*
X67616724Y-48825923D01*
X67105519Y-48825477D01*
X66633057Y-49020695D01*
X66271265Y-49381855D01*
X66089795Y-49818882D01*
X65910005Y-49383757D01*
X65548845Y-49021965D01*
X65076724Y-48825923D01*
X64565519Y-48825477D01*
X64093057Y-49020695D01*
X63731265Y-49381855D01*
X63549795Y-49818882D01*
X63370005Y-49383757D01*
X63008845Y-49021965D01*
X62536724Y-48825923D01*
X62025519Y-48825477D01*
X61553057Y-49020695D01*
X61191265Y-49381855D01*
X61009795Y-49818882D01*
X60830005Y-49383757D01*
X60468845Y-49021965D01*
X59996724Y-48825923D01*
X59485519Y-48825477D01*
X59013057Y-49020695D01*
X58651265Y-49381855D01*
X58469795Y-49818882D01*
X58290005Y-49383757D01*
X57928845Y-49021965D01*
X57456724Y-48825923D01*
X56945519Y-48825477D01*
X56473057Y-49020695D01*
X56111265Y-49381855D01*
X55929795Y-49818882D01*
X55750005Y-49383757D01*
X55388845Y-49021965D01*
X54916724Y-48825923D01*
X54405519Y-48825477D01*
X53933057Y-49020695D01*
X53571265Y-49381855D01*
X53389795Y-49818882D01*
X53210005Y-49383757D01*
X52848845Y-49021965D01*
X52376724Y-48825923D01*
X51865519Y-48825477D01*
X51393057Y-49020695D01*
X51031265Y-49381855D01*
X50849795Y-49818882D01*
X50670005Y-49383757D01*
X50308845Y-49021965D01*
X49836724Y-48825923D01*
X49325519Y-48825477D01*
X48853057Y-49020695D01*
X48491265Y-49381855D01*
X48309795Y-49818882D01*
X48130005Y-49383757D01*
X47768845Y-49021965D01*
X47296724Y-48825923D01*
X46785519Y-48825477D01*
X46313057Y-49020695D01*
X45951265Y-49381855D01*
X45769795Y-49818882D01*
X45590005Y-49383757D01*
X45228845Y-49021965D01*
X44756724Y-48825923D01*
X44245519Y-48825477D01*
X43773057Y-49020695D01*
X43411265Y-49381855D01*
X43229795Y-49818882D01*
X43050005Y-49383757D01*
X42688845Y-49021965D01*
X42216724Y-48825923D01*
X41705519Y-48825477D01*
X41233057Y-49020695D01*
X40871265Y-49381855D01*
X40689795Y-49818882D01*
X40510005Y-49383757D01*
X40148845Y-49021965D01*
X39676724Y-48825923D01*
X39165519Y-48825477D01*
X38693057Y-49020695D01*
X38331265Y-49381855D01*
X38149795Y-49818882D01*
X37970005Y-49383757D01*
X37608845Y-49021965D01*
X37136724Y-48825923D01*
X36625519Y-48825477D01*
X36153057Y-49020695D01*
X35791265Y-49381855D01*
X35609795Y-49818882D01*
X35430005Y-49383757D01*
X35068845Y-49021965D01*
X34596724Y-48825923D01*
X34085519Y-48825477D01*
X33680000Y-48993035D01*
X33680000Y-48485500D01*
X90743242Y-48485500D01*
X90110345Y-49117293D01*
X90110345Y-49117293D01*
G37*
X90110345Y-49117293D02*
X89703464Y-50097173D01*
X89702538Y-51158172D01*
X90107709Y-52138761D01*
X90857293Y-52889655D01*
X91837173Y-53296536D01*
X92898172Y-53297462D01*
X93878761Y-52892291D01*
X94629655Y-52142707D01*
X95036536Y-51162827D01*
X95037462Y-50101828D01*
X94632291Y-49121239D01*
X93997661Y-48485500D01*
X103850000Y-48485500D01*
X103850000Y-54593000D01*
X99330000Y-54593000D01*
X99280590Y-54603006D01*
X99238965Y-54631447D01*
X99211685Y-54673841D01*
X99203000Y-54720000D01*
X99203000Y-58220000D01*
X99213006Y-58269410D01*
X99241447Y-58311035D01*
X99283841Y-58338315D01*
X99330000Y-58347000D01*
X103850000Y-58347000D01*
X103850000Y-75803000D01*
X99270000Y-75803000D01*
X99220590Y-75813006D01*
X99178965Y-75841447D01*
X99151685Y-75883841D01*
X99143000Y-75930000D01*
X99143000Y-79440000D01*
X99153006Y-79489410D01*
X99181447Y-79531035D01*
X99223841Y-79558315D01*
X99270000Y-79567000D01*
X103850000Y-79567000D01*
X103850000Y-87260000D01*
X97731773Y-87260000D01*
X98069655Y-86922707D01*
X98476536Y-85942827D01*
X98477462Y-84881828D01*
X98072291Y-83901239D01*
X97322707Y-83150345D01*
X96342827Y-82743464D01*
X95281828Y-82742538D01*
X94301239Y-83147709D01*
X93550345Y-83897293D01*
X93143464Y-84877173D01*
X93142538Y-85938172D01*
X93547709Y-86918761D01*
X93888353Y-87260000D01*
X49221336Y-87260000D01*
X49809655Y-86672707D01*
X50082688Y-86015167D01*
X52174838Y-86015167D01*
X52316883Y-86358943D01*
X52579673Y-86622192D01*
X52923201Y-86764838D01*
X53295167Y-86765162D01*
X53638943Y-86623117D01*
X53902192Y-86360327D01*
X53950010Y-86245167D01*
X86884838Y-86245167D01*
X87026883Y-86588943D01*
X87289673Y-86852192D01*
X87633201Y-86994838D01*
X88005167Y-86995162D01*
X88348943Y-86853117D01*
X88612192Y-86590327D01*
X88754838Y-86246799D01*
X88755162Y-85874833D01*
X88613117Y-85531057D01*
X88350327Y-85267808D01*
X88006799Y-85125162D01*
X87634833Y-85124838D01*
X87291057Y-85266883D01*
X87027808Y-85529673D01*
X86885162Y-85873201D01*
X86884838Y-86245167D01*
X53950010Y-86245167D01*
X54044838Y-86016799D01*
X54045162Y-85644833D01*
X53903117Y-85301057D01*
X53640327Y-85037808D01*
X53296799Y-84895162D01*
X52924833Y-84894838D01*
X52581057Y-85036883D01*
X52317808Y-85299673D01*
X52175162Y-85643201D01*
X52174838Y-86015167D01*
X50082688Y-86015167D01*
X50216536Y-85692827D01*
X50217462Y-84631828D01*
X49812291Y-83651239D01*
X49062707Y-82900345D01*
X48082827Y-82493464D01*
X47021828Y-82492538D01*
X46041239Y-82897709D01*
X45290345Y-83647293D01*
X44883464Y-84627173D01*
X44882538Y-85688172D01*
X45287709Y-86668761D01*
X45877917Y-87260000D01*
X33680000Y-87260000D01*
X33680000Y-79219940D01*
X40793160Y-79219940D01*
X40793160Y-82720060D01*
X40837438Y-82955377D01*
X40976510Y-83171501D01*
X41188710Y-83316491D01*
X41440600Y-83367500D01*
X44940720Y-83367500D01*
X45176037Y-83323222D01*
X45392161Y-83184150D01*
X45537151Y-82971950D01*
X45588160Y-82720060D01*
X45588160Y-81335167D01*
X66844838Y-81335167D01*
X66986883Y-81678943D01*
X67249673Y-81942192D01*
X67593201Y-82084838D01*
X67965167Y-82085162D01*
X68308943Y-81943117D01*
X68346959Y-81905167D01*
X88524838Y-81905167D01*
X88666883Y-82248943D01*
X88929673Y-82512192D01*
X89273201Y-82654838D01*
X89645167Y-82655162D01*
X89988943Y-82513117D01*
X90252192Y-82250327D01*
X90394838Y-81906799D01*
X90395162Y-81534833D01*
X90253117Y-81191057D01*
X90047586Y-80985167D01*
X95184838Y-80985167D01*
X95326883Y-81328943D01*
X95589673Y-81592192D01*
X95933201Y-81734838D01*
X96305167Y-81735162D01*
X96648943Y-81593117D01*
X96912192Y-81330327D01*
X97054838Y-80986799D01*
X97055162Y-80614833D01*
X96913117Y-80271057D01*
X96650327Y-80007808D01*
X96306799Y-79865162D01*
X95934833Y-79864838D01*
X95591057Y-80006883D01*
X95327808Y-80269673D01*
X95185162Y-80613201D01*
X95184838Y-80985167D01*
X90047586Y-80985167D01*
X89990327Y-80927808D01*
X89646799Y-80785162D01*
X89274833Y-80784838D01*
X88931057Y-80926883D01*
X88667808Y-81189673D01*
X88525162Y-81533201D01*
X88524838Y-81905167D01*
X68346959Y-81905167D01*
X68572192Y-81680327D01*
X68714838Y-81336799D01*
X68715162Y-80964833D01*
X68573117Y-80621057D01*
X68310327Y-80357808D01*
X67966799Y-80215162D01*
X67594833Y-80214838D01*
X67251057Y-80356883D01*
X66987808Y-80619673D01*
X66845162Y-80963201D01*
X66844838Y-81335167D01*
X45588160Y-81335167D01*
X45588160Y-79219940D01*
X45543882Y-78984623D01*
X45404810Y-78768499D01*
X45192610Y-78623509D01*
X44940720Y-78572500D01*
X41440600Y-78572500D01*
X41205283Y-78616778D01*
X40989159Y-78755850D01*
X40844169Y-78968050D01*
X40793160Y-79219940D01*
X33680000Y-79219940D01*
X33680000Y-77135167D01*
X66454838Y-77135167D01*
X66596883Y-77478943D01*
X66859673Y-77742192D01*
X67203201Y-77884838D01*
X67575167Y-77885162D01*
X67918943Y-77743117D01*
X68182192Y-77480327D01*
X68324838Y-77136799D01*
X68325039Y-76905167D01*
X74254838Y-76905167D01*
X74396883Y-77248943D01*
X74659673Y-77512192D01*
X75003201Y-77654838D01*
X75375167Y-77655162D01*
X75718943Y-77513117D01*
X75982192Y-77250327D01*
X76124838Y-76906799D01*
X76125162Y-76534833D01*
X75983117Y-76191057D01*
X75720327Y-75927808D01*
X75376799Y-75785162D01*
X75004833Y-75784838D01*
X74661057Y-75926883D01*
X74397808Y-76189673D01*
X74255162Y-76533201D01*
X74254838Y-76905167D01*
X68325039Y-76905167D01*
X68325162Y-76764833D01*
X68183117Y-76421057D01*
X67920327Y-76157808D01*
X67576799Y-76015162D01*
X67204833Y-76014838D01*
X66861057Y-76156883D01*
X66597808Y-76419673D01*
X66455162Y-76763201D01*
X66454838Y-77135167D01*
X33680000Y-77135167D01*
X33680000Y-75023870D01*
X34093276Y-75195477D01*
X34604481Y-75195923D01*
X35076943Y-75000705D01*
X35438735Y-74639545D01*
X35620205Y-74202518D01*
X35799995Y-74637643D01*
X36161155Y-74999435D01*
X36633276Y-75195477D01*
X37144481Y-75195923D01*
X37616943Y-75000705D01*
X37978735Y-74639545D01*
X38160205Y-74202518D01*
X38339995Y-74637643D01*
X38701155Y-74999435D01*
X39173276Y-75195477D01*
X39684481Y-75195923D01*
X40156943Y-75000705D01*
X40518735Y-74639545D01*
X40700205Y-74202518D01*
X40879995Y-74637643D01*
X41241155Y-74999435D01*
X41713276Y-75195477D01*
X42224481Y-75195923D01*
X42696943Y-75000705D01*
X43058735Y-74639545D01*
X43240205Y-74202518D01*
X43419995Y-74637643D01*
X43781155Y-74999435D01*
X44253276Y-75195477D01*
X44764481Y-75195923D01*
X45236943Y-75000705D01*
X45598735Y-74639545D01*
X45780205Y-74202518D01*
X45959995Y-74637643D01*
X46321155Y-74999435D01*
X46793276Y-75195477D01*
X47304481Y-75195923D01*
X47776943Y-75000705D01*
X48138735Y-74639545D01*
X48320205Y-74202518D01*
X48499995Y-74637643D01*
X48861155Y-74999435D01*
X49333276Y-75195477D01*
X49844481Y-75195923D01*
X50316943Y-75000705D01*
X50678735Y-74639545D01*
X50860205Y-74202518D01*
X51039995Y-74637643D01*
X51401155Y-74999435D01*
X51873276Y-75195477D01*
X52384481Y-75195923D01*
X52856943Y-75000705D01*
X53218735Y-74639545D01*
X53400205Y-74202518D01*
X53579995Y-74637643D01*
X53941155Y-74999435D01*
X54413276Y-75195477D01*
X54924481Y-75195923D01*
X55396943Y-75000705D01*
X55758735Y-74639545D01*
X55940205Y-74202518D01*
X56119995Y-74637643D01*
X56481155Y-74999435D01*
X56953276Y-75195477D01*
X57464481Y-75195923D01*
X57936943Y-75000705D01*
X58298735Y-74639545D01*
X58480205Y-74202518D01*
X58659995Y-74637643D01*
X59021155Y-74999435D01*
X59493276Y-75195477D01*
X60004481Y-75195923D01*
X60476943Y-75000705D01*
X60838735Y-74639545D01*
X61020205Y-74202518D01*
X61199995Y-74637643D01*
X61561155Y-74999435D01*
X62033276Y-75195477D01*
X62544481Y-75195923D01*
X63016943Y-75000705D01*
X63378735Y-74639545D01*
X63560205Y-74202518D01*
X63739995Y-74637643D01*
X64101155Y-74999435D01*
X64573276Y-75195477D01*
X65084481Y-75195923D01*
X65556943Y-75000705D01*
X65918735Y-74639545D01*
X66100205Y-74202518D01*
X66279995Y-74637643D01*
X66641155Y-74999435D01*
X67113276Y-75195477D01*
X67624481Y-75195923D01*
X68096943Y-75000705D01*
X68458735Y-74639545D01*
X68640205Y-74202518D01*
X68819995Y-74637643D01*
X69181155Y-74999435D01*
X69653276Y-75195477D01*
X70164481Y-75195923D01*
X70636943Y-75000705D01*
X70998735Y-74639545D01*
X71180205Y-74202518D01*
X71359995Y-74637643D01*
X71721155Y-74999435D01*
X72193276Y-75195477D01*
X72704481Y-75195923D01*
X73176943Y-75000705D01*
X73538735Y-74639545D01*
X73720205Y-74202518D01*
X73899995Y-74637643D01*
X74261155Y-74999435D01*
X74733276Y-75195477D01*
X75244481Y-75195923D01*
X75716943Y-75000705D01*
X76078735Y-74639545D01*
X76260205Y-74202518D01*
X76439995Y-74637643D01*
X76801155Y-74999435D01*
X77273276Y-75195477D01*
X77784481Y-75195923D01*
X78256943Y-75000705D01*
X78618735Y-74639545D01*
X78800205Y-74202518D01*
X78979995Y-74637643D01*
X79341155Y-74999435D01*
X79813276Y-75195477D01*
X80324481Y-75195923D01*
X80796943Y-75000705D01*
X81158735Y-74639545D01*
X81340205Y-74202518D01*
X81519995Y-74637643D01*
X81881155Y-74999435D01*
X82353276Y-75195477D01*
X82864481Y-75195923D01*
X83336943Y-75000705D01*
X83698735Y-74639545D01*
X83880205Y-74202518D01*
X84059995Y-74637643D01*
X84421155Y-74999435D01*
X84893276Y-75195477D01*
X85404481Y-75195923D01*
X85876943Y-75000705D01*
X86238735Y-74639545D01*
X86420205Y-74202518D01*
X86599995Y-74637643D01*
X86961155Y-74999435D01*
X87433276Y-75195477D01*
X87944481Y-75195923D01*
X88416943Y-75000705D01*
X88778735Y-74639545D01*
X88974777Y-74167424D01*
X88975223Y-73656219D01*
X88780005Y-73183757D01*
X88418845Y-72821965D01*
X87946724Y-72625923D01*
X87435519Y-72625477D01*
X86963057Y-72820695D01*
X86601265Y-73181855D01*
X86419795Y-73618882D01*
X86240005Y-73183757D01*
X85878845Y-72821965D01*
X85406724Y-72625923D01*
X84895519Y-72625477D01*
X84423057Y-72820695D01*
X84061265Y-73181855D01*
X83879795Y-73618882D01*
X83700005Y-73183757D01*
X83338845Y-72821965D01*
X82866724Y-72625923D01*
X82355519Y-72625477D01*
X81883057Y-72820695D01*
X81521265Y-73181855D01*
X81339795Y-73618882D01*
X81160005Y-73183757D01*
X80798845Y-72821965D01*
X80326724Y-72625923D01*
X79815519Y-72625477D01*
X79343057Y-72820695D01*
X78981265Y-73181855D01*
X78799795Y-73618882D01*
X78620005Y-73183757D01*
X78258845Y-72821965D01*
X77786724Y-72625923D01*
X77275519Y-72625477D01*
X76803057Y-72820695D01*
X76441265Y-73181855D01*
X76259795Y-73618882D01*
X76080005Y-73183757D01*
X75718845Y-72821965D01*
X75246724Y-72625923D01*
X74735519Y-72625477D01*
X74263057Y-72820695D01*
X73901265Y-73181855D01*
X73719795Y-73618882D01*
X73540005Y-73183757D01*
X73178845Y-72821965D01*
X72706724Y-72625923D01*
X72195519Y-72625477D01*
X71723057Y-72820695D01*
X71361265Y-73181855D01*
X71179795Y-73618882D01*
X71000005Y-73183757D01*
X70638845Y-72821965D01*
X70166724Y-72625923D01*
X69655519Y-72625477D01*
X69183057Y-72820695D01*
X68821265Y-73181855D01*
X68639795Y-73618882D01*
X68460005Y-73183757D01*
X68098845Y-72821965D01*
X67626724Y-72625923D01*
X67115519Y-72625477D01*
X66643057Y-72820695D01*
X66281265Y-73181855D01*
X66099795Y-73618882D01*
X65920005Y-73183757D01*
X65558845Y-72821965D01*
X65086724Y-72625923D01*
X64575519Y-72625477D01*
X64103057Y-72820695D01*
X63741265Y-73181855D01*
X63559795Y-73618882D01*
X63380005Y-73183757D01*
X63018845Y-72821965D01*
X62546724Y-72625923D01*
X62035519Y-72625477D01*
X61563057Y-72820695D01*
X61201265Y-73181855D01*
X61019795Y-73618882D01*
X60840005Y-73183757D01*
X60478845Y-72821965D01*
X60006724Y-72625923D01*
X59495519Y-72625477D01*
X59023057Y-72820695D01*
X58661265Y-73181855D01*
X58479795Y-73618882D01*
X58300005Y-73183757D01*
X57938845Y-72821965D01*
X57466724Y-72625923D01*
X56955519Y-72625477D01*
X56483057Y-72820695D01*
X56121265Y-73181855D01*
X55939795Y-73618882D01*
X55760005Y-73183757D01*
X55398845Y-72821965D01*
X54926724Y-72625923D01*
X54415519Y-72625477D01*
X53943057Y-72820695D01*
X53581265Y-73181855D01*
X53399795Y-73618882D01*
X53220005Y-73183757D01*
X52858845Y-72821965D01*
X52386724Y-72625923D01*
X51875519Y-72625477D01*
X51403057Y-72820695D01*
X51041265Y-73181855D01*
X50859795Y-73618882D01*
X50680005Y-73183757D01*
X50318845Y-72821965D01*
X49846724Y-72625923D01*
X49335519Y-72625477D01*
X48863057Y-72820695D01*
X48501265Y-73181855D01*
X48319795Y-73618882D01*
X48140005Y-73183757D01*
X47778845Y-72821965D01*
X47306724Y-72625923D01*
X46795519Y-72625477D01*
X46323057Y-72820695D01*
X45961265Y-73181855D01*
X45779795Y-73618882D01*
X45600005Y-73183757D01*
X45238845Y-72821965D01*
X44766724Y-72625923D01*
X44255519Y-72625477D01*
X43783057Y-72820695D01*
X43421265Y-73181855D01*
X43239795Y-73618882D01*
X43060005Y-73183757D01*
X42698845Y-72821965D01*
X42226724Y-72625923D01*
X41715519Y-72625477D01*
X41243057Y-72820695D01*
X40881265Y-73181855D01*
X40699795Y-73618882D01*
X40520005Y-73183757D01*
X40158845Y-72821965D01*
X39686724Y-72625923D01*
X39175519Y-72625477D01*
X38703057Y-72820695D01*
X38341265Y-73181855D01*
X38159795Y-73618882D01*
X37980005Y-73183757D01*
X37618845Y-72821965D01*
X37146724Y-72625923D01*
X36635519Y-72625477D01*
X36163057Y-72820695D01*
X35801265Y-73181855D01*
X35619795Y-73618882D01*
X35440005Y-73183757D01*
X35078845Y-72821965D01*
X34606724Y-72625923D01*
X34095519Y-72625477D01*
X33680000Y-72797167D01*
X33680000Y-71485167D01*
X90004838Y-71485167D01*
X90146883Y-71828943D01*
X90409673Y-72092192D01*
X90753201Y-72234838D01*
X91125167Y-72235162D01*
X91468943Y-72093117D01*
X91732192Y-71830327D01*
X91874838Y-71486799D01*
X91875162Y-71114833D01*
X91733117Y-70771057D01*
X91470327Y-70507808D01*
X91126799Y-70365162D01*
X90754833Y-70364838D01*
X90411057Y-70506883D01*
X90147808Y-70769673D01*
X90005162Y-71113201D01*
X90004838Y-71485167D01*
X33680000Y-71485167D01*
X33680000Y-69904089D01*
X39674743Y-69904089D01*
X39900344Y-70450086D01*
X40317717Y-70868188D01*
X40863319Y-71094742D01*
X41454089Y-71095257D01*
X42000086Y-70869656D01*
X42418188Y-70452283D01*
X42429748Y-70424443D01*
X42440344Y-70450086D01*
X42857717Y-70868188D01*
X43403319Y-71094742D01*
X43994089Y-71095257D01*
X44540086Y-70869656D01*
X44958188Y-70452283D01*
X44969748Y-70424443D01*
X44980344Y-70450086D01*
X45397717Y-70868188D01*
X45943319Y-71094742D01*
X46534089Y-71095257D01*
X47080086Y-70869656D01*
X47498188Y-70452283D01*
X47724742Y-69906681D01*
X47725118Y-69475167D01*
X63824838Y-69475167D01*
X63966883Y-69818943D01*
X64229673Y-70082192D01*
X64573201Y-70224838D01*
X64945167Y-70225162D01*
X65288943Y-70083117D01*
X65552192Y-69820327D01*
X65694838Y-69476799D01*
X65695162Y-69104833D01*
X65553117Y-68761057D01*
X65317639Y-68525167D01*
X68494838Y-68525167D01*
X68636883Y-68868943D01*
X68899673Y-69132192D01*
X69243201Y-69274838D01*
X69615167Y-69275162D01*
X69958943Y-69133117D01*
X70222192Y-68870327D01*
X70364838Y-68526799D01*
X70365162Y-68154833D01*
X70223117Y-67811057D01*
X69960327Y-67547808D01*
X69616799Y-67405162D01*
X69244833Y-67404838D01*
X68901057Y-67546883D01*
X68637808Y-67809673D01*
X68495162Y-68153201D01*
X68494838Y-68525167D01*
X65317639Y-68525167D01*
X65290327Y-68497808D01*
X64946799Y-68355162D01*
X64574833Y-68354838D01*
X64231057Y-68496883D01*
X63967808Y-68759673D01*
X63825162Y-69103201D01*
X63824838Y-69475167D01*
X47725118Y-69475167D01*
X47725257Y-69315911D01*
X47499656Y-68769914D01*
X47082283Y-68351812D01*
X46536681Y-68125258D01*
X45945911Y-68124743D01*
X45399914Y-68350344D01*
X44981812Y-68767717D01*
X44970252Y-68795557D01*
X44959656Y-68769914D01*
X44542283Y-68351812D01*
X43996681Y-68125258D01*
X43405911Y-68124743D01*
X42859914Y-68350344D01*
X42441812Y-68767717D01*
X42430252Y-68795557D01*
X42419656Y-68769914D01*
X42002283Y-68351812D01*
X41456681Y-68125258D01*
X40865911Y-68124743D01*
X40319914Y-68350344D01*
X39901812Y-68767717D01*
X39675258Y-69313319D01*
X39674743Y-69904089D01*
X33680000Y-69904089D01*
X33680000Y-68635167D01*
X37284838Y-68635167D01*
X37426883Y-68978943D01*
X37689673Y-69242192D01*
X38033201Y-69384838D01*
X38405167Y-69385162D01*
X38748943Y-69243117D01*
X39012192Y-68980327D01*
X39154838Y-68636799D01*
X39155162Y-68264833D01*
X39013117Y-67921057D01*
X38750327Y-67657808D01*
X38406799Y-67515162D01*
X38034833Y-67514838D01*
X37691057Y-67656883D01*
X37427808Y-67919673D01*
X37285162Y-68263201D01*
X37284838Y-68635167D01*
X33680000Y-68635167D01*
X33680000Y-67585167D01*
X35294838Y-67585167D01*
X35436883Y-67928943D01*
X35699673Y-68192192D01*
X36043201Y-68334838D01*
X36415167Y-68335162D01*
X36758943Y-68193117D01*
X37022192Y-67930327D01*
X37164838Y-67586799D01*
X37165162Y-67214833D01*
X37097331Y-67050667D01*
X41813038Y-67050667D01*
X41955083Y-67394443D01*
X42217873Y-67657692D01*
X42561401Y-67800338D01*
X42933367Y-67800662D01*
X43091877Y-67735167D01*
X52484838Y-67735167D01*
X52626883Y-68078943D01*
X52889673Y-68342192D01*
X53233201Y-68484838D01*
X53605167Y-68485162D01*
X53948943Y-68343117D01*
X54212192Y-68080327D01*
X54354838Y-67736799D01*
X54355162Y-67364833D01*
X54309850Y-67255167D01*
X72674838Y-67255167D01*
X72816883Y-67598943D01*
X73079673Y-67862192D01*
X73423201Y-68004838D01*
X73795167Y-68005162D01*
X74138943Y-67863117D01*
X74402192Y-67600327D01*
X74544838Y-67256799D01*
X74545162Y-66884833D01*
X74403117Y-66541057D01*
X74140327Y-66277808D01*
X73796799Y-66135162D01*
X73424833Y-66134838D01*
X73081057Y-66276883D01*
X72817808Y-66539673D01*
X72675162Y-66883201D01*
X72674838Y-67255167D01*
X54309850Y-67255167D01*
X54213117Y-67021057D01*
X53950327Y-66757808D01*
X53606799Y-66615162D01*
X53234833Y-66614838D01*
X52891057Y-66756883D01*
X52627808Y-67019673D01*
X52485162Y-67363201D01*
X52484838Y-67735167D01*
X43091877Y-67735167D01*
X43277143Y-67658617D01*
X43540392Y-67395827D01*
X43675518Y-67070410D01*
X43805373Y-67200492D01*
X44148901Y-67343138D01*
X44520867Y-67343462D01*
X44864643Y-67201417D01*
X45127892Y-66938627D01*
X45270538Y-66595099D01*
X45270862Y-66223133D01*
X45128817Y-65879357D01*
X44866027Y-65616108D01*
X44839679Y-65605167D01*
X47944838Y-65605167D01*
X48086883Y-65948943D01*
X48349673Y-66212192D01*
X48693201Y-66354838D01*
X49065167Y-66355162D01*
X49408943Y-66213117D01*
X49429297Y-66192798D01*
X49589632Y-66259375D01*
X49696883Y-66518943D01*
X49959673Y-66782192D01*
X50282463Y-66916227D01*
X50386883Y-67168943D01*
X50649673Y-67432192D01*
X50993201Y-67574838D01*
X51365167Y-67575162D01*
X51708943Y-67433117D01*
X51972192Y-67170327D01*
X52114838Y-66826799D01*
X52115162Y-66454833D01*
X51973117Y-66111057D01*
X51710327Y-65847808D01*
X51387537Y-65713773D01*
X51283117Y-65461057D01*
X51020327Y-65197808D01*
X50810368Y-65110625D01*
X50703117Y-64851057D01*
X50440327Y-64587808D01*
X50096799Y-64445162D01*
X49724833Y-64444838D01*
X49381057Y-64586883D01*
X49360703Y-64607202D01*
X49066799Y-64485162D01*
X48694833Y-64484838D01*
X48351057Y-64626883D01*
X48087808Y-64889673D01*
X47945162Y-65233201D01*
X47944838Y-65605167D01*
X44839679Y-65605167D01*
X44522499Y-65473462D01*
X44150533Y-65473138D01*
X43806757Y-65615183D01*
X43543508Y-65877973D01*
X43408382Y-66203390D01*
X43278527Y-66073308D01*
X42934999Y-65930662D01*
X42563033Y-65930338D01*
X42219257Y-66072383D01*
X41956008Y-66335173D01*
X41813362Y-66678701D01*
X41813038Y-67050667D01*
X37097331Y-67050667D01*
X37023117Y-66871057D01*
X36760327Y-66607808D01*
X36416799Y-66465162D01*
X36044833Y-66464838D01*
X35701057Y-66606883D01*
X35437808Y-66869673D01*
X35295162Y-67213201D01*
X35294838Y-67585167D01*
X33680000Y-67585167D01*
X33680000Y-62055167D01*
X37734838Y-62055167D01*
X37876883Y-62398943D01*
X38139673Y-62662192D01*
X38483201Y-62804838D01*
X38855167Y-62805162D01*
X39198943Y-62663117D01*
X39462192Y-62400327D01*
X39584753Y-62105167D01*
X43554838Y-62105167D01*
X43696883Y-62448943D01*
X43959673Y-62712192D01*
X44303201Y-62854838D01*
X44675167Y-62855162D01*
X45018943Y-62713117D01*
X45282192Y-62450327D01*
X45323159Y-62351667D01*
X49039338Y-62351667D01*
X49181383Y-62695443D01*
X49444173Y-62958692D01*
X49786355Y-63100779D01*
X49917983Y-63419343D01*
X50180773Y-63682592D01*
X50524301Y-63825238D01*
X50896267Y-63825562D01*
X51240043Y-63683517D01*
X51503292Y-63420727D01*
X51563734Y-63275167D01*
X83894838Y-63275167D01*
X84036883Y-63618943D01*
X84299673Y-63882192D01*
X84643201Y-64024838D01*
X85015167Y-64025162D01*
X85358943Y-63883117D01*
X85390016Y-63852099D01*
X85639673Y-64102192D01*
X85983201Y-64244838D01*
X86355167Y-64245162D01*
X86698943Y-64103117D01*
X86962192Y-63840327D01*
X87104838Y-63496799D01*
X87105162Y-63124833D01*
X86963117Y-62781057D01*
X86700327Y-62517808D01*
X86356799Y-62375162D01*
X85984833Y-62374838D01*
X85641057Y-62516883D01*
X85609984Y-62547901D01*
X85360327Y-62297808D01*
X85016799Y-62155162D01*
X84644833Y-62154838D01*
X84301057Y-62296883D01*
X84037808Y-62559673D01*
X83895162Y-62903201D01*
X83894838Y-63275167D01*
X51563734Y-63275167D01*
X51641078Y-63088903D01*
X51709067Y-63088962D01*
X52052843Y-62946917D01*
X52316092Y-62684127D01*
X52416608Y-62442058D01*
X52526883Y-62708943D01*
X52789673Y-62972192D01*
X53133201Y-63114838D01*
X53505167Y-63115162D01*
X53848943Y-62973117D01*
X54112192Y-62710327D01*
X54238906Y-62405167D01*
X65144838Y-62405167D01*
X65286883Y-62748943D01*
X65549673Y-63012192D01*
X65893201Y-63154838D01*
X66265167Y-63155162D01*
X66608943Y-63013117D01*
X66872192Y-62750327D01*
X67014838Y-62406799D01*
X67015162Y-62034833D01*
X66873117Y-61691057D01*
X66610327Y-61427808D01*
X66266799Y-61285162D01*
X65894833Y-61284838D01*
X65551057Y-61426883D01*
X65287808Y-61689673D01*
X65145162Y-62033201D01*
X65144838Y-62405167D01*
X54238906Y-62405167D01*
X54254838Y-62366799D01*
X54255162Y-61994833D01*
X54113117Y-61651057D01*
X53850327Y-61387808D01*
X53506799Y-61245162D01*
X53134833Y-61244838D01*
X52791057Y-61386883D01*
X52527808Y-61649673D01*
X52427292Y-61891742D01*
X52342746Y-61687127D01*
X52382538Y-61591299D01*
X52382862Y-61219333D01*
X52240817Y-60875557D01*
X51978027Y-60612308D01*
X51840417Y-60555167D01*
X57154838Y-60555167D01*
X57296883Y-60898943D01*
X57559673Y-61162192D01*
X57903201Y-61304838D01*
X58275167Y-61305162D01*
X58618943Y-61163117D01*
X58882192Y-60900327D01*
X59024838Y-60556799D01*
X59025162Y-60184833D01*
X58883117Y-59841057D01*
X58620327Y-59577808D01*
X58276799Y-59435162D01*
X57904833Y-59434838D01*
X57561057Y-59576883D01*
X57297808Y-59839673D01*
X57155162Y-60183201D01*
X57154838Y-60555167D01*
X51840417Y-60555167D01*
X51634499Y-60469662D01*
X51262533Y-60469338D01*
X51110035Y-60532349D01*
X50897899Y-60444262D01*
X50525933Y-60443938D01*
X50291586Y-60540768D01*
X50212099Y-60507762D01*
X49840133Y-60507438D01*
X49496357Y-60649483D01*
X49233108Y-60912273D01*
X49090462Y-61255801D01*
X49090138Y-61627767D01*
X49137850Y-61743239D01*
X49039662Y-61979701D01*
X49039338Y-62351667D01*
X45323159Y-62351667D01*
X45424838Y-62106799D01*
X45425162Y-61734833D01*
X45283117Y-61391057D01*
X45020327Y-61127808D01*
X44676799Y-60985162D01*
X44304833Y-60984838D01*
X43961057Y-61126883D01*
X43697808Y-61389673D01*
X43555162Y-61733201D01*
X43554838Y-62105167D01*
X39584753Y-62105167D01*
X39604838Y-62056799D01*
X39605162Y-61684833D01*
X39463117Y-61341057D01*
X39200327Y-61077808D01*
X38856799Y-60935162D01*
X38484833Y-60934838D01*
X38141057Y-61076883D01*
X37877808Y-61339673D01*
X37735162Y-61683201D01*
X37734838Y-62055167D01*
X33680000Y-62055167D01*
X33680000Y-55184089D01*
X35184743Y-55184089D01*
X35410344Y-55730086D01*
X35827717Y-56148188D01*
X35855557Y-56159748D01*
X35829914Y-56170344D01*
X35411812Y-56587717D01*
X35185258Y-57133319D01*
X35184743Y-57724089D01*
X35410344Y-58270086D01*
X35827717Y-58688188D01*
X35855557Y-58699748D01*
X35829914Y-58710344D01*
X35411812Y-59127717D01*
X35185258Y-59673319D01*
X35184743Y-60264089D01*
X35410344Y-60810086D01*
X35827717Y-61228188D01*
X36373319Y-61454742D01*
X36964089Y-61455257D01*
X37510086Y-61229656D01*
X37928188Y-60812283D01*
X38154742Y-60266681D01*
X38155257Y-59675911D01*
X38055784Y-59435167D01*
X40174838Y-59435167D01*
X40316883Y-59778943D01*
X40579673Y-60042192D01*
X40923201Y-60184838D01*
X41295167Y-60185162D01*
X41638943Y-60043117D01*
X41902192Y-59780327D01*
X42044838Y-59436799D01*
X42045057Y-59185167D01*
X43534838Y-59185167D01*
X43676883Y-59528943D01*
X43939673Y-59792192D01*
X44283201Y-59934838D01*
X44655167Y-59935162D01*
X44998943Y-59793117D01*
X45262192Y-59530327D01*
X45404838Y-59186799D01*
X45405162Y-58814833D01*
X45263117Y-58471057D01*
X45000327Y-58207808D01*
X44656799Y-58065162D01*
X44284833Y-58064838D01*
X43941057Y-58206883D01*
X43677808Y-58469673D01*
X43535162Y-58813201D01*
X43534838Y-59185167D01*
X42045057Y-59185167D01*
X42045162Y-59064833D01*
X41903117Y-58721057D01*
X41640327Y-58457808D01*
X41296799Y-58315162D01*
X40924833Y-58314838D01*
X40581057Y-58456883D01*
X40317808Y-58719673D01*
X40175162Y-59063201D01*
X40174838Y-59435167D01*
X38055784Y-59435167D01*
X37929656Y-59129914D01*
X37512283Y-58711812D01*
X37484443Y-58700252D01*
X37510086Y-58689656D01*
X37928188Y-58272283D01*
X38154742Y-57726681D01*
X38155257Y-57135911D01*
X37929656Y-56589914D01*
X37512283Y-56171812D01*
X37484443Y-56160252D01*
X37510086Y-56149656D01*
X37571677Y-56088172D01*
X38182538Y-56088172D01*
X38587709Y-57068761D01*
X39337293Y-57819655D01*
X40317173Y-58226536D01*
X41378172Y-58227462D01*
X42358761Y-57822291D01*
X42976963Y-57205167D01*
X44434838Y-57205167D01*
X44576883Y-57548943D01*
X44839673Y-57812192D01*
X45183201Y-57954838D01*
X45555167Y-57955162D01*
X45898943Y-57813117D01*
X46162192Y-57550327D01*
X46304838Y-57206799D01*
X46305162Y-56834833D01*
X46163117Y-56491057D01*
X45900327Y-56227808D01*
X45556799Y-56085162D01*
X45184833Y-56084838D01*
X44841057Y-56226883D01*
X44577808Y-56489673D01*
X44435162Y-56833201D01*
X44434838Y-57205167D01*
X42976963Y-57205167D01*
X43109655Y-57072707D01*
X43516536Y-56092827D01*
X43517462Y-55031828D01*
X43112291Y-54051239D01*
X42996422Y-53935167D01*
X44604838Y-53935167D01*
X44746883Y-54278943D01*
X45009673Y-54542192D01*
X45353201Y-54684838D01*
X45725167Y-54685162D01*
X46068943Y-54543117D01*
X46332192Y-54280327D01*
X46474838Y-53936799D01*
X46475162Y-53564833D01*
X46333117Y-53221057D01*
X46070327Y-52957808D01*
X45726799Y-52815162D01*
X45354833Y-52814838D01*
X45011057Y-52956883D01*
X44747808Y-53219673D01*
X44605162Y-53563201D01*
X44604838Y-53935167D01*
X42996422Y-53935167D01*
X42362707Y-53300345D01*
X41382827Y-52893464D01*
X40321828Y-52892538D01*
X39341239Y-53297709D01*
X38590345Y-54047293D01*
X38183464Y-55027173D01*
X38182538Y-56088172D01*
X37571677Y-56088172D01*
X37928188Y-55732283D01*
X38154742Y-55186681D01*
X38155257Y-54595911D01*
X37929656Y-54049914D01*
X37512283Y-53631812D01*
X36966681Y-53405258D01*
X36375911Y-53404743D01*
X35829914Y-53630344D01*
X35411812Y-54047717D01*
X35185258Y-54593319D01*
X35184743Y-55184089D01*
X33680000Y-55184089D01*
X33680000Y-52625167D01*
X81514838Y-52625167D01*
X81656883Y-52968943D01*
X81919673Y-53232192D01*
X82263201Y-53374838D01*
X82635167Y-53375162D01*
X82978943Y-53233117D01*
X83242192Y-52970327D01*
X83384838Y-52626799D01*
X83384961Y-52485167D01*
X85344838Y-52485167D01*
X85486883Y-52828943D01*
X85749673Y-53092192D01*
X86093201Y-53234838D01*
X86465167Y-53235162D01*
X86808943Y-53093117D01*
X87072192Y-52830327D01*
X87214838Y-52486799D01*
X87215162Y-52114833D01*
X87073117Y-51771057D01*
X86810327Y-51507808D01*
X86466799Y-51365162D01*
X86094833Y-51364838D01*
X85751057Y-51506883D01*
X85487808Y-51769673D01*
X85345162Y-52113201D01*
X85344838Y-52485167D01*
X83384961Y-52485167D01*
X83385162Y-52254833D01*
X83243117Y-51911057D01*
X82980327Y-51647808D01*
X82636799Y-51505162D01*
X82264833Y-51504838D01*
X81921057Y-51646883D01*
X81657808Y-51909673D01*
X81515162Y-52253201D01*
X81514838Y-52625167D01*
X33680000Y-52625167D01*
X33680000Y-51228022D01*
X34083276Y-51395477D01*
X34594481Y-51395923D01*
X35066943Y-51200705D01*
X35428735Y-50839545D01*
X35610205Y-50402518D01*
X35789995Y-50837643D01*
X36151155Y-51199435D01*
X36623276Y-51395477D01*
X37134481Y-51395923D01*
X37606943Y-51200705D01*
X37968735Y-50839545D01*
X38150205Y-50402518D01*
X38329995Y-50837643D01*
X38691155Y-51199435D01*
X39163276Y-51395477D01*
X39674481Y-51395923D01*
X40146943Y-51200705D01*
X40508735Y-50839545D01*
X40690205Y-50402518D01*
X40869995Y-50837643D01*
X41231155Y-51199435D01*
X41703276Y-51395477D01*
X42214481Y-51395923D01*
X42686943Y-51200705D01*
X43048735Y-50839545D01*
X43230205Y-50402518D01*
X43409995Y-50837643D01*
X43771155Y-51199435D01*
X44243276Y-51395477D01*
X44754481Y-51395923D01*
X45226943Y-51200705D01*
X45588735Y-50839545D01*
X45770205Y-50402518D01*
X45949995Y-50837643D01*
X46311155Y-51199435D01*
X46783276Y-51395477D01*
X47294481Y-51395923D01*
X47766943Y-51200705D01*
X48128735Y-50839545D01*
X48310205Y-50402518D01*
X48489995Y-50837643D01*
X48851155Y-51199435D01*
X49323276Y-51395477D01*
X49834481Y-51395923D01*
X50306943Y-51200705D01*
X50668735Y-50839545D01*
X50850205Y-50402518D01*
X51029995Y-50837643D01*
X51391155Y-51199435D01*
X51863276Y-51395477D01*
X52374481Y-51395923D01*
X52846943Y-51200705D01*
X53208735Y-50839545D01*
X53390205Y-50402518D01*
X53569995Y-50837643D01*
X53931155Y-51199435D01*
X54403276Y-51395477D01*
X54914481Y-51395923D01*
X55386943Y-51200705D01*
X55748735Y-50839545D01*
X55930205Y-50402518D01*
X56109995Y-50837643D01*
X56471155Y-51199435D01*
X56943276Y-51395477D01*
X57454481Y-51395923D01*
X57926943Y-51200705D01*
X58288735Y-50839545D01*
X58470205Y-50402518D01*
X58649995Y-50837643D01*
X59011155Y-51199435D01*
X59483276Y-51395477D01*
X59994481Y-51395923D01*
X60466943Y-51200705D01*
X60828735Y-50839545D01*
X61010205Y-50402518D01*
X61189995Y-50837643D01*
X61551155Y-51199435D01*
X62023276Y-51395477D01*
X62534481Y-51395923D01*
X63006943Y-51200705D01*
X63368735Y-50839545D01*
X63550205Y-50402518D01*
X63729995Y-50837643D01*
X64091155Y-51199435D01*
X64563276Y-51395477D01*
X65074481Y-51395923D01*
X65546943Y-51200705D01*
X65908735Y-50839545D01*
X66090205Y-50402518D01*
X66269995Y-50837643D01*
X66631155Y-51199435D01*
X67103276Y-51395477D01*
X67614481Y-51395923D01*
X68086943Y-51200705D01*
X68448735Y-50839545D01*
X68630205Y-50402518D01*
X68809995Y-50837643D01*
X69171155Y-51199435D01*
X69643276Y-51395477D01*
X70154481Y-51395923D01*
X70626943Y-51200705D01*
X70988735Y-50839545D01*
X71170205Y-50402518D01*
X71349995Y-50837643D01*
X71711155Y-51199435D01*
X72183276Y-51395477D01*
X72694481Y-51395923D01*
X73166943Y-51200705D01*
X73528735Y-50839545D01*
X73710205Y-50402518D01*
X73889995Y-50837643D01*
X74251155Y-51199435D01*
X74723276Y-51395477D01*
X75234481Y-51395923D01*
X75706943Y-51200705D01*
X76068735Y-50839545D01*
X76250205Y-50402518D01*
X76429995Y-50837643D01*
X76791155Y-51199435D01*
X77263276Y-51395477D01*
X77774481Y-51395923D01*
X78246943Y-51200705D01*
X78608735Y-50839545D01*
X78790205Y-50402518D01*
X78969995Y-50837643D01*
X79331155Y-51199435D01*
X79803276Y-51395477D01*
X80314481Y-51395923D01*
X80786943Y-51200705D01*
X81148735Y-50839545D01*
X81330205Y-50402518D01*
X81509995Y-50837643D01*
X81871155Y-51199435D01*
X82343276Y-51395477D01*
X82854481Y-51395923D01*
X83326943Y-51200705D01*
X83688735Y-50839545D01*
X83870205Y-50402518D01*
X84049995Y-50837643D01*
X84411155Y-51199435D01*
X84883276Y-51395477D01*
X85394481Y-51395923D01*
X85866943Y-51200705D01*
X86228735Y-50839545D01*
X86410205Y-50402518D01*
X86589995Y-50837643D01*
X86951155Y-51199435D01*
X87423276Y-51395477D01*
X87934481Y-51395923D01*
X88406943Y-51200705D01*
X88768735Y-50839545D01*
X88964777Y-50367424D01*
X88965223Y-49856219D01*
X88770005Y-49383757D01*
X88408845Y-49021965D01*
X87936724Y-48825923D01*
X87425519Y-48825477D01*
X86953057Y-49020695D01*
X86591265Y-49381855D01*
X86409795Y-49818882D01*
X86230005Y-49383757D01*
X85868845Y-49021965D01*
X85396724Y-48825923D01*
X84885519Y-48825477D01*
X84413057Y-49020695D01*
X84051265Y-49381855D01*
X83869795Y-49818882D01*
X83690005Y-49383757D01*
X83328845Y-49021965D01*
X82856724Y-48825923D01*
X82345519Y-48825477D01*
X81873057Y-49020695D01*
X81511265Y-49381855D01*
X81329795Y-49818882D01*
X81150005Y-49383757D01*
X80788845Y-49021965D01*
X80316724Y-48825923D01*
X79805519Y-48825477D01*
X79333057Y-49020695D01*
X78971265Y-49381855D01*
X78789795Y-49818882D01*
X78610005Y-49383757D01*
X78248845Y-49021965D01*
X77776724Y-48825923D01*
X77265519Y-48825477D01*
X76793057Y-49020695D01*
X76431265Y-49381855D01*
X76249795Y-49818882D01*
X76070005Y-49383757D01*
X75708845Y-49021965D01*
X75236724Y-48825923D01*
X74725519Y-48825477D01*
X74253057Y-49020695D01*
X73891265Y-49381855D01*
X73709795Y-49818882D01*
X73530005Y-49383757D01*
X73168845Y-49021965D01*
X72696724Y-48825923D01*
X72185519Y-48825477D01*
X71713057Y-49020695D01*
X71351265Y-49381855D01*
X71169795Y-49818882D01*
X70990005Y-49383757D01*
X70628845Y-49021965D01*
X70156724Y-48825923D01*
X69645519Y-48825477D01*
X69173057Y-49020695D01*
X68811265Y-49381855D01*
X68629795Y-49818882D01*
X68450005Y-49383757D01*
X68088845Y-49021965D01*
X67616724Y-48825923D01*
X67105519Y-48825477D01*
X66633057Y-49020695D01*
X66271265Y-49381855D01*
X66089795Y-49818882D01*
X65910005Y-49383757D01*
X65548845Y-49021965D01*
X65076724Y-48825923D01*
X64565519Y-48825477D01*
X64093057Y-49020695D01*
X63731265Y-49381855D01*
X63549795Y-49818882D01*
X63370005Y-49383757D01*
X63008845Y-49021965D01*
X62536724Y-48825923D01*
X62025519Y-48825477D01*
X61553057Y-49020695D01*
X61191265Y-49381855D01*
X61009795Y-49818882D01*
X60830005Y-49383757D01*
X60468845Y-49021965D01*
X59996724Y-48825923D01*
X59485519Y-48825477D01*
X59013057Y-49020695D01*
X58651265Y-49381855D01*
X58469795Y-49818882D01*
X58290005Y-49383757D01*
X57928845Y-49021965D01*
X57456724Y-48825923D01*
X56945519Y-48825477D01*
X56473057Y-49020695D01*
X56111265Y-49381855D01*
X55929795Y-49818882D01*
X55750005Y-49383757D01*
X55388845Y-49021965D01*
X54916724Y-48825923D01*
X54405519Y-48825477D01*
X53933057Y-49020695D01*
X53571265Y-49381855D01*
X53389795Y-49818882D01*
X53210005Y-49383757D01*
X52848845Y-49021965D01*
X52376724Y-48825923D01*
X51865519Y-48825477D01*
X51393057Y-49020695D01*
X51031265Y-49381855D01*
X50849795Y-49818882D01*
X50670005Y-49383757D01*
X50308845Y-49021965D01*
X49836724Y-48825923D01*
X49325519Y-48825477D01*
X48853057Y-49020695D01*
X48491265Y-49381855D01*
X48309795Y-49818882D01*
X48130005Y-49383757D01*
X47768845Y-49021965D01*
X47296724Y-48825923D01*
X46785519Y-48825477D01*
X46313057Y-49020695D01*
X45951265Y-49381855D01*
X45769795Y-49818882D01*
X45590005Y-49383757D01*
X45228845Y-49021965D01*
X44756724Y-48825923D01*
X44245519Y-48825477D01*
X43773057Y-49020695D01*
X43411265Y-49381855D01*
X43229795Y-49818882D01*
X43050005Y-49383757D01*
X42688845Y-49021965D01*
X42216724Y-48825923D01*
X41705519Y-48825477D01*
X41233057Y-49020695D01*
X40871265Y-49381855D01*
X40689795Y-49818882D01*
X40510005Y-49383757D01*
X40148845Y-49021965D01*
X39676724Y-48825923D01*
X39165519Y-48825477D01*
X38693057Y-49020695D01*
X38331265Y-49381855D01*
X38149795Y-49818882D01*
X37970005Y-49383757D01*
X37608845Y-49021965D01*
X37136724Y-48825923D01*
X36625519Y-48825477D01*
X36153057Y-49020695D01*
X35791265Y-49381855D01*
X35609795Y-49818882D01*
X35430005Y-49383757D01*
X35068845Y-49021965D01*
X34596724Y-48825923D01*
X34085519Y-48825477D01*
X33680000Y-48993035D01*
X33680000Y-48485500D01*
X90743242Y-48485500D01*
X90110345Y-49117293D01*
M02*
