G04 #@! TF.FileFunction,Copper,L4,Bot,Signal*
%FSLAX46Y46*%
G04 Gerber Fmt 4.6, Leading zero omitted, Abs format (unit mm)*
G04 Created by KiCad (PCBNEW 4.0.0-rc1-stable) date 29/02/2016 1:35:43 AM*
%MOMM*%
G01*
G04 APERTURE LIST*
%ADD10C,0.100000*%
%ADD11C,0.650000*%
%ADD12R,5.080000X2.415000*%
%ADD13C,1.700000*%
%ADD14R,1.250000X1.000000*%
%ADD15C,4.064000*%
%ADD16C,1.300000*%
%ADD17R,1.000000X1.250000*%
%ADD18R,3.500120X3.500120*%
%ADD19C,0.600000*%
%ADD20C,0.345000*%
%ADD21C,0.750000*%
%ADD22C,0.500000*%
%ADD23C,0.250000*%
%ADD24C,0.254000*%
G04 APERTURE END LIST*
D10*
D11*
X88090000Y-80280000D03*
X86970000Y-80300000D03*
X85600000Y-80330000D03*
X84150000Y-80360000D03*
X48970000Y-59010000D03*
X96880000Y-75070000D03*
X96880000Y-74070000D03*
X96880000Y-73070000D03*
X96880000Y-72070000D03*
X95930000Y-71110000D03*
X94160000Y-71090000D03*
X95930000Y-70070000D03*
X95930000Y-69070000D03*
X95930000Y-68070000D03*
X95930000Y-67070000D03*
X95930000Y-66070000D03*
X95930000Y-65070000D03*
X95930000Y-64070000D03*
X95930000Y-63070000D03*
X95930000Y-62070000D03*
X95930000Y-61070000D03*
X95930000Y-60070000D03*
X95930000Y-59070000D03*
X94100000Y-66650000D03*
X94210000Y-64740000D03*
X94220000Y-63460000D03*
X97330000Y-55370000D03*
X96360000Y-55310000D03*
X95360000Y-55250000D03*
X97130000Y-57860000D03*
X96010000Y-57900000D03*
X94100000Y-76410000D03*
X94240000Y-75160000D03*
X98560000Y-76800000D03*
X97580000Y-76790000D03*
X96480000Y-76810000D03*
X96420000Y-78720000D03*
X97530000Y-78740000D03*
X98530000Y-78680000D03*
X91980000Y-76110000D03*
X90770000Y-78840000D03*
X91920000Y-77210000D03*
X90790000Y-77820000D03*
X90910000Y-70230000D03*
X91930000Y-70090000D03*
X91930000Y-68990000D03*
X103370000Y-81370000D03*
X102670000Y-81370000D03*
X101970000Y-81370000D03*
X101270000Y-81370000D03*
X100570000Y-81370000D03*
X99870000Y-81370000D03*
X103270000Y-74050000D03*
X102570000Y-74050000D03*
X101870000Y-74050000D03*
X101170000Y-74050000D03*
X100470000Y-74050000D03*
X99770000Y-74050000D03*
X103320000Y-60150000D03*
X102620000Y-60150000D03*
X101920000Y-60150000D03*
X101220000Y-60150000D03*
X100520000Y-60150000D03*
X99820000Y-60150000D03*
X103390000Y-52800000D03*
X102690000Y-52800000D03*
X101990000Y-52800000D03*
X101290000Y-52800000D03*
X100590000Y-52800000D03*
X99890000Y-52800000D03*
X68810000Y-52720000D03*
X92370000Y-53810000D03*
X94610000Y-52960000D03*
X94830000Y-54040000D03*
X93470000Y-54230000D03*
X83500000Y-63250000D03*
X82190000Y-63360000D03*
X82800000Y-64420000D03*
X82720000Y-65620000D03*
X82640000Y-66910000D03*
X82610000Y-68110000D03*
X87640000Y-67830000D03*
X87610000Y-66630000D03*
X89090000Y-66600000D03*
X89030000Y-65480000D03*
X87780000Y-65420000D03*
X87830000Y-64240000D03*
X88890000Y-64240000D03*
X88730000Y-63040000D03*
X87640000Y-62990000D03*
X74610000Y-56560000D03*
X73500000Y-56780000D03*
X72460000Y-56760000D03*
X71180000Y-56920000D03*
X70330000Y-56230000D03*
X69320000Y-56670000D03*
X64440000Y-56450000D03*
X63050000Y-56480000D03*
X61890000Y-56480000D03*
X60520000Y-56520000D03*
X57440000Y-56120000D03*
X57590000Y-57060000D03*
X56430000Y-57340000D03*
X56340000Y-56260000D03*
X54930000Y-56140000D03*
X53600000Y-56140000D03*
X52350000Y-56110000D03*
X49000000Y-54110000D03*
X49020000Y-55040000D03*
X49020000Y-55990000D03*
X49010000Y-57050000D03*
X49010000Y-58060000D03*
X49140000Y-53230000D03*
X51150000Y-57130000D03*
X51180000Y-56080000D03*
X75430000Y-55260000D03*
X75830000Y-52710000D03*
X74830000Y-52720000D03*
X73850000Y-52750000D03*
X73010000Y-52770000D03*
X71450000Y-52750000D03*
X70390000Y-52790000D03*
X67950000Y-52690000D03*
X66890000Y-52670000D03*
X65850000Y-52690000D03*
X64850000Y-52690000D03*
X63850000Y-52690000D03*
X62780000Y-52750000D03*
X61660000Y-52720000D03*
X60570000Y-52780000D03*
X58620000Y-52390000D03*
X57850000Y-52690000D03*
X56850000Y-52690000D03*
X55850000Y-52690000D03*
X54850000Y-52690000D03*
X53850000Y-52690000D03*
X52850000Y-52690000D03*
X51850000Y-52690000D03*
X50850000Y-52690000D03*
X49850000Y-52690000D03*
X74210000Y-55150000D03*
X73210000Y-55150000D03*
X72210000Y-55150000D03*
X71210000Y-55150000D03*
X70360000Y-55220000D03*
X68700000Y-55190000D03*
X67890000Y-55230000D03*
X66210000Y-55150000D03*
X65210000Y-55150000D03*
X64210000Y-55150000D03*
X63210000Y-55150000D03*
X62210000Y-55150000D03*
X61210000Y-55150000D03*
X60270000Y-55150000D03*
X59300000Y-55140000D03*
X58030000Y-55180000D03*
X57210000Y-55150000D03*
X56210000Y-55150000D03*
X55210000Y-55150000D03*
X54210000Y-55150000D03*
X53210000Y-55150000D03*
X52210000Y-55150000D03*
X51210000Y-55150000D03*
X78730000Y-85300000D03*
X81230000Y-82400000D03*
X80380000Y-80320000D03*
X81090000Y-79830000D03*
X89370000Y-79770000D03*
X88530000Y-75310000D03*
X88470000Y-72330000D03*
X88430000Y-71450000D03*
X88460000Y-70510000D03*
X88420000Y-69720000D03*
X88680000Y-68760000D03*
X89410000Y-68000000D03*
X94100000Y-70160000D03*
X93980000Y-68980000D03*
X94020000Y-67900000D03*
X77900000Y-52910000D03*
X78600000Y-52940000D03*
X79070000Y-53590000D03*
X79310000Y-54660000D03*
X79320000Y-55480000D03*
X79330000Y-56400000D03*
X77170000Y-55150000D03*
X77200000Y-56130000D03*
X77200000Y-56950000D03*
X77170000Y-57860000D03*
X76320000Y-57840000D03*
X75310000Y-57870000D03*
X74400000Y-58530000D03*
X74340000Y-59530000D03*
X74350000Y-60660000D03*
X74760000Y-61740000D03*
X75800000Y-62060000D03*
X76960000Y-62100000D03*
X77870000Y-63130000D03*
X80310000Y-62080000D03*
X80420000Y-63160000D03*
X77920000Y-62100000D03*
X81380000Y-62130000D03*
X82530000Y-62090000D03*
X83590000Y-59680000D03*
X83590000Y-60910000D03*
X87220000Y-59380000D03*
X87230000Y-58480000D03*
X87230000Y-60280000D03*
X87220000Y-61410000D03*
X88200000Y-61840000D03*
X89260000Y-61870000D03*
X90280000Y-61810000D03*
X88510000Y-52420000D03*
X89730000Y-52440000D03*
X91190000Y-53370000D03*
X91240000Y-54270000D03*
X91290000Y-55230000D03*
X98390000Y-55340000D03*
X94370000Y-55260000D03*
X93330000Y-55240000D03*
X92330000Y-55250000D03*
X95010000Y-57900000D03*
X98440000Y-57810000D03*
X94250000Y-62120000D03*
X94170000Y-61050000D03*
X94170000Y-59990000D03*
X94150000Y-58950000D03*
X94090000Y-57840000D03*
X91330000Y-61470000D03*
X91330000Y-60220000D03*
X91330000Y-59160000D03*
D12*
X101803600Y-73303400D03*
X101803600Y-82069400D03*
X101863600Y-52087000D03*
X101863600Y-60853000D03*
D13*
X36670000Y-54890000D03*
X36670000Y-57430000D03*
X36670000Y-59970000D03*
X46240000Y-69610000D03*
X43700000Y-69610000D03*
X41160000Y-69610000D03*
D14*
X90910000Y-72700000D03*
X90910000Y-74700000D03*
D15*
X92370000Y-50630000D03*
X95810000Y-85410000D03*
X40850000Y-55560000D03*
X47550000Y-85160000D03*
D16*
X80070000Y-73910700D03*
X34350000Y-73910700D03*
X36890000Y-73910700D03*
X39430000Y-73910700D03*
X41970000Y-73910700D03*
X44510000Y-73910700D03*
X47050000Y-73910700D03*
X49590000Y-73910700D03*
X52130000Y-73910700D03*
X54670000Y-73910700D03*
X57210000Y-73910700D03*
X59750000Y-73910700D03*
X62290000Y-73910700D03*
X64830000Y-73910700D03*
X67370000Y-73910700D03*
X69910000Y-73910700D03*
X72450000Y-73910700D03*
X74990000Y-73910700D03*
X77530000Y-73910700D03*
X82610000Y-73910700D03*
X85150000Y-73910700D03*
X87690000Y-73910700D03*
X80060000Y-50110700D03*
X34340000Y-50110700D03*
X36880000Y-50110700D03*
X39420000Y-50110700D03*
X41960000Y-50110700D03*
X44500000Y-50110700D03*
X47040000Y-50110700D03*
X49580000Y-50110700D03*
X52120000Y-50110700D03*
X54660000Y-50110700D03*
X57200000Y-50110700D03*
X59740000Y-50110700D03*
X62280000Y-50110700D03*
X64820000Y-50110700D03*
X67360000Y-50110700D03*
X69900000Y-50110700D03*
X72440000Y-50110700D03*
X74980000Y-50110700D03*
X77520000Y-50110700D03*
X82600000Y-50110700D03*
X85140000Y-50110700D03*
X87680000Y-50110700D03*
D17*
X82440000Y-55490000D03*
X80440000Y-55490000D03*
X82410000Y-53840000D03*
X80410000Y-53840000D03*
X84360000Y-55410000D03*
X86360000Y-55410000D03*
X84320000Y-53810000D03*
X86320000Y-53810000D03*
D18*
X43190660Y-80970000D03*
X37190660Y-80970000D03*
X40190660Y-85669000D03*
D19*
X67780000Y-81150000D03*
X90940000Y-71300000D03*
X86170000Y-63310000D03*
X82450000Y-52440000D03*
X86280000Y-52300000D03*
X84830000Y-63090000D03*
X66080000Y-62220000D03*
X53320000Y-62180000D03*
X45540000Y-53750000D03*
X44470000Y-59000000D03*
X58090000Y-60370000D03*
X44490000Y-61920000D03*
X44335700Y-66408300D03*
X42748200Y-66865500D03*
X36230000Y-67400000D03*
X49974500Y-62166500D03*
X50711100Y-62890400D03*
X51523900Y-62153800D03*
X50025300Y-61442600D03*
X50711100Y-61379100D03*
X51447700Y-61404500D03*
X50736500Y-62166500D03*
X65660000Y-86250000D03*
X60040000Y-85860000D03*
X103590000Y-48820000D03*
X102510000Y-48770000D03*
X101170000Y-48940000D03*
X98710000Y-52070000D03*
X98450000Y-53130000D03*
X98400000Y-54100000D03*
X96480000Y-52180000D03*
X96500000Y-51270000D03*
X96460000Y-50210000D03*
X96440000Y-49300000D03*
X95500000Y-49320000D03*
X95440000Y-50230000D03*
X95340000Y-51210000D03*
X95320000Y-52240000D03*
X97550000Y-53170000D03*
X97540000Y-54060000D03*
X96500000Y-54010000D03*
X96470000Y-53050000D03*
X97660000Y-48930000D03*
X97560000Y-50010000D03*
X97580000Y-51080000D03*
X97560000Y-52100000D03*
X73140000Y-76790000D03*
X69540000Y-60050000D03*
X69330000Y-65150000D03*
X80240000Y-86490000D03*
X102540000Y-68040000D03*
X100890000Y-66620000D03*
X103590000Y-69530000D03*
X102400000Y-69540000D03*
X103640000Y-68080000D03*
X101250000Y-69460000D03*
X99270000Y-69600000D03*
X97320000Y-66500000D03*
X97320000Y-69570000D03*
X97370000Y-67980000D03*
X98710000Y-67920000D03*
X98740000Y-66440000D03*
X98680000Y-64990000D03*
X97480000Y-65070000D03*
X79070000Y-57760000D03*
X79110000Y-56940000D03*
X91460000Y-57220000D03*
X92480000Y-57180000D03*
X93410000Y-57180000D03*
X92030000Y-72330000D03*
X92030000Y-73330000D03*
X92030000Y-74260000D03*
X92050000Y-75220000D03*
X99940000Y-85720000D03*
X100970000Y-85670000D03*
X98850000Y-86900000D03*
X99830000Y-87090000D03*
X101000000Y-87070000D03*
X102230000Y-87010000D03*
X103520000Y-87090000D03*
X103630000Y-85780000D03*
X102340000Y-85750000D03*
X98830000Y-85670000D03*
X98321100Y-71457700D03*
X95200000Y-78510000D03*
X80910000Y-58140000D03*
X81580000Y-58160000D03*
X82330000Y-58160000D03*
X88930000Y-54690000D03*
X88940000Y-55630000D03*
X88910000Y-56850000D03*
X88940000Y-58010000D03*
X89030000Y-58990000D03*
X89040000Y-59900000D03*
X81860000Y-60160000D03*
X80900000Y-60140000D03*
X79990000Y-60210000D03*
X78800000Y-60210000D03*
X77720000Y-60220000D03*
X76630000Y-60220000D03*
X57020000Y-61110000D03*
X84200000Y-52530000D03*
X51880000Y-58270000D03*
X75120000Y-62430000D03*
X65940000Y-56410000D03*
X99090000Y-48860000D03*
X100010000Y-50160000D03*
X100050000Y-48960000D03*
X98990000Y-49940000D03*
X99720000Y-66220000D03*
X100690000Y-64160000D03*
X100670000Y-65330000D03*
X99740000Y-62960000D03*
X99690000Y-64460000D03*
X102730000Y-65330000D03*
X103520000Y-66860000D03*
X102040000Y-66840000D03*
X101210000Y-68060000D03*
X99640000Y-67510000D03*
X101700000Y-63710000D03*
X101640000Y-65330000D03*
X103610000Y-64250000D03*
X103420000Y-63300000D03*
X103460000Y-50090000D03*
X98650000Y-60890000D03*
X91850000Y-67920000D03*
X91290000Y-62190000D03*
X76590000Y-85480000D03*
X78748640Y-82184560D03*
X84898510Y-57062790D03*
X103480000Y-71170000D03*
X98920700Y-84239600D03*
X100762200Y-84214200D03*
X102959300Y-84201500D03*
X98882600Y-79997800D03*
X98882600Y-82093300D03*
X51040000Y-79350000D03*
X66720000Y-80360000D03*
X63300000Y-66790000D03*
X73650000Y-81670000D03*
X92314400Y-78530300D03*
X85381110Y-57624130D03*
X84377810Y-57624130D03*
X84327010Y-56430330D03*
X85419210Y-56519230D03*
X79334360Y-66456560D03*
X82243680Y-84480720D03*
X99682700Y-71006200D03*
X102121100Y-70968100D03*
X93774900Y-77539700D03*
X93749500Y-78949400D03*
X93762200Y-78200100D03*
X98882600Y-75387700D03*
X80324960Y-65567560D03*
X80324960Y-66469260D03*
X80312260Y-67383660D03*
X79397860Y-67383660D03*
X78508860Y-65504060D03*
X78572360Y-67409060D03*
X78572360Y-66469260D03*
X55670000Y-78340000D03*
X98768300Y-73292200D03*
X57950000Y-58060000D03*
X92692000Y-64662000D03*
X91129900Y-65563700D03*
X91129900Y-64636600D03*
X92692000Y-65627200D03*
X91942700Y-65119200D03*
X49910000Y-65380000D03*
X50490000Y-65990000D03*
X51180000Y-66640000D03*
X48880000Y-65420000D03*
X53110000Y-85830000D03*
X75190000Y-76720000D03*
X69430000Y-68340000D03*
X73610000Y-67070000D03*
X64760000Y-69290000D03*
X41110000Y-59250000D03*
X45370000Y-57020000D03*
X96120000Y-80800000D03*
X89460000Y-81720000D03*
X87820000Y-86060000D03*
X53420000Y-67550000D03*
X38670000Y-61870000D03*
X38220000Y-68450000D03*
X67390000Y-76950000D03*
D20*
X90910000Y-72700000D02*
X90910000Y-71330000D01*
X90910000Y-71330000D02*
X90940000Y-71300000D01*
D21*
X86170000Y-63310000D02*
X86110000Y-63250000D01*
X86110000Y-63250000D02*
X86110000Y-61810000D01*
X86110000Y-61810000D02*
X86360000Y-61810000D01*
X86320000Y-53810000D02*
X86320000Y-52340000D01*
X82410000Y-53840000D02*
X82410000Y-52480000D01*
X82410000Y-52480000D02*
X82450000Y-52440000D01*
X82440000Y-55490000D02*
X82440000Y-53870000D01*
X82440000Y-53870000D02*
X82410000Y-53840000D01*
X82440000Y-56150000D02*
X82440000Y-55490000D01*
X84040000Y-58840000D02*
X82440000Y-56150000D01*
X86320000Y-52340000D02*
X86280000Y-52300000D01*
X86360000Y-55410000D02*
X86360000Y-53850000D01*
X86360000Y-53850000D02*
X86320000Y-53810000D01*
X86360000Y-61560000D02*
X86360000Y-61810000D01*
X84830000Y-63090000D02*
X86360000Y-61560000D01*
X86360000Y-61810000D02*
X86360000Y-55410000D01*
X84830000Y-63090000D02*
X84800000Y-63090000D01*
X84740000Y-59200000D02*
X84040000Y-58840000D01*
X84800000Y-63090000D02*
X84740000Y-59200000D01*
D22*
X44470000Y-54820000D02*
X44470000Y-59000000D01*
X45540000Y-53750000D02*
X44470000Y-54820000D01*
D20*
X44470000Y-59000000D02*
X43450000Y-60020000D01*
X43310000Y-61900000D02*
X43450000Y-60020000D01*
D22*
X53200000Y-60490000D02*
X52610000Y-60490000D01*
X52610000Y-60490000D02*
X48470000Y-60490000D01*
X48470000Y-60490000D02*
X48060000Y-60080000D01*
X48060000Y-60080000D02*
X47252195Y-60093302D01*
X58090000Y-60370000D02*
X53200000Y-60490000D01*
D20*
X42398455Y-61894140D02*
X42398455Y-61894152D01*
X44464140Y-61894140D02*
X42398455Y-61894140D01*
X44490000Y-61920000D02*
X44464140Y-61894140D01*
D22*
X47362195Y-60090107D02*
X47252195Y-60093302D01*
X47252195Y-60093302D02*
X46270000Y-60130000D01*
X46270000Y-60130000D02*
X43310000Y-61900000D01*
X43310000Y-61900000D02*
X42398455Y-61894152D01*
X42398455Y-61894152D02*
X42303700Y-64376300D01*
X42303700Y-64376300D02*
X44335700Y-66408300D01*
X50482500Y-62166500D02*
X46240700Y-66408300D01*
X50482500Y-62166500D02*
X50736500Y-62166500D01*
X46240700Y-66408300D02*
X44335700Y-66408300D01*
X34290000Y-73898000D02*
X34290000Y-69340000D01*
X34290000Y-69340000D02*
X36230000Y-67400000D01*
D20*
X50736500Y-62166500D02*
X49974500Y-62166500D01*
X50736500Y-62166500D02*
X50736500Y-62865000D01*
X50736500Y-62865000D02*
X50711100Y-62890400D01*
X50736500Y-62166500D02*
X51511200Y-62166500D01*
X51511200Y-62166500D02*
X51523900Y-62153800D01*
X50736500Y-62166500D02*
X50736500Y-62153800D01*
X50736500Y-62153800D02*
X50025300Y-61442600D01*
X50736500Y-62166500D02*
X50736500Y-61404500D01*
X50736500Y-61404500D02*
X50711100Y-61379100D01*
X50736500Y-62166500D02*
X50736500Y-62115700D01*
X50736500Y-62115700D02*
X51447700Y-61404500D01*
D22*
X99830000Y-87090000D02*
X99830000Y-85830000D01*
X99830000Y-85830000D02*
X99940000Y-85720000D01*
X98920700Y-84239600D02*
X98920700Y-85579300D01*
X98920700Y-85579300D02*
X98830000Y-85670000D01*
X99682700Y-71006200D02*
X99682700Y-70012700D01*
X99682700Y-70012700D02*
X99270000Y-69600000D01*
X102510000Y-48770000D02*
X101460000Y-48650000D01*
D21*
X101150000Y-48960000D02*
X101170000Y-48940000D01*
X101150000Y-48960000D02*
X100050000Y-48960000D01*
D22*
X101460000Y-48650000D02*
X101170000Y-48940000D01*
X98990000Y-49940000D02*
X97630000Y-49940000D01*
X97630000Y-49940000D02*
X97560000Y-50010000D01*
X97540000Y-54060000D02*
X98360000Y-54060000D01*
X98360000Y-52420000D02*
X98710000Y-52070000D01*
X98360000Y-53040000D02*
X98360000Y-52420000D01*
X98450000Y-53130000D02*
X98360000Y-53040000D01*
X98360000Y-54060000D02*
X98400000Y-54100000D01*
X96480000Y-52180000D02*
X96500000Y-52160000D01*
X96500000Y-52160000D02*
X96500000Y-51270000D01*
X96460000Y-50210000D02*
X96440000Y-50190000D01*
X96440000Y-50190000D02*
X96440000Y-49300000D01*
X95500000Y-49320000D02*
X95440000Y-49380000D01*
X95440000Y-49380000D02*
X95440000Y-50230000D01*
X95340000Y-51210000D02*
X95320000Y-51230000D01*
X95320000Y-51230000D02*
X95320000Y-52240000D01*
X97550000Y-54050000D02*
X97550000Y-53170000D01*
X97540000Y-54060000D02*
X97550000Y-54050000D01*
X96500000Y-53080000D02*
X96500000Y-54010000D01*
X96470000Y-53050000D02*
X96500000Y-53080000D01*
X97660000Y-48930000D02*
X97560000Y-49030000D01*
X97560000Y-49030000D02*
X97560000Y-50010000D01*
X97580000Y-51080000D02*
X97560000Y-51100000D01*
X97560000Y-51100000D02*
X97560000Y-52100000D01*
D21*
X102310000Y-68040000D02*
X102540000Y-68040000D01*
X100890000Y-66620000D02*
X102310000Y-68040000D01*
D20*
X103610000Y-69550000D02*
X103480000Y-71170000D01*
X103590000Y-69530000D02*
X103610000Y-69550000D01*
X102540000Y-69540000D02*
X102400000Y-69540000D01*
X103640000Y-68080000D02*
X102540000Y-69540000D01*
X101210000Y-68060000D02*
X101210000Y-69420000D01*
X101210000Y-69420000D02*
X101250000Y-69460000D01*
X99270000Y-69600000D02*
X99240000Y-69570000D01*
X99240000Y-69570000D02*
X97320000Y-69570000D01*
X97370000Y-67980000D02*
X97430000Y-67920000D01*
X97430000Y-67920000D02*
X98710000Y-67920000D01*
X98740000Y-66440000D02*
X98680000Y-66380000D01*
X98680000Y-66380000D02*
X98680000Y-64990000D01*
X97480000Y-65070000D02*
X97320000Y-65230000D01*
X97320000Y-65230000D02*
X97320000Y-66500000D01*
D21*
X99940000Y-85720000D02*
X99990000Y-85670000D01*
X99990000Y-85670000D02*
X100970000Y-85670000D01*
X100980000Y-87090000D02*
X99830000Y-87090000D01*
X101000000Y-87070000D02*
X100980000Y-87090000D01*
X103440000Y-87010000D02*
X102230000Y-87010000D01*
X103520000Y-87090000D02*
X103440000Y-87010000D01*
X102370000Y-85780000D02*
X103630000Y-85780000D01*
X102340000Y-85750000D02*
X102370000Y-85780000D01*
D20*
X83590000Y-59680000D02*
X83590000Y-59420000D01*
X83590000Y-59420000D02*
X82330000Y-58160000D01*
X81560000Y-58140000D02*
X80910000Y-58140000D01*
X81580000Y-58160000D02*
X81560000Y-58140000D01*
X89260000Y-61870000D02*
X89260000Y-60120000D01*
X88940000Y-56820000D02*
X88940000Y-55630000D01*
X88910000Y-56850000D02*
X88940000Y-56820000D01*
X88940000Y-58900000D02*
X88940000Y-58010000D01*
X89030000Y-58990000D02*
X88940000Y-58900000D01*
X89260000Y-60120000D02*
X89040000Y-59900000D01*
X83590000Y-59680000D02*
X83590000Y-59740000D01*
X83590000Y-59740000D02*
X83170000Y-60160000D01*
X83170000Y-60160000D02*
X81860000Y-60160000D01*
X80900000Y-60140000D02*
X80830000Y-60210000D01*
X80830000Y-60210000D02*
X79990000Y-60210000D01*
X78800000Y-60210000D02*
X78790000Y-60220000D01*
X78790000Y-60220000D02*
X77720000Y-60220000D01*
X80410000Y-53840000D02*
X79320000Y-53840000D01*
X79320000Y-53840000D02*
X79070000Y-53590000D01*
X80440000Y-55490000D02*
X79330000Y-55490000D01*
X79330000Y-55490000D02*
X79320000Y-55480000D01*
D21*
X100050000Y-48960000D02*
X99190000Y-48960000D01*
X99190000Y-48960000D02*
X99090000Y-48860000D01*
X98990000Y-49940000D02*
X98990000Y-49930000D01*
X99720000Y-66220000D02*
X99780000Y-66220000D01*
X99780000Y-66220000D02*
X100670000Y-65330000D01*
X102730000Y-65330000D02*
X102730000Y-65340000D01*
X102060000Y-66860000D02*
X103520000Y-66860000D01*
X102040000Y-66840000D02*
X102060000Y-66860000D01*
X100190000Y-68060000D02*
X101210000Y-68060000D01*
X99640000Y-67510000D02*
X100190000Y-68060000D01*
X101803600Y-82069400D02*
X99630600Y-82069400D01*
X99630600Y-82069400D02*
X98820000Y-82880000D01*
X101803600Y-82069400D02*
X101329400Y-82069400D01*
X101329400Y-82069400D02*
X99430000Y-80170000D01*
X101803600Y-73303400D02*
X101063400Y-73303400D01*
X101063400Y-73303400D02*
X99240000Y-71480000D01*
X101803600Y-73303400D02*
X100966900Y-73303400D01*
X100966900Y-73303400D02*
X98882600Y-75387700D01*
X101803600Y-73303400D02*
X101706600Y-73303400D01*
X101706600Y-73303400D02*
X99850000Y-75160000D01*
X101803600Y-73303400D02*
X101803600Y-73623600D01*
X101803600Y-73623600D02*
X103400000Y-75220000D01*
X101863600Y-60853000D02*
X101863600Y-61113600D01*
X101863600Y-61113600D02*
X103540000Y-62790000D01*
X103540000Y-62790000D02*
X103360000Y-63240000D01*
X101863600Y-60853000D02*
X101317000Y-60853000D01*
X101317000Y-60853000D02*
X99410000Y-62760000D01*
X99410000Y-62760000D02*
X99410000Y-63270000D01*
X101863600Y-60853000D02*
X101863600Y-60696400D01*
X101863600Y-60696400D02*
X103490000Y-59070000D01*
X101863600Y-52087000D02*
X101863600Y-52323600D01*
X101863600Y-52323600D02*
X103500000Y-53960000D01*
X101863600Y-52087000D02*
X101083000Y-52087000D01*
X101083000Y-52087000D02*
X99380000Y-53790000D01*
X101863600Y-52087000D02*
X100797000Y-52087000D01*
X100797000Y-52087000D02*
X99050000Y-50340000D01*
X101863600Y-52087000D02*
X101863600Y-50743600D01*
X101863600Y-50743600D02*
X101070000Y-49950000D01*
X101863600Y-52087000D02*
X101863600Y-51926400D01*
X101863600Y-51926400D02*
X103460000Y-50090000D01*
X101863600Y-52087000D02*
X101863600Y-51016400D01*
X101863600Y-51016400D02*
X103200000Y-49680000D01*
X101863600Y-52087000D02*
X101863600Y-49643600D01*
X101863600Y-49643600D02*
X101790000Y-49570000D01*
X101863600Y-52087000D02*
X101863600Y-51473600D01*
X101863600Y-51473600D02*
X100190000Y-49800000D01*
X101863600Y-52087000D02*
X101597000Y-52087000D01*
X101597000Y-52087000D02*
X99540000Y-50030000D01*
X101863600Y-52087000D02*
X99613000Y-52087000D01*
X99613000Y-52087000D02*
X98630000Y-53070000D01*
X101863600Y-52087000D02*
X99547000Y-52087000D01*
X99547000Y-52087000D02*
X98710000Y-51250000D01*
X101863600Y-60853000D02*
X101863600Y-61493600D01*
X101863600Y-61493600D02*
X103360000Y-63240000D01*
X103360000Y-63240000D02*
X103420000Y-63300000D01*
X101863600Y-60853000D02*
X101863600Y-62253600D01*
X101863600Y-62253600D02*
X103010000Y-63400000D01*
X101863600Y-60853000D02*
X101863600Y-63546400D01*
X101863600Y-63546400D02*
X101700000Y-63710000D01*
X101863600Y-60853000D02*
X101863600Y-61806400D01*
X101863600Y-61806400D02*
X100040000Y-63630000D01*
X101863600Y-60853000D02*
X101827000Y-60853000D01*
X101827000Y-60853000D02*
X99410000Y-63270000D01*
X99410000Y-63270000D02*
X99430000Y-63250000D01*
X101863600Y-60853000D02*
X99757000Y-60853000D01*
X99757000Y-60853000D02*
X98510000Y-62100000D01*
X101863600Y-60853000D02*
X99703000Y-60853000D01*
X99703000Y-60853000D02*
X98590000Y-59740000D01*
X101863600Y-52087000D02*
X101863600Y-52246400D01*
X101863600Y-52246400D02*
X100080000Y-54030000D01*
X101863600Y-52087000D02*
X101863600Y-53036400D01*
X101863600Y-53036400D02*
X100760000Y-54140000D01*
X101863600Y-52087000D02*
X101863600Y-53113600D01*
X101863600Y-53113600D02*
X102970000Y-54220000D01*
X101863600Y-60853000D02*
X101863600Y-60843600D01*
X101863600Y-60843600D02*
X100080000Y-59060000D01*
X101863600Y-60853000D02*
X101863600Y-59893600D01*
X101863600Y-59893600D02*
X100760000Y-58790000D01*
X101863600Y-60853000D02*
X101863600Y-59976400D01*
X101863600Y-59976400D02*
X103050000Y-58790000D01*
X101803600Y-73303400D02*
X101803600Y-74826400D01*
X101803600Y-74826400D02*
X101300000Y-75330000D01*
X101803600Y-73303400D02*
X101803600Y-73996400D01*
X101803600Y-73996400D02*
X100580000Y-75220000D01*
X101803600Y-73303400D02*
X101803600Y-74323600D01*
X101803600Y-74323600D02*
X102760000Y-75280000D01*
X101803600Y-82069400D02*
X101803600Y-81646400D01*
X101803600Y-81646400D02*
X103340000Y-80110000D01*
X101803600Y-82069400D02*
X101803600Y-81753600D01*
X101803600Y-81753600D02*
X100130000Y-80080000D01*
X101803600Y-82069400D02*
X101803600Y-81096400D01*
X101803600Y-81096400D02*
X102730000Y-80170000D01*
X101803600Y-82069400D02*
X101803600Y-80963600D01*
X101803600Y-80963600D02*
X101030000Y-80190000D01*
X101803600Y-82069400D02*
X99459400Y-82069400D01*
X99459400Y-82069400D02*
X98590000Y-81200000D01*
X101803600Y-82069400D02*
X101090900Y-82069400D01*
X101090900Y-82069400D02*
X98920700Y-84239600D01*
X101803600Y-82069400D02*
X101803600Y-82296400D01*
X101803600Y-82296400D02*
X100080000Y-84020000D01*
X101803600Y-82069400D02*
X101803600Y-83172800D01*
X101803600Y-83172800D02*
X100762200Y-84214200D01*
X101803600Y-82069400D02*
X101803600Y-83045800D01*
X101803600Y-83045800D02*
X102959300Y-84201500D01*
X101803600Y-82069400D02*
X101803600Y-82283600D01*
X101803600Y-82283600D02*
X103600000Y-84080000D01*
X101803600Y-73303400D02*
X98916600Y-73303400D01*
X98916600Y-73303400D02*
X98400000Y-73820000D01*
X101803600Y-73303400D02*
X99696600Y-73303400D01*
X99696600Y-73303400D02*
X98760000Y-74240000D01*
X101803600Y-73303400D02*
X99643400Y-73303400D01*
X99643400Y-73303400D02*
X98600000Y-72260000D01*
X98600000Y-72260000D02*
X98450000Y-72260000D01*
X101803600Y-73303400D02*
X101803600Y-73127100D01*
X101803600Y-73127100D02*
X99682700Y-71006200D01*
X101803600Y-73303400D02*
X101803600Y-72323600D01*
X101803600Y-72323600D02*
X100510000Y-71030000D01*
X101803600Y-73303400D02*
X101803600Y-71285600D01*
X101803600Y-71285600D02*
X102121100Y-70968100D01*
X101803600Y-73303400D02*
X101803600Y-72396400D01*
X101803600Y-72396400D02*
X103060000Y-71140000D01*
X101803600Y-73303400D02*
X101803600Y-73256400D01*
X101803600Y-73256400D02*
X103480000Y-71170000D01*
D23*
X72440000Y-50110700D02*
X72009300Y-50110700D01*
X72009300Y-50110700D02*
X69620000Y-52500000D01*
X69620000Y-52500000D02*
X69620000Y-53400000D01*
X69620000Y-53400000D02*
X68660000Y-54360000D01*
X68660000Y-54360000D02*
X67420000Y-54360000D01*
X67420000Y-54360000D02*
X67080000Y-54700000D01*
X67080000Y-54700000D02*
X67080000Y-55350000D01*
X67080000Y-55350000D02*
X66610000Y-55820000D01*
X66610000Y-55820000D02*
X59710000Y-55820000D01*
X59710000Y-55820000D02*
X59590000Y-55940000D01*
X59590000Y-55940000D02*
X59590000Y-61040000D01*
X59590000Y-61040000D02*
X55250000Y-65380000D01*
X55250000Y-65380000D02*
X49910000Y-65380000D01*
X72770000Y-52080000D02*
X72560000Y-52080000D01*
X67590000Y-57190000D02*
X61220000Y-57190000D01*
X61220000Y-57190000D02*
X60500000Y-57910000D01*
X60500000Y-57910000D02*
X60500000Y-61200000D01*
X60500000Y-61200000D02*
X55710000Y-65990000D01*
X55710000Y-65990000D02*
X50490000Y-65990000D01*
X67840000Y-57190000D02*
X67590000Y-57190000D01*
X69510000Y-55520000D02*
X67840000Y-57190000D01*
X69510000Y-54830000D02*
X69510000Y-55520000D01*
X70000000Y-54340000D02*
X69510000Y-54830000D01*
X71400000Y-54340000D02*
X70000000Y-54340000D01*
X72180000Y-53560000D02*
X71400000Y-54340000D01*
X72180000Y-52460000D02*
X72180000Y-53560000D01*
X72560000Y-52080000D02*
X72180000Y-52460000D01*
X77520000Y-50110700D02*
X77520000Y-50840000D01*
X76280000Y-52080000D02*
X72770000Y-52080000D01*
X72770000Y-52080000D02*
X72700000Y-52080000D01*
X77520000Y-50840000D02*
X76280000Y-52080000D01*
X82249300Y-50110700D02*
X80700000Y-51660000D01*
X80700000Y-51660000D02*
X78300000Y-51660000D01*
X78300000Y-51660000D02*
X76090000Y-53870000D01*
X76090000Y-53870000D02*
X76090000Y-56240000D01*
X76090000Y-56240000D02*
X74440000Y-57890000D01*
X74440000Y-57890000D02*
X62090000Y-57890000D01*
X62090000Y-57890000D02*
X61490000Y-58490000D01*
X61490000Y-58490000D02*
X61490000Y-61080000D01*
X61490000Y-61080000D02*
X55930000Y-66640000D01*
X55930000Y-66640000D02*
X51180000Y-66640000D01*
X82600000Y-50110700D02*
X82249300Y-50110700D01*
X69900000Y-50110700D02*
X69900000Y-50180000D01*
X69900000Y-50180000D02*
X68170000Y-51910000D01*
X68170000Y-51910000D02*
X60180000Y-51910000D01*
X60180000Y-51910000D02*
X58670000Y-53420000D01*
X58670000Y-53420000D02*
X58670000Y-61000000D01*
X58670000Y-61000000D02*
X55050000Y-64620000D01*
X55050000Y-64620000D02*
X49680000Y-64620000D01*
X49680000Y-64620000D02*
X48880000Y-65420000D01*
D24*
G36*
X90110345Y-49117293D02*
X89703464Y-50097173D01*
X89702538Y-51158172D01*
X90107709Y-52138761D01*
X90857293Y-52889655D01*
X91837173Y-53296536D01*
X92898172Y-53297462D01*
X93878761Y-52892291D01*
X94399209Y-52372750D01*
X98688600Y-52372750D01*
X98688600Y-53420810D01*
X98785273Y-53654199D01*
X98963902Y-53832827D01*
X99197291Y-53929500D01*
X101577850Y-53929500D01*
X101736600Y-53770750D01*
X101736600Y-52214000D01*
X98847350Y-52214000D01*
X98688600Y-52372750D01*
X94399209Y-52372750D01*
X94629655Y-52142707D01*
X95036536Y-51162827D01*
X95036893Y-50753190D01*
X98688600Y-50753190D01*
X98688600Y-51801250D01*
X98847350Y-51960000D01*
X101736600Y-51960000D01*
X101736600Y-50403250D01*
X101577850Y-50244500D01*
X99197291Y-50244500D01*
X98963902Y-50341173D01*
X98785273Y-50519801D01*
X98688600Y-50753190D01*
X95036893Y-50753190D01*
X95037462Y-50101828D01*
X94632291Y-49121239D01*
X93997661Y-48485500D01*
X103850000Y-48485500D01*
X103850000Y-50244500D01*
X102149350Y-50244500D01*
X101990600Y-50403250D01*
X101990600Y-51960000D01*
X102010600Y-51960000D01*
X102010600Y-52214000D01*
X101990600Y-52214000D01*
X101990600Y-53770750D01*
X102149350Y-53929500D01*
X103850000Y-53929500D01*
X103850000Y-59010500D01*
X102149350Y-59010500D01*
X101990600Y-59169250D01*
X101990600Y-60726000D01*
X102010600Y-60726000D01*
X102010600Y-60980000D01*
X101990600Y-60980000D01*
X101990600Y-62536750D01*
X102149350Y-62695500D01*
X103850000Y-62695500D01*
X103850000Y-71460900D01*
X102089350Y-71460900D01*
X101930600Y-71619650D01*
X101930600Y-73176400D01*
X101950600Y-73176400D01*
X101950600Y-73430400D01*
X101930600Y-73430400D01*
X101930600Y-74987150D01*
X102089350Y-75145900D01*
X103850000Y-75145900D01*
X103850000Y-80226900D01*
X102089350Y-80226900D01*
X101930600Y-80385650D01*
X101930600Y-81942400D01*
X101950600Y-81942400D01*
X101950600Y-82196400D01*
X101930600Y-82196400D01*
X101930600Y-83753150D01*
X102089350Y-83911900D01*
X103850000Y-83911900D01*
X103850000Y-87260000D01*
X97731773Y-87260000D01*
X98069655Y-86922707D01*
X98476536Y-85942827D01*
X98477462Y-84881828D01*
X98072291Y-83901239D01*
X97322707Y-83150345D01*
X96342827Y-82743464D01*
X95281828Y-82742538D01*
X94301239Y-83147709D01*
X93550345Y-83897293D01*
X93143464Y-84877173D01*
X93142538Y-85938172D01*
X93547709Y-86918761D01*
X93888353Y-87260000D01*
X49221336Y-87260000D01*
X49809655Y-86672707D01*
X50082688Y-86015167D01*
X52174838Y-86015167D01*
X52316883Y-86358943D01*
X52579673Y-86622192D01*
X52923201Y-86764838D01*
X53295167Y-86765162D01*
X53638943Y-86623117D01*
X53902192Y-86360327D01*
X53950010Y-86245167D01*
X86884838Y-86245167D01*
X87026883Y-86588943D01*
X87289673Y-86852192D01*
X87633201Y-86994838D01*
X88005167Y-86995162D01*
X88348943Y-86853117D01*
X88612192Y-86590327D01*
X88754838Y-86246799D01*
X88755162Y-85874833D01*
X88613117Y-85531057D01*
X88350327Y-85267808D01*
X88006799Y-85125162D01*
X87634833Y-85124838D01*
X87291057Y-85266883D01*
X87027808Y-85529673D01*
X86885162Y-85873201D01*
X86884838Y-86245167D01*
X53950010Y-86245167D01*
X54044838Y-86016799D01*
X54045162Y-85644833D01*
X53903117Y-85301057D01*
X53640327Y-85037808D01*
X53296799Y-84895162D01*
X52924833Y-84894838D01*
X52581057Y-85036883D01*
X52317808Y-85299673D01*
X52175162Y-85643201D01*
X52174838Y-86015167D01*
X50082688Y-86015167D01*
X50216536Y-85692827D01*
X50217462Y-84631828D01*
X49812291Y-83651239D01*
X49062707Y-82900345D01*
X48082827Y-82493464D01*
X47021828Y-82492538D01*
X46041239Y-82897709D01*
X45290345Y-83647293D01*
X44883464Y-84627173D01*
X44882538Y-85688172D01*
X45287709Y-86668761D01*
X45877917Y-87260000D01*
X33680000Y-87260000D01*
X33680000Y-79219940D01*
X40793160Y-79219940D01*
X40793160Y-82720060D01*
X40837438Y-82955377D01*
X40976510Y-83171501D01*
X41188710Y-83316491D01*
X41440600Y-83367500D01*
X44940720Y-83367500D01*
X45176037Y-83323222D01*
X45392161Y-83184150D01*
X45537151Y-82971950D01*
X45588160Y-82720060D01*
X45588160Y-81335167D01*
X66844838Y-81335167D01*
X66986883Y-81678943D01*
X67249673Y-81942192D01*
X67593201Y-82084838D01*
X67965167Y-82085162D01*
X68308943Y-81943117D01*
X68346959Y-81905167D01*
X88524838Y-81905167D01*
X88666883Y-82248943D01*
X88929673Y-82512192D01*
X89273201Y-82654838D01*
X89645167Y-82655162D01*
X89988943Y-82513117D01*
X90147185Y-82355150D01*
X98628600Y-82355150D01*
X98628600Y-83403210D01*
X98725273Y-83636599D01*
X98903902Y-83815227D01*
X99137291Y-83911900D01*
X101517850Y-83911900D01*
X101676600Y-83753150D01*
X101676600Y-82196400D01*
X98787350Y-82196400D01*
X98628600Y-82355150D01*
X90147185Y-82355150D01*
X90252192Y-82250327D01*
X90394838Y-81906799D01*
X90395162Y-81534833D01*
X90253117Y-81191057D01*
X90047586Y-80985167D01*
X95184838Y-80985167D01*
X95326883Y-81328943D01*
X95589673Y-81592192D01*
X95933201Y-81734838D01*
X96305167Y-81735162D01*
X96648943Y-81593117D01*
X96912192Y-81330327D01*
X97054838Y-80986799D01*
X97055056Y-80735590D01*
X98628600Y-80735590D01*
X98628600Y-81783650D01*
X98787350Y-81942400D01*
X101676600Y-81942400D01*
X101676600Y-80385650D01*
X101517850Y-80226900D01*
X99137291Y-80226900D01*
X98903902Y-80323573D01*
X98725273Y-80502201D01*
X98628600Y-80735590D01*
X97055056Y-80735590D01*
X97055162Y-80614833D01*
X96913117Y-80271057D01*
X96650327Y-80007808D01*
X96306799Y-79865162D01*
X95934833Y-79864838D01*
X95591057Y-80006883D01*
X95327808Y-80269673D01*
X95185162Y-80613201D01*
X95184838Y-80985167D01*
X90047586Y-80985167D01*
X89990327Y-80927808D01*
X89646799Y-80785162D01*
X89274833Y-80784838D01*
X88931057Y-80926883D01*
X88667808Y-81189673D01*
X88525162Y-81533201D01*
X88524838Y-81905167D01*
X68346959Y-81905167D01*
X68572192Y-81680327D01*
X68714838Y-81336799D01*
X68715162Y-80964833D01*
X68573117Y-80621057D01*
X68310327Y-80357808D01*
X67966799Y-80215162D01*
X67594833Y-80214838D01*
X67251057Y-80356883D01*
X66987808Y-80619673D01*
X66845162Y-80963201D01*
X66844838Y-81335167D01*
X45588160Y-81335167D01*
X45588160Y-79219940D01*
X45543882Y-78984623D01*
X45404810Y-78768499D01*
X45192610Y-78623509D01*
X44940720Y-78572500D01*
X41440600Y-78572500D01*
X41205283Y-78616778D01*
X40989159Y-78755850D01*
X40844169Y-78968050D01*
X40793160Y-79219940D01*
X33680000Y-79219940D01*
X33680000Y-77135167D01*
X66454838Y-77135167D01*
X66596883Y-77478943D01*
X66859673Y-77742192D01*
X67203201Y-77884838D01*
X67575167Y-77885162D01*
X67918943Y-77743117D01*
X68182192Y-77480327D01*
X68324838Y-77136799D01*
X68325039Y-76905167D01*
X74254838Y-76905167D01*
X74396883Y-77248943D01*
X74659673Y-77512192D01*
X75003201Y-77654838D01*
X75375167Y-77655162D01*
X75718943Y-77513117D01*
X75982192Y-77250327D01*
X76124838Y-76906799D01*
X76125162Y-76534833D01*
X75983117Y-76191057D01*
X75720327Y-75927808D01*
X75376799Y-75785162D01*
X75004833Y-75784838D01*
X74661057Y-75926883D01*
X74397808Y-76189673D01*
X74255162Y-76533201D01*
X74254838Y-76905167D01*
X68325039Y-76905167D01*
X68325162Y-76764833D01*
X68183117Y-76421057D01*
X67920327Y-76157808D01*
X67576799Y-76015162D01*
X67204833Y-76014838D01*
X66861057Y-76156883D01*
X66597808Y-76419673D01*
X66455162Y-76763201D01*
X66454838Y-77135167D01*
X33680000Y-77135167D01*
X33680000Y-75023870D01*
X34093276Y-75195477D01*
X34604481Y-75195923D01*
X35076943Y-75000705D01*
X35438735Y-74639545D01*
X35620205Y-74202518D01*
X35799995Y-74637643D01*
X36161155Y-74999435D01*
X36633276Y-75195477D01*
X37144481Y-75195923D01*
X37616943Y-75000705D01*
X37978735Y-74639545D01*
X38160205Y-74202518D01*
X38339995Y-74637643D01*
X38701155Y-74999435D01*
X39173276Y-75195477D01*
X39684481Y-75195923D01*
X40156943Y-75000705D01*
X40518735Y-74639545D01*
X40700205Y-74202518D01*
X40879995Y-74637643D01*
X41241155Y-74999435D01*
X41713276Y-75195477D01*
X42224481Y-75195923D01*
X42696943Y-75000705D01*
X43058735Y-74639545D01*
X43240205Y-74202518D01*
X43419995Y-74637643D01*
X43781155Y-74999435D01*
X44253276Y-75195477D01*
X44764481Y-75195923D01*
X45236943Y-75000705D01*
X45598735Y-74639545D01*
X45780205Y-74202518D01*
X45959995Y-74637643D01*
X46321155Y-74999435D01*
X46793276Y-75195477D01*
X47304481Y-75195923D01*
X47776943Y-75000705D01*
X48138735Y-74639545D01*
X48320205Y-74202518D01*
X48499995Y-74637643D01*
X48861155Y-74999435D01*
X49333276Y-75195477D01*
X49844481Y-75195923D01*
X50316943Y-75000705D01*
X50678735Y-74639545D01*
X50860205Y-74202518D01*
X51039995Y-74637643D01*
X51401155Y-74999435D01*
X51873276Y-75195477D01*
X52384481Y-75195923D01*
X52856943Y-75000705D01*
X53218735Y-74639545D01*
X53400205Y-74202518D01*
X53579995Y-74637643D01*
X53941155Y-74999435D01*
X54413276Y-75195477D01*
X54924481Y-75195923D01*
X55396943Y-75000705D01*
X55758735Y-74639545D01*
X55940205Y-74202518D01*
X56119995Y-74637643D01*
X56481155Y-74999435D01*
X56953276Y-75195477D01*
X57464481Y-75195923D01*
X57936943Y-75000705D01*
X58298735Y-74639545D01*
X58480205Y-74202518D01*
X58659995Y-74637643D01*
X59021155Y-74999435D01*
X59493276Y-75195477D01*
X60004481Y-75195923D01*
X60476943Y-75000705D01*
X60838735Y-74639545D01*
X61020205Y-74202518D01*
X61199995Y-74637643D01*
X61561155Y-74999435D01*
X62033276Y-75195477D01*
X62544481Y-75195923D01*
X63016943Y-75000705D01*
X63378735Y-74639545D01*
X63560205Y-74202518D01*
X63739995Y-74637643D01*
X64101155Y-74999435D01*
X64573276Y-75195477D01*
X65084481Y-75195923D01*
X65556943Y-75000705D01*
X65918735Y-74639545D01*
X66100205Y-74202518D01*
X66279995Y-74637643D01*
X66641155Y-74999435D01*
X67113276Y-75195477D01*
X67624481Y-75195923D01*
X68096943Y-75000705D01*
X68458735Y-74639545D01*
X68640205Y-74202518D01*
X68819995Y-74637643D01*
X69181155Y-74999435D01*
X69653276Y-75195477D01*
X70164481Y-75195923D01*
X70636943Y-75000705D01*
X70998735Y-74639545D01*
X71180205Y-74202518D01*
X71359995Y-74637643D01*
X71721155Y-74999435D01*
X72193276Y-75195477D01*
X72704481Y-75195923D01*
X73176943Y-75000705D01*
X73538735Y-74639545D01*
X73720205Y-74202518D01*
X73899995Y-74637643D01*
X74261155Y-74999435D01*
X74733276Y-75195477D01*
X75244481Y-75195923D01*
X75716943Y-75000705D01*
X76078735Y-74639545D01*
X76260205Y-74202518D01*
X76439995Y-74637643D01*
X76801155Y-74999435D01*
X77273276Y-75195477D01*
X77784481Y-75195923D01*
X78256943Y-75000705D01*
X78618735Y-74639545D01*
X78800205Y-74202518D01*
X78979995Y-74637643D01*
X79341155Y-74999435D01*
X79813276Y-75195477D01*
X80324481Y-75195923D01*
X80796943Y-75000705D01*
X81158735Y-74639545D01*
X81340205Y-74202518D01*
X81519995Y-74637643D01*
X81881155Y-74999435D01*
X82353276Y-75195477D01*
X82864481Y-75195923D01*
X83336943Y-75000705D01*
X83698735Y-74639545D01*
X83880205Y-74202518D01*
X84059995Y-74637643D01*
X84421155Y-74999435D01*
X84893276Y-75195477D01*
X85404481Y-75195923D01*
X85876943Y-75000705D01*
X86238735Y-74639545D01*
X86420205Y-74202518D01*
X86599995Y-74637643D01*
X86961155Y-74999435D01*
X87433276Y-75195477D01*
X87944481Y-75195923D01*
X88416943Y-75000705D01*
X88431924Y-74985750D01*
X89650000Y-74985750D01*
X89650000Y-75326309D01*
X89746673Y-75559698D01*
X89925301Y-75738327D01*
X90158690Y-75835000D01*
X90624250Y-75835000D01*
X90783000Y-75676250D01*
X90783000Y-74827000D01*
X91037000Y-74827000D01*
X91037000Y-75676250D01*
X91195750Y-75835000D01*
X91661310Y-75835000D01*
X91894699Y-75738327D01*
X92073327Y-75559698D01*
X92170000Y-75326309D01*
X92170000Y-74985750D01*
X92011250Y-74827000D01*
X91037000Y-74827000D01*
X90783000Y-74827000D01*
X89808750Y-74827000D01*
X89650000Y-74985750D01*
X88431924Y-74985750D01*
X88778735Y-74639545D01*
X88974777Y-74167424D01*
X88975223Y-73656219D01*
X88780005Y-73183757D01*
X88418845Y-72821965D01*
X87946724Y-72625923D01*
X87435519Y-72625477D01*
X86963057Y-72820695D01*
X86601265Y-73181855D01*
X86419795Y-73618882D01*
X86240005Y-73183757D01*
X85878845Y-72821965D01*
X85406724Y-72625923D01*
X84895519Y-72625477D01*
X84423057Y-72820695D01*
X84061265Y-73181855D01*
X83879795Y-73618882D01*
X83700005Y-73183757D01*
X83338845Y-72821965D01*
X82866724Y-72625923D01*
X82355519Y-72625477D01*
X81883057Y-72820695D01*
X81521265Y-73181855D01*
X81339795Y-73618882D01*
X81160005Y-73183757D01*
X80798845Y-72821965D01*
X80326724Y-72625923D01*
X79815519Y-72625477D01*
X79343057Y-72820695D01*
X78981265Y-73181855D01*
X78799795Y-73618882D01*
X78620005Y-73183757D01*
X78258845Y-72821965D01*
X77786724Y-72625923D01*
X77275519Y-72625477D01*
X76803057Y-72820695D01*
X76441265Y-73181855D01*
X76259795Y-73618882D01*
X76080005Y-73183757D01*
X75718845Y-72821965D01*
X75246724Y-72625923D01*
X74735519Y-72625477D01*
X74263057Y-72820695D01*
X73901265Y-73181855D01*
X73719795Y-73618882D01*
X73540005Y-73183757D01*
X73178845Y-72821965D01*
X72706724Y-72625923D01*
X72195519Y-72625477D01*
X71723057Y-72820695D01*
X71361265Y-73181855D01*
X71179795Y-73618882D01*
X71000005Y-73183757D01*
X70638845Y-72821965D01*
X70166724Y-72625923D01*
X69655519Y-72625477D01*
X69183057Y-72820695D01*
X68821265Y-73181855D01*
X68639795Y-73618882D01*
X68460005Y-73183757D01*
X68098845Y-72821965D01*
X67626724Y-72625923D01*
X67115519Y-72625477D01*
X66643057Y-72820695D01*
X66281265Y-73181855D01*
X66099795Y-73618882D01*
X65920005Y-73183757D01*
X65558845Y-72821965D01*
X65086724Y-72625923D01*
X64575519Y-72625477D01*
X64103057Y-72820695D01*
X63741265Y-73181855D01*
X63559795Y-73618882D01*
X63380005Y-73183757D01*
X63018845Y-72821965D01*
X62546724Y-72625923D01*
X62035519Y-72625477D01*
X61563057Y-72820695D01*
X61201265Y-73181855D01*
X61019795Y-73618882D01*
X60840005Y-73183757D01*
X60478845Y-72821965D01*
X60006724Y-72625923D01*
X59495519Y-72625477D01*
X59023057Y-72820695D01*
X58661265Y-73181855D01*
X58479795Y-73618882D01*
X58300005Y-73183757D01*
X57938845Y-72821965D01*
X57466724Y-72625923D01*
X56955519Y-72625477D01*
X56483057Y-72820695D01*
X56121265Y-73181855D01*
X55939795Y-73618882D01*
X55760005Y-73183757D01*
X55398845Y-72821965D01*
X54926724Y-72625923D01*
X54415519Y-72625477D01*
X53943057Y-72820695D01*
X53581265Y-73181855D01*
X53399795Y-73618882D01*
X53220005Y-73183757D01*
X52858845Y-72821965D01*
X52386724Y-72625923D01*
X51875519Y-72625477D01*
X51403057Y-72820695D01*
X51041265Y-73181855D01*
X50859795Y-73618882D01*
X50680005Y-73183757D01*
X50318845Y-72821965D01*
X49846724Y-72625923D01*
X49335519Y-72625477D01*
X48863057Y-72820695D01*
X48501265Y-73181855D01*
X48319795Y-73618882D01*
X48140005Y-73183757D01*
X47778845Y-72821965D01*
X47306724Y-72625923D01*
X46795519Y-72625477D01*
X46323057Y-72820695D01*
X45961265Y-73181855D01*
X45779795Y-73618882D01*
X45600005Y-73183757D01*
X45238845Y-72821965D01*
X44766724Y-72625923D01*
X44255519Y-72625477D01*
X43783057Y-72820695D01*
X43421265Y-73181855D01*
X43239795Y-73618882D01*
X43060005Y-73183757D01*
X42698845Y-72821965D01*
X42226724Y-72625923D01*
X41715519Y-72625477D01*
X41243057Y-72820695D01*
X40881265Y-73181855D01*
X40699795Y-73618882D01*
X40520005Y-73183757D01*
X40158845Y-72821965D01*
X39686724Y-72625923D01*
X39175519Y-72625477D01*
X38703057Y-72820695D01*
X38341265Y-73181855D01*
X38159795Y-73618882D01*
X37980005Y-73183757D01*
X37618845Y-72821965D01*
X37146724Y-72625923D01*
X36635519Y-72625477D01*
X36163057Y-72820695D01*
X35801265Y-73181855D01*
X35619795Y-73618882D01*
X35440005Y-73183757D01*
X35175000Y-72918288D01*
X35175000Y-72200000D01*
X89637560Y-72200000D01*
X89637560Y-73200000D01*
X89681838Y-73435317D01*
X89820910Y-73651441D01*
X89889006Y-73697969D01*
X89746673Y-73840302D01*
X89650000Y-74073691D01*
X89650000Y-74414250D01*
X89808750Y-74573000D01*
X90783000Y-74573000D01*
X90783000Y-74553000D01*
X91037000Y-74553000D01*
X91037000Y-74573000D01*
X92011250Y-74573000D01*
X92170000Y-74414250D01*
X92170000Y-74073691D01*
X92073327Y-73840302D01*
X91932090Y-73699064D01*
X91986441Y-73664090D01*
X92037645Y-73589150D01*
X98628600Y-73589150D01*
X98628600Y-74637210D01*
X98725273Y-74870599D01*
X98903902Y-75049227D01*
X99137291Y-75145900D01*
X101517850Y-75145900D01*
X101676600Y-74987150D01*
X101676600Y-73430400D01*
X98787350Y-73430400D01*
X98628600Y-73589150D01*
X92037645Y-73589150D01*
X92131431Y-73451890D01*
X92182440Y-73200000D01*
X92182440Y-72200000D01*
X92139086Y-71969590D01*
X98628600Y-71969590D01*
X98628600Y-73017650D01*
X98787350Y-73176400D01*
X101676600Y-73176400D01*
X101676600Y-71619650D01*
X101517850Y-71460900D01*
X99137291Y-71460900D01*
X98903902Y-71557573D01*
X98725273Y-71736201D01*
X98628600Y-71969590D01*
X92139086Y-71969590D01*
X92138162Y-71964683D01*
X91999090Y-71748559D01*
X91817629Y-71624572D01*
X91874838Y-71486799D01*
X91875162Y-71114833D01*
X91733117Y-70771057D01*
X91470327Y-70507808D01*
X91126799Y-70365162D01*
X90754833Y-70364838D01*
X90411057Y-70506883D01*
X90147808Y-70769673D01*
X90005162Y-71113201D01*
X90004838Y-71485167D01*
X90050886Y-71596612D01*
X90049683Y-71596838D01*
X89833559Y-71735910D01*
X89688569Y-71948110D01*
X89637560Y-72200000D01*
X35175000Y-72200000D01*
X35175000Y-69904089D01*
X39674743Y-69904089D01*
X39900344Y-70450086D01*
X40317717Y-70868188D01*
X40863319Y-71094742D01*
X41454089Y-71095257D01*
X42000086Y-70869656D01*
X42418188Y-70452283D01*
X42429748Y-70424443D01*
X42440344Y-70450086D01*
X42857717Y-70868188D01*
X43403319Y-71094742D01*
X43994089Y-71095257D01*
X44540086Y-70869656D01*
X44958188Y-70452283D01*
X44969748Y-70424443D01*
X44980344Y-70450086D01*
X45397717Y-70868188D01*
X45943319Y-71094742D01*
X46534089Y-71095257D01*
X47080086Y-70869656D01*
X47498188Y-70452283D01*
X47724742Y-69906681D01*
X47725118Y-69475167D01*
X63824838Y-69475167D01*
X63966883Y-69818943D01*
X64229673Y-70082192D01*
X64573201Y-70224838D01*
X64945167Y-70225162D01*
X65288943Y-70083117D01*
X65552192Y-69820327D01*
X65694838Y-69476799D01*
X65695162Y-69104833D01*
X65553117Y-68761057D01*
X65317639Y-68525167D01*
X68494838Y-68525167D01*
X68636883Y-68868943D01*
X68899673Y-69132192D01*
X69243201Y-69274838D01*
X69615167Y-69275162D01*
X69958943Y-69133117D01*
X70222192Y-68870327D01*
X70364838Y-68526799D01*
X70365162Y-68154833D01*
X70223117Y-67811057D01*
X69960327Y-67547808D01*
X69616799Y-67405162D01*
X69244833Y-67404838D01*
X68901057Y-67546883D01*
X68637808Y-67809673D01*
X68495162Y-68153201D01*
X68494838Y-68525167D01*
X65317639Y-68525167D01*
X65290327Y-68497808D01*
X64946799Y-68355162D01*
X64574833Y-68354838D01*
X64231057Y-68496883D01*
X63967808Y-68759673D01*
X63825162Y-69103201D01*
X63824838Y-69475167D01*
X47725118Y-69475167D01*
X47725257Y-69315911D01*
X47499656Y-68769914D01*
X47082283Y-68351812D01*
X46536681Y-68125258D01*
X45945911Y-68124743D01*
X45399914Y-68350344D01*
X44981812Y-68767717D01*
X44970252Y-68795557D01*
X44959656Y-68769914D01*
X44542283Y-68351812D01*
X43996681Y-68125258D01*
X43405911Y-68124743D01*
X42859914Y-68350344D01*
X42441812Y-68767717D01*
X42430252Y-68795557D01*
X42419656Y-68769914D01*
X42002283Y-68351812D01*
X41456681Y-68125258D01*
X40865911Y-68124743D01*
X40319914Y-68350344D01*
X39901812Y-68767717D01*
X39675258Y-69313319D01*
X39674743Y-69904089D01*
X35175000Y-69904089D01*
X35175000Y-69706580D01*
X36246412Y-68635167D01*
X37284838Y-68635167D01*
X37426883Y-68978943D01*
X37689673Y-69242192D01*
X38033201Y-69384838D01*
X38405167Y-69385162D01*
X38748943Y-69243117D01*
X39012192Y-68980327D01*
X39154838Y-68636799D01*
X39155162Y-68264833D01*
X39013117Y-67921057D01*
X38750327Y-67657808D01*
X38406799Y-67515162D01*
X38034833Y-67514838D01*
X37691057Y-67656883D01*
X37427808Y-67919673D01*
X37285162Y-68263201D01*
X37284838Y-68635167D01*
X36246412Y-68635167D01*
X36638834Y-68242745D01*
X36758943Y-68193117D01*
X37022192Y-67930327D01*
X37164838Y-67586799D01*
X37165162Y-67214833D01*
X37023117Y-66871057D01*
X36760327Y-66607808D01*
X36416799Y-66465162D01*
X36044833Y-66464838D01*
X35701057Y-66606883D01*
X35437808Y-66869673D01*
X35387434Y-66990987D01*
X33680000Y-68698420D01*
X33680000Y-62055167D01*
X37734838Y-62055167D01*
X37876883Y-62398943D01*
X38139673Y-62662192D01*
X38483201Y-62804838D01*
X38855167Y-62805162D01*
X39198943Y-62663117D01*
X39462192Y-62400327D01*
X39604838Y-62056799D01*
X39605162Y-61684833D01*
X39463117Y-61341057D01*
X39200327Y-61077808D01*
X38856799Y-60935162D01*
X38484833Y-60934838D01*
X38141057Y-61076883D01*
X37877808Y-61339673D01*
X37735162Y-61683201D01*
X37734838Y-62055167D01*
X33680000Y-62055167D01*
X33680000Y-55184089D01*
X35184743Y-55184089D01*
X35410344Y-55730086D01*
X35827717Y-56148188D01*
X35855557Y-56159748D01*
X35829914Y-56170344D01*
X35411812Y-56587717D01*
X35185258Y-57133319D01*
X35184743Y-57724089D01*
X35410344Y-58270086D01*
X35827717Y-58688188D01*
X35855557Y-58699748D01*
X35829914Y-58710344D01*
X35411812Y-59127717D01*
X35185258Y-59673319D01*
X35184743Y-60264089D01*
X35410344Y-60810086D01*
X35827717Y-61228188D01*
X36373319Y-61454742D01*
X36964089Y-61455257D01*
X37510086Y-61229656D01*
X37928188Y-60812283D01*
X38154742Y-60266681D01*
X38155257Y-59675911D01*
X38055784Y-59435167D01*
X40174838Y-59435167D01*
X40316883Y-59778943D01*
X40579673Y-60042192D01*
X40923201Y-60184838D01*
X41295167Y-60185162D01*
X41638943Y-60043117D01*
X41902192Y-59780327D01*
X42044838Y-59436799D01*
X42045162Y-59064833D01*
X41903117Y-58721057D01*
X41640327Y-58457808D01*
X41296799Y-58315162D01*
X40924833Y-58314838D01*
X40581057Y-58456883D01*
X40317808Y-58719673D01*
X40175162Y-59063201D01*
X40174838Y-59435167D01*
X38055784Y-59435167D01*
X37929656Y-59129914D01*
X37512283Y-58711812D01*
X37484443Y-58700252D01*
X37510086Y-58689656D01*
X37928188Y-58272283D01*
X38154742Y-57726681D01*
X38155257Y-57135911D01*
X37929656Y-56589914D01*
X37512283Y-56171812D01*
X37484443Y-56160252D01*
X37510086Y-56149656D01*
X37571677Y-56088172D01*
X38182538Y-56088172D01*
X38587709Y-57068761D01*
X39337293Y-57819655D01*
X40317173Y-58226536D01*
X41378172Y-58227462D01*
X42358761Y-57822291D01*
X43109655Y-57072707D01*
X43516536Y-56092827D01*
X43517462Y-55031828D01*
X43112291Y-54051239D01*
X42362707Y-53300345D01*
X41382827Y-52893464D01*
X40321828Y-52892538D01*
X39341239Y-53297709D01*
X38590345Y-54047293D01*
X38183464Y-55027173D01*
X38182538Y-56088172D01*
X37571677Y-56088172D01*
X37928188Y-55732283D01*
X38154742Y-55186681D01*
X38155257Y-54595911D01*
X37929656Y-54049914D01*
X37512283Y-53631812D01*
X36966681Y-53405258D01*
X36375911Y-53404743D01*
X35829914Y-53630344D01*
X35411812Y-54047717D01*
X35185258Y-54593319D01*
X35184743Y-55184089D01*
X33680000Y-55184089D01*
X33680000Y-51228022D01*
X34083276Y-51395477D01*
X34594481Y-51395923D01*
X35066943Y-51200705D01*
X35428735Y-50839545D01*
X35610205Y-50402518D01*
X35789995Y-50837643D01*
X36151155Y-51199435D01*
X36623276Y-51395477D01*
X37134481Y-51395923D01*
X37606943Y-51200705D01*
X37968735Y-50839545D01*
X38150205Y-50402518D01*
X38329995Y-50837643D01*
X38691155Y-51199435D01*
X39163276Y-51395477D01*
X39674481Y-51395923D01*
X40146943Y-51200705D01*
X40508735Y-50839545D01*
X40690205Y-50402518D01*
X40869995Y-50837643D01*
X41231155Y-51199435D01*
X41703276Y-51395477D01*
X42214481Y-51395923D01*
X42686943Y-51200705D01*
X43048735Y-50839545D01*
X43230205Y-50402518D01*
X43409995Y-50837643D01*
X43771155Y-51199435D01*
X44243276Y-51395477D01*
X44754481Y-51395923D01*
X45226943Y-51200705D01*
X45588735Y-50839545D01*
X45770205Y-50402518D01*
X45949995Y-50837643D01*
X46311155Y-51199435D01*
X46783276Y-51395477D01*
X47294481Y-51395923D01*
X47766943Y-51200705D01*
X48128735Y-50839545D01*
X48310205Y-50402518D01*
X48489995Y-50837643D01*
X48851155Y-51199435D01*
X49323276Y-51395477D01*
X49834481Y-51395923D01*
X50306943Y-51200705D01*
X50668735Y-50839545D01*
X50850205Y-50402518D01*
X51029995Y-50837643D01*
X51391155Y-51199435D01*
X51863276Y-51395477D01*
X52374481Y-51395923D01*
X52846943Y-51200705D01*
X53208735Y-50839545D01*
X53390205Y-50402518D01*
X53569995Y-50837643D01*
X53931155Y-51199435D01*
X54403276Y-51395477D01*
X54914481Y-51395923D01*
X55386943Y-51200705D01*
X55748735Y-50839545D01*
X55930205Y-50402518D01*
X56109995Y-50837643D01*
X56471155Y-51199435D01*
X56943276Y-51395477D01*
X57454481Y-51395923D01*
X57926943Y-51200705D01*
X58288735Y-50839545D01*
X58470205Y-50402518D01*
X58649995Y-50837643D01*
X59011155Y-51199435D01*
X59483276Y-51395477D01*
X59619602Y-51395596D01*
X58132599Y-52882599D01*
X57967852Y-53129161D01*
X57910000Y-53420000D01*
X57910000Y-59434843D01*
X57904833Y-59434838D01*
X57764761Y-59492715D01*
X53189129Y-59605000D01*
X48836580Y-59605000D01*
X48685790Y-59454210D01*
X48679624Y-59450090D01*
X48675402Y-59443991D01*
X48536256Y-59354295D01*
X48398674Y-59262367D01*
X48391402Y-59260920D01*
X48385168Y-59256902D01*
X48222359Y-59227295D01*
X48060000Y-59194999D01*
X48052723Y-59196446D01*
X48045429Y-59195120D01*
X47343588Y-59206677D01*
X47336500Y-59205480D01*
X47226501Y-59208675D01*
X47222850Y-59209512D01*
X47219151Y-59208919D01*
X46236957Y-59245617D01*
X46189633Y-59256882D01*
X46141048Y-59254445D01*
X46022980Y-59296553D01*
X45901033Y-59325582D01*
X45861621Y-59354101D01*
X45815804Y-59370441D01*
X44387376Y-60224602D01*
X44692060Y-59919918D01*
X44998943Y-59793117D01*
X45262192Y-59530327D01*
X45404838Y-59186799D01*
X45405162Y-58814833D01*
X45355000Y-58693431D01*
X45355000Y-57954988D01*
X45555167Y-57955162D01*
X45898943Y-57813117D01*
X46162192Y-57550327D01*
X46304838Y-57206799D01*
X46305162Y-56834833D01*
X46163117Y-56491057D01*
X45900327Y-56227808D01*
X45556799Y-56085162D01*
X45355000Y-56084986D01*
X45355000Y-55186580D01*
X45948835Y-54592745D01*
X46068943Y-54543117D01*
X46332192Y-54280327D01*
X46474838Y-53936799D01*
X46475162Y-53564833D01*
X46333117Y-53221057D01*
X46070327Y-52957808D01*
X45726799Y-52815162D01*
X45354833Y-52814838D01*
X45011057Y-52956883D01*
X44747808Y-53219673D01*
X44697434Y-53340987D01*
X43844210Y-54194210D01*
X43652367Y-54481325D01*
X43652367Y-54481326D01*
X43584999Y-54820000D01*
X43585000Y-54820005D01*
X43585000Y-58693178D01*
X43549606Y-58778416D01*
X42879011Y-59449011D01*
X42807851Y-59555509D01*
X42728975Y-59656434D01*
X42720849Y-59685717D01*
X42703967Y-59710983D01*
X42678978Y-59836610D01*
X42644730Y-59960033D01*
X42566525Y-61010212D01*
X42404133Y-61009170D01*
X42248103Y-61039167D01*
X42091217Y-61064195D01*
X42079054Y-61071667D01*
X42065032Y-61074363D01*
X41932358Y-61161787D01*
X41796992Y-61244946D01*
X41788613Y-61256505D01*
X41776693Y-61264360D01*
X41687592Y-61395875D01*
X41594336Y-61524533D01*
X41591018Y-61538422D01*
X41583012Y-61550239D01*
X41551020Y-61705846D01*
X41514099Y-61860392D01*
X41419344Y-64342540D01*
X41422046Y-64359475D01*
X41418699Y-64376300D01*
X41449155Y-64529409D01*
X41473743Y-64683538D01*
X41482721Y-64698152D01*
X41486067Y-64714974D01*
X41572786Y-64844759D01*
X41654494Y-64977763D01*
X41668381Y-64987829D01*
X41677910Y-65002090D01*
X42606196Y-65930376D01*
X42563033Y-65930338D01*
X42219257Y-66072383D01*
X41956008Y-66335173D01*
X41813362Y-66678701D01*
X41813038Y-67050667D01*
X41955083Y-67394443D01*
X42217873Y-67657692D01*
X42561401Y-67800338D01*
X42933367Y-67800662D01*
X43277143Y-67658617D01*
X43540392Y-67395827D01*
X43675518Y-67070410D01*
X43805373Y-67200492D01*
X44148901Y-67343138D01*
X44520867Y-67343462D01*
X44642269Y-67293300D01*
X46240695Y-67293300D01*
X46240700Y-67293301D01*
X46523184Y-67237110D01*
X46579375Y-67225933D01*
X46866490Y-67034090D01*
X48047340Y-65853240D01*
X48086883Y-65948943D01*
X48349673Y-66212192D01*
X48693201Y-66354838D01*
X49065167Y-66355162D01*
X49408943Y-66213117D01*
X49429297Y-66192798D01*
X49589632Y-66259375D01*
X49696883Y-66518943D01*
X49959673Y-66782192D01*
X50282463Y-66916227D01*
X50386883Y-67168943D01*
X50649673Y-67432192D01*
X50993201Y-67574838D01*
X51365167Y-67575162D01*
X51708943Y-67433117D01*
X51742118Y-67400000D01*
X52485130Y-67400000D01*
X52484838Y-67735167D01*
X52626883Y-68078943D01*
X52889673Y-68342192D01*
X53233201Y-68484838D01*
X53605167Y-68485162D01*
X53948943Y-68343117D01*
X54212192Y-68080327D01*
X54354838Y-67736799D01*
X54355131Y-67400000D01*
X55930000Y-67400000D01*
X56220839Y-67342148D01*
X56351015Y-67255167D01*
X72674838Y-67255167D01*
X72816883Y-67598943D01*
X73079673Y-67862192D01*
X73423201Y-68004838D01*
X73795167Y-68005162D01*
X74138943Y-67863117D01*
X74402192Y-67600327D01*
X74544838Y-67256799D01*
X74545162Y-66884833D01*
X74403117Y-66541057D01*
X74140327Y-66277808D01*
X73796799Y-66135162D01*
X73424833Y-66134838D01*
X73081057Y-66276883D01*
X72817808Y-66539673D01*
X72675162Y-66883201D01*
X72674838Y-67255167D01*
X56351015Y-67255167D01*
X56467401Y-67177401D01*
X61239635Y-62405167D01*
X65144838Y-62405167D01*
X65286883Y-62748943D01*
X65549673Y-63012192D01*
X65893201Y-63154838D01*
X66265167Y-63155162D01*
X66608943Y-63013117D01*
X66872192Y-62750327D01*
X67014838Y-62406799D01*
X67015162Y-62034833D01*
X66873117Y-61691057D01*
X66610327Y-61427808D01*
X66266799Y-61285162D01*
X65894833Y-61284838D01*
X65551057Y-61426883D01*
X65287808Y-61689673D01*
X65145162Y-62033201D01*
X65144838Y-62405167D01*
X61239635Y-62405167D01*
X62027401Y-61617401D01*
X62192148Y-61370840D01*
X62205212Y-61305162D01*
X62250000Y-61080000D01*
X62250000Y-58804802D01*
X62404802Y-58650000D01*
X74440000Y-58650000D01*
X74730839Y-58592148D01*
X74977401Y-58427401D01*
X76627401Y-56777401D01*
X76792148Y-56530840D01*
X76850000Y-56240000D01*
X76850000Y-55775750D01*
X79305000Y-55775750D01*
X79305000Y-56241310D01*
X79401673Y-56474699D01*
X79580302Y-56653327D01*
X79813691Y-56750000D01*
X80154250Y-56750000D01*
X80313000Y-56591250D01*
X80313000Y-55617000D01*
X79463750Y-55617000D01*
X79305000Y-55775750D01*
X76850000Y-55775750D01*
X76850000Y-54184802D01*
X76909052Y-54125750D01*
X79275000Y-54125750D01*
X79275000Y-54591310D01*
X79320523Y-54701213D01*
X79305000Y-54738690D01*
X79305000Y-55204250D01*
X79463750Y-55363000D01*
X80313000Y-55363000D01*
X80313000Y-54388750D01*
X80283000Y-54358750D01*
X80283000Y-53967000D01*
X79433750Y-53967000D01*
X79275000Y-54125750D01*
X76909052Y-54125750D01*
X77946112Y-53088690D01*
X79275000Y-53088690D01*
X79275000Y-53554250D01*
X79433750Y-53713000D01*
X80283000Y-53713000D01*
X80283000Y-52738750D01*
X80537000Y-52738750D01*
X80537000Y-53713000D01*
X80557000Y-53713000D01*
X80557000Y-53967000D01*
X80537000Y-53967000D01*
X80537000Y-54941250D01*
X80567000Y-54971250D01*
X80567000Y-55363000D01*
X80587000Y-55363000D01*
X80587000Y-55617000D01*
X80567000Y-55617000D01*
X80567000Y-56591250D01*
X80725750Y-56750000D01*
X81066309Y-56750000D01*
X81299698Y-56653327D01*
X81440936Y-56512090D01*
X81475910Y-56566441D01*
X81555949Y-56621130D01*
X81571945Y-56666315D01*
X83171945Y-59356315D01*
X83228500Y-59419138D01*
X83269522Y-59493041D01*
X83359079Y-59564192D01*
X83435607Y-59649202D01*
X83511895Y-59685599D01*
X83578079Y-59738181D01*
X83739461Y-59821177D01*
X83790120Y-63105577D01*
X83829932Y-63290752D01*
X83866882Y-63476510D01*
X83871287Y-63483103D01*
X83872954Y-63490855D01*
X83980604Y-63646707D01*
X84085822Y-63804178D01*
X84092414Y-63808582D01*
X84096921Y-63815108D01*
X84256027Y-63917905D01*
X84413490Y-64023118D01*
X84421267Y-64024665D01*
X84427927Y-64028968D01*
X84614239Y-64063050D01*
X84800000Y-64100000D01*
X84830000Y-64100000D01*
X85216510Y-64023118D01*
X85367703Y-63922095D01*
X85395822Y-63964178D01*
X85455822Y-64024178D01*
X85783490Y-64243118D01*
X86170000Y-64320000D01*
X86556510Y-64243118D01*
X86884178Y-64024178D01*
X87103118Y-63696510D01*
X87180000Y-63310000D01*
X87120000Y-63008361D01*
X87120000Y-62455600D01*
X87293118Y-62196510D01*
X87370000Y-61810000D01*
X87370000Y-61138750D01*
X98688600Y-61138750D01*
X98688600Y-62186810D01*
X98785273Y-62420199D01*
X98963902Y-62598827D01*
X99197291Y-62695500D01*
X101577850Y-62695500D01*
X101736600Y-62536750D01*
X101736600Y-60980000D01*
X98847350Y-60980000D01*
X98688600Y-61138750D01*
X87370000Y-61138750D01*
X87370000Y-59519190D01*
X98688600Y-59519190D01*
X98688600Y-60567250D01*
X98847350Y-60726000D01*
X101736600Y-60726000D01*
X101736600Y-59169250D01*
X101577850Y-59010500D01*
X99197291Y-59010500D01*
X98963902Y-59107173D01*
X98785273Y-59285801D01*
X98688600Y-59519190D01*
X87370000Y-59519190D01*
X87370000Y-56413386D01*
X87456431Y-56286890D01*
X87507440Y-56035000D01*
X87507440Y-54785000D01*
X87463162Y-54549683D01*
X87448751Y-54527288D01*
X87467440Y-54435000D01*
X87467440Y-53185000D01*
X87423162Y-52949683D01*
X87330000Y-52804905D01*
X87330000Y-52340005D01*
X87330001Y-52340000D01*
X87253118Y-51953490D01*
X87034178Y-51625822D01*
X86994178Y-51585822D01*
X86666510Y-51366882D01*
X86280000Y-51290000D01*
X85893490Y-51366882D01*
X85565822Y-51585822D01*
X85346882Y-51913490D01*
X85270000Y-52300000D01*
X85310000Y-52501093D01*
X85310000Y-52776974D01*
X85179698Y-52646673D01*
X84946309Y-52550000D01*
X84605750Y-52550000D01*
X84447000Y-52708750D01*
X84447000Y-53683000D01*
X84467000Y-53683000D01*
X84467000Y-53937000D01*
X84447000Y-53937000D01*
X84447000Y-54911250D01*
X84487000Y-54951250D01*
X84487000Y-55283000D01*
X84507000Y-55283000D01*
X84507000Y-55537000D01*
X84487000Y-55537000D01*
X84487000Y-56511250D01*
X84645750Y-56670000D01*
X84986309Y-56670000D01*
X85219698Y-56573327D01*
X85350000Y-56443026D01*
X85350000Y-58414755D01*
X85318273Y-58394256D01*
X85201922Y-58301819D01*
X84759809Y-58074447D01*
X83924451Y-56670000D01*
X84074250Y-56670000D01*
X84233000Y-56511250D01*
X84233000Y-55537000D01*
X84213000Y-55537000D01*
X84213000Y-55283000D01*
X84233000Y-55283000D01*
X84233000Y-54308750D01*
X84193000Y-54268750D01*
X84193000Y-53937000D01*
X84173000Y-53937000D01*
X84173000Y-53683000D01*
X84193000Y-53683000D01*
X84193000Y-52708750D01*
X84034250Y-52550000D01*
X83693691Y-52550000D01*
X83460302Y-52646673D01*
X83420000Y-52686975D01*
X83420000Y-52641095D01*
X83460001Y-52440000D01*
X83383118Y-52053489D01*
X83164178Y-51725822D01*
X82836511Y-51506882D01*
X82450000Y-51429999D01*
X82063490Y-51506882D01*
X81735822Y-51725822D01*
X81695822Y-51765822D01*
X81476882Y-52093490D01*
X81400000Y-52480000D01*
X81400000Y-52806974D01*
X81269698Y-52676673D01*
X81036309Y-52580000D01*
X80695750Y-52580000D01*
X80537000Y-52738750D01*
X80283000Y-52738750D01*
X80124250Y-52580000D01*
X79783691Y-52580000D01*
X79550302Y-52676673D01*
X79371673Y-52855301D01*
X79275000Y-53088690D01*
X77946112Y-53088690D01*
X78614802Y-52420000D01*
X80700000Y-52420000D01*
X80990839Y-52362148D01*
X81237401Y-52197401D01*
X82128506Y-51306296D01*
X82343276Y-51395477D01*
X82854481Y-51395923D01*
X83326943Y-51200705D01*
X83688735Y-50839545D01*
X83870205Y-50402518D01*
X84049995Y-50837643D01*
X84411155Y-51199435D01*
X84883276Y-51395477D01*
X85394481Y-51395923D01*
X85866943Y-51200705D01*
X86228735Y-50839545D01*
X86410205Y-50402518D01*
X86589995Y-50837643D01*
X86951155Y-51199435D01*
X87423276Y-51395477D01*
X87934481Y-51395923D01*
X88406943Y-51200705D01*
X88768735Y-50839545D01*
X88964777Y-50367424D01*
X88965223Y-49856219D01*
X88770005Y-49383757D01*
X88408845Y-49021965D01*
X87936724Y-48825923D01*
X87425519Y-48825477D01*
X86953057Y-49020695D01*
X86591265Y-49381855D01*
X86409795Y-49818882D01*
X86230005Y-49383757D01*
X85868845Y-49021965D01*
X85396724Y-48825923D01*
X84885519Y-48825477D01*
X84413057Y-49020695D01*
X84051265Y-49381855D01*
X83869795Y-49818882D01*
X83690005Y-49383757D01*
X83328845Y-49021965D01*
X82856724Y-48825923D01*
X82345519Y-48825477D01*
X81873057Y-49020695D01*
X81511265Y-49381855D01*
X81329795Y-49818882D01*
X81150005Y-49383757D01*
X80788845Y-49021965D01*
X80316724Y-48825923D01*
X79805519Y-48825477D01*
X79333057Y-49020695D01*
X78971265Y-49381855D01*
X78789795Y-49818882D01*
X78610005Y-49383757D01*
X78248845Y-49021965D01*
X77776724Y-48825923D01*
X77265519Y-48825477D01*
X76793057Y-49020695D01*
X76431265Y-49381855D01*
X76249795Y-49818882D01*
X76070005Y-49383757D01*
X75708845Y-49021965D01*
X75236724Y-48825923D01*
X74725519Y-48825477D01*
X74253057Y-49020695D01*
X73891265Y-49381855D01*
X73709795Y-49818882D01*
X73530005Y-49383757D01*
X73168845Y-49021965D01*
X72696724Y-48825923D01*
X72185519Y-48825477D01*
X71713057Y-49020695D01*
X71351265Y-49381855D01*
X71169795Y-49818882D01*
X70990005Y-49383757D01*
X70628845Y-49021965D01*
X70156724Y-48825923D01*
X69645519Y-48825477D01*
X69173057Y-49020695D01*
X68811265Y-49381855D01*
X68629795Y-49818882D01*
X68450005Y-49383757D01*
X68088845Y-49021965D01*
X67616724Y-48825923D01*
X67105519Y-48825477D01*
X66633057Y-49020695D01*
X66271265Y-49381855D01*
X66089795Y-49818882D01*
X65910005Y-49383757D01*
X65548845Y-49021965D01*
X65076724Y-48825923D01*
X64565519Y-48825477D01*
X64093057Y-49020695D01*
X63731265Y-49381855D01*
X63549795Y-49818882D01*
X63370005Y-49383757D01*
X63008845Y-49021965D01*
X62536724Y-48825923D01*
X62025519Y-48825477D01*
X61553057Y-49020695D01*
X61191265Y-49381855D01*
X61009795Y-49818882D01*
X60830005Y-49383757D01*
X60468845Y-49021965D01*
X59996724Y-48825923D01*
X59485519Y-48825477D01*
X59013057Y-49020695D01*
X58651265Y-49381855D01*
X58469795Y-49818882D01*
X58290005Y-49383757D01*
X57928845Y-49021965D01*
X57456724Y-48825923D01*
X56945519Y-48825477D01*
X56473057Y-49020695D01*
X56111265Y-49381855D01*
X55929795Y-49818882D01*
X55750005Y-49383757D01*
X55388845Y-49021965D01*
X54916724Y-48825923D01*
X54405519Y-48825477D01*
X53933057Y-49020695D01*
X53571265Y-49381855D01*
X53389795Y-49818882D01*
X53210005Y-49383757D01*
X52848845Y-49021965D01*
X52376724Y-48825923D01*
X51865519Y-48825477D01*
X51393057Y-49020695D01*
X51031265Y-49381855D01*
X50849795Y-49818882D01*
X50670005Y-49383757D01*
X50308845Y-49021965D01*
X49836724Y-48825923D01*
X49325519Y-48825477D01*
X48853057Y-49020695D01*
X48491265Y-49381855D01*
X48309795Y-49818882D01*
X48130005Y-49383757D01*
X47768845Y-49021965D01*
X47296724Y-48825923D01*
X46785519Y-48825477D01*
X46313057Y-49020695D01*
X45951265Y-49381855D01*
X45769795Y-49818882D01*
X45590005Y-49383757D01*
X45228845Y-49021965D01*
X44756724Y-48825923D01*
X44245519Y-48825477D01*
X43773057Y-49020695D01*
X43411265Y-49381855D01*
X43229795Y-49818882D01*
X43050005Y-49383757D01*
X42688845Y-49021965D01*
X42216724Y-48825923D01*
X41705519Y-48825477D01*
X41233057Y-49020695D01*
X40871265Y-49381855D01*
X40689795Y-49818882D01*
X40510005Y-49383757D01*
X40148845Y-49021965D01*
X39676724Y-48825923D01*
X39165519Y-48825477D01*
X38693057Y-49020695D01*
X38331265Y-49381855D01*
X38149795Y-49818882D01*
X37970005Y-49383757D01*
X37608845Y-49021965D01*
X37136724Y-48825923D01*
X36625519Y-48825477D01*
X36153057Y-49020695D01*
X35791265Y-49381855D01*
X35609795Y-49818882D01*
X35430005Y-49383757D01*
X35068845Y-49021965D01*
X34596724Y-48825923D01*
X34085519Y-48825477D01*
X33680000Y-48993035D01*
X33680000Y-48485500D01*
X90743242Y-48485500D01*
X90110345Y-49117293D01*
X90110345Y-49117293D01*
G37*
X90110345Y-49117293D02*
X89703464Y-50097173D01*
X89702538Y-51158172D01*
X90107709Y-52138761D01*
X90857293Y-52889655D01*
X91837173Y-53296536D01*
X92898172Y-53297462D01*
X93878761Y-52892291D01*
X94399209Y-52372750D01*
X98688600Y-52372750D01*
X98688600Y-53420810D01*
X98785273Y-53654199D01*
X98963902Y-53832827D01*
X99197291Y-53929500D01*
X101577850Y-53929500D01*
X101736600Y-53770750D01*
X101736600Y-52214000D01*
X98847350Y-52214000D01*
X98688600Y-52372750D01*
X94399209Y-52372750D01*
X94629655Y-52142707D01*
X95036536Y-51162827D01*
X95036893Y-50753190D01*
X98688600Y-50753190D01*
X98688600Y-51801250D01*
X98847350Y-51960000D01*
X101736600Y-51960000D01*
X101736600Y-50403250D01*
X101577850Y-50244500D01*
X99197291Y-50244500D01*
X98963902Y-50341173D01*
X98785273Y-50519801D01*
X98688600Y-50753190D01*
X95036893Y-50753190D01*
X95037462Y-50101828D01*
X94632291Y-49121239D01*
X93997661Y-48485500D01*
X103850000Y-48485500D01*
X103850000Y-50244500D01*
X102149350Y-50244500D01*
X101990600Y-50403250D01*
X101990600Y-51960000D01*
X102010600Y-51960000D01*
X102010600Y-52214000D01*
X101990600Y-52214000D01*
X101990600Y-53770750D01*
X102149350Y-53929500D01*
X103850000Y-53929500D01*
X103850000Y-59010500D01*
X102149350Y-59010500D01*
X101990600Y-59169250D01*
X101990600Y-60726000D01*
X102010600Y-60726000D01*
X102010600Y-60980000D01*
X101990600Y-60980000D01*
X101990600Y-62536750D01*
X102149350Y-62695500D01*
X103850000Y-62695500D01*
X103850000Y-71460900D01*
X102089350Y-71460900D01*
X101930600Y-71619650D01*
X101930600Y-73176400D01*
X101950600Y-73176400D01*
X101950600Y-73430400D01*
X101930600Y-73430400D01*
X101930600Y-74987150D01*
X102089350Y-75145900D01*
X103850000Y-75145900D01*
X103850000Y-80226900D01*
X102089350Y-80226900D01*
X101930600Y-80385650D01*
X101930600Y-81942400D01*
X101950600Y-81942400D01*
X101950600Y-82196400D01*
X101930600Y-82196400D01*
X101930600Y-83753150D01*
X102089350Y-83911900D01*
X103850000Y-83911900D01*
X103850000Y-87260000D01*
X97731773Y-87260000D01*
X98069655Y-86922707D01*
X98476536Y-85942827D01*
X98477462Y-84881828D01*
X98072291Y-83901239D01*
X97322707Y-83150345D01*
X96342827Y-82743464D01*
X95281828Y-82742538D01*
X94301239Y-83147709D01*
X93550345Y-83897293D01*
X93143464Y-84877173D01*
X93142538Y-85938172D01*
X93547709Y-86918761D01*
X93888353Y-87260000D01*
X49221336Y-87260000D01*
X49809655Y-86672707D01*
X50082688Y-86015167D01*
X52174838Y-86015167D01*
X52316883Y-86358943D01*
X52579673Y-86622192D01*
X52923201Y-86764838D01*
X53295167Y-86765162D01*
X53638943Y-86623117D01*
X53902192Y-86360327D01*
X53950010Y-86245167D01*
X86884838Y-86245167D01*
X87026883Y-86588943D01*
X87289673Y-86852192D01*
X87633201Y-86994838D01*
X88005167Y-86995162D01*
X88348943Y-86853117D01*
X88612192Y-86590327D01*
X88754838Y-86246799D01*
X88755162Y-85874833D01*
X88613117Y-85531057D01*
X88350327Y-85267808D01*
X88006799Y-85125162D01*
X87634833Y-85124838D01*
X87291057Y-85266883D01*
X87027808Y-85529673D01*
X86885162Y-85873201D01*
X86884838Y-86245167D01*
X53950010Y-86245167D01*
X54044838Y-86016799D01*
X54045162Y-85644833D01*
X53903117Y-85301057D01*
X53640327Y-85037808D01*
X53296799Y-84895162D01*
X52924833Y-84894838D01*
X52581057Y-85036883D01*
X52317808Y-85299673D01*
X52175162Y-85643201D01*
X52174838Y-86015167D01*
X50082688Y-86015167D01*
X50216536Y-85692827D01*
X50217462Y-84631828D01*
X49812291Y-83651239D01*
X49062707Y-82900345D01*
X48082827Y-82493464D01*
X47021828Y-82492538D01*
X46041239Y-82897709D01*
X45290345Y-83647293D01*
X44883464Y-84627173D01*
X44882538Y-85688172D01*
X45287709Y-86668761D01*
X45877917Y-87260000D01*
X33680000Y-87260000D01*
X33680000Y-79219940D01*
X40793160Y-79219940D01*
X40793160Y-82720060D01*
X40837438Y-82955377D01*
X40976510Y-83171501D01*
X41188710Y-83316491D01*
X41440600Y-83367500D01*
X44940720Y-83367500D01*
X45176037Y-83323222D01*
X45392161Y-83184150D01*
X45537151Y-82971950D01*
X45588160Y-82720060D01*
X45588160Y-81335167D01*
X66844838Y-81335167D01*
X66986883Y-81678943D01*
X67249673Y-81942192D01*
X67593201Y-82084838D01*
X67965167Y-82085162D01*
X68308943Y-81943117D01*
X68346959Y-81905167D01*
X88524838Y-81905167D01*
X88666883Y-82248943D01*
X88929673Y-82512192D01*
X89273201Y-82654838D01*
X89645167Y-82655162D01*
X89988943Y-82513117D01*
X90147185Y-82355150D01*
X98628600Y-82355150D01*
X98628600Y-83403210D01*
X98725273Y-83636599D01*
X98903902Y-83815227D01*
X99137291Y-83911900D01*
X101517850Y-83911900D01*
X101676600Y-83753150D01*
X101676600Y-82196400D01*
X98787350Y-82196400D01*
X98628600Y-82355150D01*
X90147185Y-82355150D01*
X90252192Y-82250327D01*
X90394838Y-81906799D01*
X90395162Y-81534833D01*
X90253117Y-81191057D01*
X90047586Y-80985167D01*
X95184838Y-80985167D01*
X95326883Y-81328943D01*
X95589673Y-81592192D01*
X95933201Y-81734838D01*
X96305167Y-81735162D01*
X96648943Y-81593117D01*
X96912192Y-81330327D01*
X97054838Y-80986799D01*
X97055056Y-80735590D01*
X98628600Y-80735590D01*
X98628600Y-81783650D01*
X98787350Y-81942400D01*
X101676600Y-81942400D01*
X101676600Y-80385650D01*
X101517850Y-80226900D01*
X99137291Y-80226900D01*
X98903902Y-80323573D01*
X98725273Y-80502201D01*
X98628600Y-80735590D01*
X97055056Y-80735590D01*
X97055162Y-80614833D01*
X96913117Y-80271057D01*
X96650327Y-80007808D01*
X96306799Y-79865162D01*
X95934833Y-79864838D01*
X95591057Y-80006883D01*
X95327808Y-80269673D01*
X95185162Y-80613201D01*
X95184838Y-80985167D01*
X90047586Y-80985167D01*
X89990327Y-80927808D01*
X89646799Y-80785162D01*
X89274833Y-80784838D01*
X88931057Y-80926883D01*
X88667808Y-81189673D01*
X88525162Y-81533201D01*
X88524838Y-81905167D01*
X68346959Y-81905167D01*
X68572192Y-81680327D01*
X68714838Y-81336799D01*
X68715162Y-80964833D01*
X68573117Y-80621057D01*
X68310327Y-80357808D01*
X67966799Y-80215162D01*
X67594833Y-80214838D01*
X67251057Y-80356883D01*
X66987808Y-80619673D01*
X66845162Y-80963201D01*
X66844838Y-81335167D01*
X45588160Y-81335167D01*
X45588160Y-79219940D01*
X45543882Y-78984623D01*
X45404810Y-78768499D01*
X45192610Y-78623509D01*
X44940720Y-78572500D01*
X41440600Y-78572500D01*
X41205283Y-78616778D01*
X40989159Y-78755850D01*
X40844169Y-78968050D01*
X40793160Y-79219940D01*
X33680000Y-79219940D01*
X33680000Y-77135167D01*
X66454838Y-77135167D01*
X66596883Y-77478943D01*
X66859673Y-77742192D01*
X67203201Y-77884838D01*
X67575167Y-77885162D01*
X67918943Y-77743117D01*
X68182192Y-77480327D01*
X68324838Y-77136799D01*
X68325039Y-76905167D01*
X74254838Y-76905167D01*
X74396883Y-77248943D01*
X74659673Y-77512192D01*
X75003201Y-77654838D01*
X75375167Y-77655162D01*
X75718943Y-77513117D01*
X75982192Y-77250327D01*
X76124838Y-76906799D01*
X76125162Y-76534833D01*
X75983117Y-76191057D01*
X75720327Y-75927808D01*
X75376799Y-75785162D01*
X75004833Y-75784838D01*
X74661057Y-75926883D01*
X74397808Y-76189673D01*
X74255162Y-76533201D01*
X74254838Y-76905167D01*
X68325039Y-76905167D01*
X68325162Y-76764833D01*
X68183117Y-76421057D01*
X67920327Y-76157808D01*
X67576799Y-76015162D01*
X67204833Y-76014838D01*
X66861057Y-76156883D01*
X66597808Y-76419673D01*
X66455162Y-76763201D01*
X66454838Y-77135167D01*
X33680000Y-77135167D01*
X33680000Y-75023870D01*
X34093276Y-75195477D01*
X34604481Y-75195923D01*
X35076943Y-75000705D01*
X35438735Y-74639545D01*
X35620205Y-74202518D01*
X35799995Y-74637643D01*
X36161155Y-74999435D01*
X36633276Y-75195477D01*
X37144481Y-75195923D01*
X37616943Y-75000705D01*
X37978735Y-74639545D01*
X38160205Y-74202518D01*
X38339995Y-74637643D01*
X38701155Y-74999435D01*
X39173276Y-75195477D01*
X39684481Y-75195923D01*
X40156943Y-75000705D01*
X40518735Y-74639545D01*
X40700205Y-74202518D01*
X40879995Y-74637643D01*
X41241155Y-74999435D01*
X41713276Y-75195477D01*
X42224481Y-75195923D01*
X42696943Y-75000705D01*
X43058735Y-74639545D01*
X43240205Y-74202518D01*
X43419995Y-74637643D01*
X43781155Y-74999435D01*
X44253276Y-75195477D01*
X44764481Y-75195923D01*
X45236943Y-75000705D01*
X45598735Y-74639545D01*
X45780205Y-74202518D01*
X45959995Y-74637643D01*
X46321155Y-74999435D01*
X46793276Y-75195477D01*
X47304481Y-75195923D01*
X47776943Y-75000705D01*
X48138735Y-74639545D01*
X48320205Y-74202518D01*
X48499995Y-74637643D01*
X48861155Y-74999435D01*
X49333276Y-75195477D01*
X49844481Y-75195923D01*
X50316943Y-75000705D01*
X50678735Y-74639545D01*
X50860205Y-74202518D01*
X51039995Y-74637643D01*
X51401155Y-74999435D01*
X51873276Y-75195477D01*
X52384481Y-75195923D01*
X52856943Y-75000705D01*
X53218735Y-74639545D01*
X53400205Y-74202518D01*
X53579995Y-74637643D01*
X53941155Y-74999435D01*
X54413276Y-75195477D01*
X54924481Y-75195923D01*
X55396943Y-75000705D01*
X55758735Y-74639545D01*
X55940205Y-74202518D01*
X56119995Y-74637643D01*
X56481155Y-74999435D01*
X56953276Y-75195477D01*
X57464481Y-75195923D01*
X57936943Y-75000705D01*
X58298735Y-74639545D01*
X58480205Y-74202518D01*
X58659995Y-74637643D01*
X59021155Y-74999435D01*
X59493276Y-75195477D01*
X60004481Y-75195923D01*
X60476943Y-75000705D01*
X60838735Y-74639545D01*
X61020205Y-74202518D01*
X61199995Y-74637643D01*
X61561155Y-74999435D01*
X62033276Y-75195477D01*
X62544481Y-75195923D01*
X63016943Y-75000705D01*
X63378735Y-74639545D01*
X63560205Y-74202518D01*
X63739995Y-74637643D01*
X64101155Y-74999435D01*
X64573276Y-75195477D01*
X65084481Y-75195923D01*
X65556943Y-75000705D01*
X65918735Y-74639545D01*
X66100205Y-74202518D01*
X66279995Y-74637643D01*
X66641155Y-74999435D01*
X67113276Y-75195477D01*
X67624481Y-75195923D01*
X68096943Y-75000705D01*
X68458735Y-74639545D01*
X68640205Y-74202518D01*
X68819995Y-74637643D01*
X69181155Y-74999435D01*
X69653276Y-75195477D01*
X70164481Y-75195923D01*
X70636943Y-75000705D01*
X70998735Y-74639545D01*
X71180205Y-74202518D01*
X71359995Y-74637643D01*
X71721155Y-74999435D01*
X72193276Y-75195477D01*
X72704481Y-75195923D01*
X73176943Y-75000705D01*
X73538735Y-74639545D01*
X73720205Y-74202518D01*
X73899995Y-74637643D01*
X74261155Y-74999435D01*
X74733276Y-75195477D01*
X75244481Y-75195923D01*
X75716943Y-75000705D01*
X76078735Y-74639545D01*
X76260205Y-74202518D01*
X76439995Y-74637643D01*
X76801155Y-74999435D01*
X77273276Y-75195477D01*
X77784481Y-75195923D01*
X78256943Y-75000705D01*
X78618735Y-74639545D01*
X78800205Y-74202518D01*
X78979995Y-74637643D01*
X79341155Y-74999435D01*
X79813276Y-75195477D01*
X80324481Y-75195923D01*
X80796943Y-75000705D01*
X81158735Y-74639545D01*
X81340205Y-74202518D01*
X81519995Y-74637643D01*
X81881155Y-74999435D01*
X82353276Y-75195477D01*
X82864481Y-75195923D01*
X83336943Y-75000705D01*
X83698735Y-74639545D01*
X83880205Y-74202518D01*
X84059995Y-74637643D01*
X84421155Y-74999435D01*
X84893276Y-75195477D01*
X85404481Y-75195923D01*
X85876943Y-75000705D01*
X86238735Y-74639545D01*
X86420205Y-74202518D01*
X86599995Y-74637643D01*
X86961155Y-74999435D01*
X87433276Y-75195477D01*
X87944481Y-75195923D01*
X88416943Y-75000705D01*
X88431924Y-74985750D01*
X89650000Y-74985750D01*
X89650000Y-75326309D01*
X89746673Y-75559698D01*
X89925301Y-75738327D01*
X90158690Y-75835000D01*
X90624250Y-75835000D01*
X90783000Y-75676250D01*
X90783000Y-74827000D01*
X91037000Y-74827000D01*
X91037000Y-75676250D01*
X91195750Y-75835000D01*
X91661310Y-75835000D01*
X91894699Y-75738327D01*
X92073327Y-75559698D01*
X92170000Y-75326309D01*
X92170000Y-74985750D01*
X92011250Y-74827000D01*
X91037000Y-74827000D01*
X90783000Y-74827000D01*
X89808750Y-74827000D01*
X89650000Y-74985750D01*
X88431924Y-74985750D01*
X88778735Y-74639545D01*
X88974777Y-74167424D01*
X88975223Y-73656219D01*
X88780005Y-73183757D01*
X88418845Y-72821965D01*
X87946724Y-72625923D01*
X87435519Y-72625477D01*
X86963057Y-72820695D01*
X86601265Y-73181855D01*
X86419795Y-73618882D01*
X86240005Y-73183757D01*
X85878845Y-72821965D01*
X85406724Y-72625923D01*
X84895519Y-72625477D01*
X84423057Y-72820695D01*
X84061265Y-73181855D01*
X83879795Y-73618882D01*
X83700005Y-73183757D01*
X83338845Y-72821965D01*
X82866724Y-72625923D01*
X82355519Y-72625477D01*
X81883057Y-72820695D01*
X81521265Y-73181855D01*
X81339795Y-73618882D01*
X81160005Y-73183757D01*
X80798845Y-72821965D01*
X80326724Y-72625923D01*
X79815519Y-72625477D01*
X79343057Y-72820695D01*
X78981265Y-73181855D01*
X78799795Y-73618882D01*
X78620005Y-73183757D01*
X78258845Y-72821965D01*
X77786724Y-72625923D01*
X77275519Y-72625477D01*
X76803057Y-72820695D01*
X76441265Y-73181855D01*
X76259795Y-73618882D01*
X76080005Y-73183757D01*
X75718845Y-72821965D01*
X75246724Y-72625923D01*
X74735519Y-72625477D01*
X74263057Y-72820695D01*
X73901265Y-73181855D01*
X73719795Y-73618882D01*
X73540005Y-73183757D01*
X73178845Y-72821965D01*
X72706724Y-72625923D01*
X72195519Y-72625477D01*
X71723057Y-72820695D01*
X71361265Y-73181855D01*
X71179795Y-73618882D01*
X71000005Y-73183757D01*
X70638845Y-72821965D01*
X70166724Y-72625923D01*
X69655519Y-72625477D01*
X69183057Y-72820695D01*
X68821265Y-73181855D01*
X68639795Y-73618882D01*
X68460005Y-73183757D01*
X68098845Y-72821965D01*
X67626724Y-72625923D01*
X67115519Y-72625477D01*
X66643057Y-72820695D01*
X66281265Y-73181855D01*
X66099795Y-73618882D01*
X65920005Y-73183757D01*
X65558845Y-72821965D01*
X65086724Y-72625923D01*
X64575519Y-72625477D01*
X64103057Y-72820695D01*
X63741265Y-73181855D01*
X63559795Y-73618882D01*
X63380005Y-73183757D01*
X63018845Y-72821965D01*
X62546724Y-72625923D01*
X62035519Y-72625477D01*
X61563057Y-72820695D01*
X61201265Y-73181855D01*
X61019795Y-73618882D01*
X60840005Y-73183757D01*
X60478845Y-72821965D01*
X60006724Y-72625923D01*
X59495519Y-72625477D01*
X59023057Y-72820695D01*
X58661265Y-73181855D01*
X58479795Y-73618882D01*
X58300005Y-73183757D01*
X57938845Y-72821965D01*
X57466724Y-72625923D01*
X56955519Y-72625477D01*
X56483057Y-72820695D01*
X56121265Y-73181855D01*
X55939795Y-73618882D01*
X55760005Y-73183757D01*
X55398845Y-72821965D01*
X54926724Y-72625923D01*
X54415519Y-72625477D01*
X53943057Y-72820695D01*
X53581265Y-73181855D01*
X53399795Y-73618882D01*
X53220005Y-73183757D01*
X52858845Y-72821965D01*
X52386724Y-72625923D01*
X51875519Y-72625477D01*
X51403057Y-72820695D01*
X51041265Y-73181855D01*
X50859795Y-73618882D01*
X50680005Y-73183757D01*
X50318845Y-72821965D01*
X49846724Y-72625923D01*
X49335519Y-72625477D01*
X48863057Y-72820695D01*
X48501265Y-73181855D01*
X48319795Y-73618882D01*
X48140005Y-73183757D01*
X47778845Y-72821965D01*
X47306724Y-72625923D01*
X46795519Y-72625477D01*
X46323057Y-72820695D01*
X45961265Y-73181855D01*
X45779795Y-73618882D01*
X45600005Y-73183757D01*
X45238845Y-72821965D01*
X44766724Y-72625923D01*
X44255519Y-72625477D01*
X43783057Y-72820695D01*
X43421265Y-73181855D01*
X43239795Y-73618882D01*
X43060005Y-73183757D01*
X42698845Y-72821965D01*
X42226724Y-72625923D01*
X41715519Y-72625477D01*
X41243057Y-72820695D01*
X40881265Y-73181855D01*
X40699795Y-73618882D01*
X40520005Y-73183757D01*
X40158845Y-72821965D01*
X39686724Y-72625923D01*
X39175519Y-72625477D01*
X38703057Y-72820695D01*
X38341265Y-73181855D01*
X38159795Y-73618882D01*
X37980005Y-73183757D01*
X37618845Y-72821965D01*
X37146724Y-72625923D01*
X36635519Y-72625477D01*
X36163057Y-72820695D01*
X35801265Y-73181855D01*
X35619795Y-73618882D01*
X35440005Y-73183757D01*
X35175000Y-72918288D01*
X35175000Y-72200000D01*
X89637560Y-72200000D01*
X89637560Y-73200000D01*
X89681838Y-73435317D01*
X89820910Y-73651441D01*
X89889006Y-73697969D01*
X89746673Y-73840302D01*
X89650000Y-74073691D01*
X89650000Y-74414250D01*
X89808750Y-74573000D01*
X90783000Y-74573000D01*
X90783000Y-74553000D01*
X91037000Y-74553000D01*
X91037000Y-74573000D01*
X92011250Y-74573000D01*
X92170000Y-74414250D01*
X92170000Y-74073691D01*
X92073327Y-73840302D01*
X91932090Y-73699064D01*
X91986441Y-73664090D01*
X92037645Y-73589150D01*
X98628600Y-73589150D01*
X98628600Y-74637210D01*
X98725273Y-74870599D01*
X98903902Y-75049227D01*
X99137291Y-75145900D01*
X101517850Y-75145900D01*
X101676600Y-74987150D01*
X101676600Y-73430400D01*
X98787350Y-73430400D01*
X98628600Y-73589150D01*
X92037645Y-73589150D01*
X92131431Y-73451890D01*
X92182440Y-73200000D01*
X92182440Y-72200000D01*
X92139086Y-71969590D01*
X98628600Y-71969590D01*
X98628600Y-73017650D01*
X98787350Y-73176400D01*
X101676600Y-73176400D01*
X101676600Y-71619650D01*
X101517850Y-71460900D01*
X99137291Y-71460900D01*
X98903902Y-71557573D01*
X98725273Y-71736201D01*
X98628600Y-71969590D01*
X92139086Y-71969590D01*
X92138162Y-71964683D01*
X91999090Y-71748559D01*
X91817629Y-71624572D01*
X91874838Y-71486799D01*
X91875162Y-71114833D01*
X91733117Y-70771057D01*
X91470327Y-70507808D01*
X91126799Y-70365162D01*
X90754833Y-70364838D01*
X90411057Y-70506883D01*
X90147808Y-70769673D01*
X90005162Y-71113201D01*
X90004838Y-71485167D01*
X90050886Y-71596612D01*
X90049683Y-71596838D01*
X89833559Y-71735910D01*
X89688569Y-71948110D01*
X89637560Y-72200000D01*
X35175000Y-72200000D01*
X35175000Y-69904089D01*
X39674743Y-69904089D01*
X39900344Y-70450086D01*
X40317717Y-70868188D01*
X40863319Y-71094742D01*
X41454089Y-71095257D01*
X42000086Y-70869656D01*
X42418188Y-70452283D01*
X42429748Y-70424443D01*
X42440344Y-70450086D01*
X42857717Y-70868188D01*
X43403319Y-71094742D01*
X43994089Y-71095257D01*
X44540086Y-70869656D01*
X44958188Y-70452283D01*
X44969748Y-70424443D01*
X44980344Y-70450086D01*
X45397717Y-70868188D01*
X45943319Y-71094742D01*
X46534089Y-71095257D01*
X47080086Y-70869656D01*
X47498188Y-70452283D01*
X47724742Y-69906681D01*
X47725118Y-69475167D01*
X63824838Y-69475167D01*
X63966883Y-69818943D01*
X64229673Y-70082192D01*
X64573201Y-70224838D01*
X64945167Y-70225162D01*
X65288943Y-70083117D01*
X65552192Y-69820327D01*
X65694838Y-69476799D01*
X65695162Y-69104833D01*
X65553117Y-68761057D01*
X65317639Y-68525167D01*
X68494838Y-68525167D01*
X68636883Y-68868943D01*
X68899673Y-69132192D01*
X69243201Y-69274838D01*
X69615167Y-69275162D01*
X69958943Y-69133117D01*
X70222192Y-68870327D01*
X70364838Y-68526799D01*
X70365162Y-68154833D01*
X70223117Y-67811057D01*
X69960327Y-67547808D01*
X69616799Y-67405162D01*
X69244833Y-67404838D01*
X68901057Y-67546883D01*
X68637808Y-67809673D01*
X68495162Y-68153201D01*
X68494838Y-68525167D01*
X65317639Y-68525167D01*
X65290327Y-68497808D01*
X64946799Y-68355162D01*
X64574833Y-68354838D01*
X64231057Y-68496883D01*
X63967808Y-68759673D01*
X63825162Y-69103201D01*
X63824838Y-69475167D01*
X47725118Y-69475167D01*
X47725257Y-69315911D01*
X47499656Y-68769914D01*
X47082283Y-68351812D01*
X46536681Y-68125258D01*
X45945911Y-68124743D01*
X45399914Y-68350344D01*
X44981812Y-68767717D01*
X44970252Y-68795557D01*
X44959656Y-68769914D01*
X44542283Y-68351812D01*
X43996681Y-68125258D01*
X43405911Y-68124743D01*
X42859914Y-68350344D01*
X42441812Y-68767717D01*
X42430252Y-68795557D01*
X42419656Y-68769914D01*
X42002283Y-68351812D01*
X41456681Y-68125258D01*
X40865911Y-68124743D01*
X40319914Y-68350344D01*
X39901812Y-68767717D01*
X39675258Y-69313319D01*
X39674743Y-69904089D01*
X35175000Y-69904089D01*
X35175000Y-69706580D01*
X36246412Y-68635167D01*
X37284838Y-68635167D01*
X37426883Y-68978943D01*
X37689673Y-69242192D01*
X38033201Y-69384838D01*
X38405167Y-69385162D01*
X38748943Y-69243117D01*
X39012192Y-68980327D01*
X39154838Y-68636799D01*
X39155162Y-68264833D01*
X39013117Y-67921057D01*
X38750327Y-67657808D01*
X38406799Y-67515162D01*
X38034833Y-67514838D01*
X37691057Y-67656883D01*
X37427808Y-67919673D01*
X37285162Y-68263201D01*
X37284838Y-68635167D01*
X36246412Y-68635167D01*
X36638834Y-68242745D01*
X36758943Y-68193117D01*
X37022192Y-67930327D01*
X37164838Y-67586799D01*
X37165162Y-67214833D01*
X37023117Y-66871057D01*
X36760327Y-66607808D01*
X36416799Y-66465162D01*
X36044833Y-66464838D01*
X35701057Y-66606883D01*
X35437808Y-66869673D01*
X35387434Y-66990987D01*
X33680000Y-68698420D01*
X33680000Y-62055167D01*
X37734838Y-62055167D01*
X37876883Y-62398943D01*
X38139673Y-62662192D01*
X38483201Y-62804838D01*
X38855167Y-62805162D01*
X39198943Y-62663117D01*
X39462192Y-62400327D01*
X39604838Y-62056799D01*
X39605162Y-61684833D01*
X39463117Y-61341057D01*
X39200327Y-61077808D01*
X38856799Y-60935162D01*
X38484833Y-60934838D01*
X38141057Y-61076883D01*
X37877808Y-61339673D01*
X37735162Y-61683201D01*
X37734838Y-62055167D01*
X33680000Y-62055167D01*
X33680000Y-55184089D01*
X35184743Y-55184089D01*
X35410344Y-55730086D01*
X35827717Y-56148188D01*
X35855557Y-56159748D01*
X35829914Y-56170344D01*
X35411812Y-56587717D01*
X35185258Y-57133319D01*
X35184743Y-57724089D01*
X35410344Y-58270086D01*
X35827717Y-58688188D01*
X35855557Y-58699748D01*
X35829914Y-58710344D01*
X35411812Y-59127717D01*
X35185258Y-59673319D01*
X35184743Y-60264089D01*
X35410344Y-60810086D01*
X35827717Y-61228188D01*
X36373319Y-61454742D01*
X36964089Y-61455257D01*
X37510086Y-61229656D01*
X37928188Y-60812283D01*
X38154742Y-60266681D01*
X38155257Y-59675911D01*
X38055784Y-59435167D01*
X40174838Y-59435167D01*
X40316883Y-59778943D01*
X40579673Y-60042192D01*
X40923201Y-60184838D01*
X41295167Y-60185162D01*
X41638943Y-60043117D01*
X41902192Y-59780327D01*
X42044838Y-59436799D01*
X42045162Y-59064833D01*
X41903117Y-58721057D01*
X41640327Y-58457808D01*
X41296799Y-58315162D01*
X40924833Y-58314838D01*
X40581057Y-58456883D01*
X40317808Y-58719673D01*
X40175162Y-59063201D01*
X40174838Y-59435167D01*
X38055784Y-59435167D01*
X37929656Y-59129914D01*
X37512283Y-58711812D01*
X37484443Y-58700252D01*
X37510086Y-58689656D01*
X37928188Y-58272283D01*
X38154742Y-57726681D01*
X38155257Y-57135911D01*
X37929656Y-56589914D01*
X37512283Y-56171812D01*
X37484443Y-56160252D01*
X37510086Y-56149656D01*
X37571677Y-56088172D01*
X38182538Y-56088172D01*
X38587709Y-57068761D01*
X39337293Y-57819655D01*
X40317173Y-58226536D01*
X41378172Y-58227462D01*
X42358761Y-57822291D01*
X43109655Y-57072707D01*
X43516536Y-56092827D01*
X43517462Y-55031828D01*
X43112291Y-54051239D01*
X42362707Y-53300345D01*
X41382827Y-52893464D01*
X40321828Y-52892538D01*
X39341239Y-53297709D01*
X38590345Y-54047293D01*
X38183464Y-55027173D01*
X38182538Y-56088172D01*
X37571677Y-56088172D01*
X37928188Y-55732283D01*
X38154742Y-55186681D01*
X38155257Y-54595911D01*
X37929656Y-54049914D01*
X37512283Y-53631812D01*
X36966681Y-53405258D01*
X36375911Y-53404743D01*
X35829914Y-53630344D01*
X35411812Y-54047717D01*
X35185258Y-54593319D01*
X35184743Y-55184089D01*
X33680000Y-55184089D01*
X33680000Y-51228022D01*
X34083276Y-51395477D01*
X34594481Y-51395923D01*
X35066943Y-51200705D01*
X35428735Y-50839545D01*
X35610205Y-50402518D01*
X35789995Y-50837643D01*
X36151155Y-51199435D01*
X36623276Y-51395477D01*
X37134481Y-51395923D01*
X37606943Y-51200705D01*
X37968735Y-50839545D01*
X38150205Y-50402518D01*
X38329995Y-50837643D01*
X38691155Y-51199435D01*
X39163276Y-51395477D01*
X39674481Y-51395923D01*
X40146943Y-51200705D01*
X40508735Y-50839545D01*
X40690205Y-50402518D01*
X40869995Y-50837643D01*
X41231155Y-51199435D01*
X41703276Y-51395477D01*
X42214481Y-51395923D01*
X42686943Y-51200705D01*
X43048735Y-50839545D01*
X43230205Y-50402518D01*
X43409995Y-50837643D01*
X43771155Y-51199435D01*
X44243276Y-51395477D01*
X44754481Y-51395923D01*
X45226943Y-51200705D01*
X45588735Y-50839545D01*
X45770205Y-50402518D01*
X45949995Y-50837643D01*
X46311155Y-51199435D01*
X46783276Y-51395477D01*
X47294481Y-51395923D01*
X47766943Y-51200705D01*
X48128735Y-50839545D01*
X48310205Y-50402518D01*
X48489995Y-50837643D01*
X48851155Y-51199435D01*
X49323276Y-51395477D01*
X49834481Y-51395923D01*
X50306943Y-51200705D01*
X50668735Y-50839545D01*
X50850205Y-50402518D01*
X51029995Y-50837643D01*
X51391155Y-51199435D01*
X51863276Y-51395477D01*
X52374481Y-51395923D01*
X52846943Y-51200705D01*
X53208735Y-50839545D01*
X53390205Y-50402518D01*
X53569995Y-50837643D01*
X53931155Y-51199435D01*
X54403276Y-51395477D01*
X54914481Y-51395923D01*
X55386943Y-51200705D01*
X55748735Y-50839545D01*
X55930205Y-50402518D01*
X56109995Y-50837643D01*
X56471155Y-51199435D01*
X56943276Y-51395477D01*
X57454481Y-51395923D01*
X57926943Y-51200705D01*
X58288735Y-50839545D01*
X58470205Y-50402518D01*
X58649995Y-50837643D01*
X59011155Y-51199435D01*
X59483276Y-51395477D01*
X59619602Y-51395596D01*
X58132599Y-52882599D01*
X57967852Y-53129161D01*
X57910000Y-53420000D01*
X57910000Y-59434843D01*
X57904833Y-59434838D01*
X57764761Y-59492715D01*
X53189129Y-59605000D01*
X48836580Y-59605000D01*
X48685790Y-59454210D01*
X48679624Y-59450090D01*
X48675402Y-59443991D01*
X48536256Y-59354295D01*
X48398674Y-59262367D01*
X48391402Y-59260920D01*
X48385168Y-59256902D01*
X48222359Y-59227295D01*
X48060000Y-59194999D01*
X48052723Y-59196446D01*
X48045429Y-59195120D01*
X47343588Y-59206677D01*
X47336500Y-59205480D01*
X47226501Y-59208675D01*
X47222850Y-59209512D01*
X47219151Y-59208919D01*
X46236957Y-59245617D01*
X46189633Y-59256882D01*
X46141048Y-59254445D01*
X46022980Y-59296553D01*
X45901033Y-59325582D01*
X45861621Y-59354101D01*
X45815804Y-59370441D01*
X44387376Y-60224602D01*
X44692060Y-59919918D01*
X44998943Y-59793117D01*
X45262192Y-59530327D01*
X45404838Y-59186799D01*
X45405162Y-58814833D01*
X45355000Y-58693431D01*
X45355000Y-57954988D01*
X45555167Y-57955162D01*
X45898943Y-57813117D01*
X46162192Y-57550327D01*
X46304838Y-57206799D01*
X46305162Y-56834833D01*
X46163117Y-56491057D01*
X45900327Y-56227808D01*
X45556799Y-56085162D01*
X45355000Y-56084986D01*
X45355000Y-55186580D01*
X45948835Y-54592745D01*
X46068943Y-54543117D01*
X46332192Y-54280327D01*
X46474838Y-53936799D01*
X46475162Y-53564833D01*
X46333117Y-53221057D01*
X46070327Y-52957808D01*
X45726799Y-52815162D01*
X45354833Y-52814838D01*
X45011057Y-52956883D01*
X44747808Y-53219673D01*
X44697434Y-53340987D01*
X43844210Y-54194210D01*
X43652367Y-54481325D01*
X43652367Y-54481326D01*
X43584999Y-54820000D01*
X43585000Y-54820005D01*
X43585000Y-58693178D01*
X43549606Y-58778416D01*
X42879011Y-59449011D01*
X42807851Y-59555509D01*
X42728975Y-59656434D01*
X42720849Y-59685717D01*
X42703967Y-59710983D01*
X42678978Y-59836610D01*
X42644730Y-59960033D01*
X42566525Y-61010212D01*
X42404133Y-61009170D01*
X42248103Y-61039167D01*
X42091217Y-61064195D01*
X42079054Y-61071667D01*
X42065032Y-61074363D01*
X41932358Y-61161787D01*
X41796992Y-61244946D01*
X41788613Y-61256505D01*
X41776693Y-61264360D01*
X41687592Y-61395875D01*
X41594336Y-61524533D01*
X41591018Y-61538422D01*
X41583012Y-61550239D01*
X41551020Y-61705846D01*
X41514099Y-61860392D01*
X41419344Y-64342540D01*
X41422046Y-64359475D01*
X41418699Y-64376300D01*
X41449155Y-64529409D01*
X41473743Y-64683538D01*
X41482721Y-64698152D01*
X41486067Y-64714974D01*
X41572786Y-64844759D01*
X41654494Y-64977763D01*
X41668381Y-64987829D01*
X41677910Y-65002090D01*
X42606196Y-65930376D01*
X42563033Y-65930338D01*
X42219257Y-66072383D01*
X41956008Y-66335173D01*
X41813362Y-66678701D01*
X41813038Y-67050667D01*
X41955083Y-67394443D01*
X42217873Y-67657692D01*
X42561401Y-67800338D01*
X42933367Y-67800662D01*
X43277143Y-67658617D01*
X43540392Y-67395827D01*
X43675518Y-67070410D01*
X43805373Y-67200492D01*
X44148901Y-67343138D01*
X44520867Y-67343462D01*
X44642269Y-67293300D01*
X46240695Y-67293300D01*
X46240700Y-67293301D01*
X46523184Y-67237110D01*
X46579375Y-67225933D01*
X46866490Y-67034090D01*
X48047340Y-65853240D01*
X48086883Y-65948943D01*
X48349673Y-66212192D01*
X48693201Y-66354838D01*
X49065167Y-66355162D01*
X49408943Y-66213117D01*
X49429297Y-66192798D01*
X49589632Y-66259375D01*
X49696883Y-66518943D01*
X49959673Y-66782192D01*
X50282463Y-66916227D01*
X50386883Y-67168943D01*
X50649673Y-67432192D01*
X50993201Y-67574838D01*
X51365167Y-67575162D01*
X51708943Y-67433117D01*
X51742118Y-67400000D01*
X52485130Y-67400000D01*
X52484838Y-67735167D01*
X52626883Y-68078943D01*
X52889673Y-68342192D01*
X53233201Y-68484838D01*
X53605167Y-68485162D01*
X53948943Y-68343117D01*
X54212192Y-68080327D01*
X54354838Y-67736799D01*
X54355131Y-67400000D01*
X55930000Y-67400000D01*
X56220839Y-67342148D01*
X56351015Y-67255167D01*
X72674838Y-67255167D01*
X72816883Y-67598943D01*
X73079673Y-67862192D01*
X73423201Y-68004838D01*
X73795167Y-68005162D01*
X74138943Y-67863117D01*
X74402192Y-67600327D01*
X74544838Y-67256799D01*
X74545162Y-66884833D01*
X74403117Y-66541057D01*
X74140327Y-66277808D01*
X73796799Y-66135162D01*
X73424833Y-66134838D01*
X73081057Y-66276883D01*
X72817808Y-66539673D01*
X72675162Y-66883201D01*
X72674838Y-67255167D01*
X56351015Y-67255167D01*
X56467401Y-67177401D01*
X61239635Y-62405167D01*
X65144838Y-62405167D01*
X65286883Y-62748943D01*
X65549673Y-63012192D01*
X65893201Y-63154838D01*
X66265167Y-63155162D01*
X66608943Y-63013117D01*
X66872192Y-62750327D01*
X67014838Y-62406799D01*
X67015162Y-62034833D01*
X66873117Y-61691057D01*
X66610327Y-61427808D01*
X66266799Y-61285162D01*
X65894833Y-61284838D01*
X65551057Y-61426883D01*
X65287808Y-61689673D01*
X65145162Y-62033201D01*
X65144838Y-62405167D01*
X61239635Y-62405167D01*
X62027401Y-61617401D01*
X62192148Y-61370840D01*
X62205212Y-61305162D01*
X62250000Y-61080000D01*
X62250000Y-58804802D01*
X62404802Y-58650000D01*
X74440000Y-58650000D01*
X74730839Y-58592148D01*
X74977401Y-58427401D01*
X76627401Y-56777401D01*
X76792148Y-56530840D01*
X76850000Y-56240000D01*
X76850000Y-55775750D01*
X79305000Y-55775750D01*
X79305000Y-56241310D01*
X79401673Y-56474699D01*
X79580302Y-56653327D01*
X79813691Y-56750000D01*
X80154250Y-56750000D01*
X80313000Y-56591250D01*
X80313000Y-55617000D01*
X79463750Y-55617000D01*
X79305000Y-55775750D01*
X76850000Y-55775750D01*
X76850000Y-54184802D01*
X76909052Y-54125750D01*
X79275000Y-54125750D01*
X79275000Y-54591310D01*
X79320523Y-54701213D01*
X79305000Y-54738690D01*
X79305000Y-55204250D01*
X79463750Y-55363000D01*
X80313000Y-55363000D01*
X80313000Y-54388750D01*
X80283000Y-54358750D01*
X80283000Y-53967000D01*
X79433750Y-53967000D01*
X79275000Y-54125750D01*
X76909052Y-54125750D01*
X77946112Y-53088690D01*
X79275000Y-53088690D01*
X79275000Y-53554250D01*
X79433750Y-53713000D01*
X80283000Y-53713000D01*
X80283000Y-52738750D01*
X80537000Y-52738750D01*
X80537000Y-53713000D01*
X80557000Y-53713000D01*
X80557000Y-53967000D01*
X80537000Y-53967000D01*
X80537000Y-54941250D01*
X80567000Y-54971250D01*
X80567000Y-55363000D01*
X80587000Y-55363000D01*
X80587000Y-55617000D01*
X80567000Y-55617000D01*
X80567000Y-56591250D01*
X80725750Y-56750000D01*
X81066309Y-56750000D01*
X81299698Y-56653327D01*
X81440936Y-56512090D01*
X81475910Y-56566441D01*
X81555949Y-56621130D01*
X81571945Y-56666315D01*
X83171945Y-59356315D01*
X83228500Y-59419138D01*
X83269522Y-59493041D01*
X83359079Y-59564192D01*
X83435607Y-59649202D01*
X83511895Y-59685599D01*
X83578079Y-59738181D01*
X83739461Y-59821177D01*
X83790120Y-63105577D01*
X83829932Y-63290752D01*
X83866882Y-63476510D01*
X83871287Y-63483103D01*
X83872954Y-63490855D01*
X83980604Y-63646707D01*
X84085822Y-63804178D01*
X84092414Y-63808582D01*
X84096921Y-63815108D01*
X84256027Y-63917905D01*
X84413490Y-64023118D01*
X84421267Y-64024665D01*
X84427927Y-64028968D01*
X84614239Y-64063050D01*
X84800000Y-64100000D01*
X84830000Y-64100000D01*
X85216510Y-64023118D01*
X85367703Y-63922095D01*
X85395822Y-63964178D01*
X85455822Y-64024178D01*
X85783490Y-64243118D01*
X86170000Y-64320000D01*
X86556510Y-64243118D01*
X86884178Y-64024178D01*
X87103118Y-63696510D01*
X87180000Y-63310000D01*
X87120000Y-63008361D01*
X87120000Y-62455600D01*
X87293118Y-62196510D01*
X87370000Y-61810000D01*
X87370000Y-61138750D01*
X98688600Y-61138750D01*
X98688600Y-62186810D01*
X98785273Y-62420199D01*
X98963902Y-62598827D01*
X99197291Y-62695500D01*
X101577850Y-62695500D01*
X101736600Y-62536750D01*
X101736600Y-60980000D01*
X98847350Y-60980000D01*
X98688600Y-61138750D01*
X87370000Y-61138750D01*
X87370000Y-59519190D01*
X98688600Y-59519190D01*
X98688600Y-60567250D01*
X98847350Y-60726000D01*
X101736600Y-60726000D01*
X101736600Y-59169250D01*
X101577850Y-59010500D01*
X99197291Y-59010500D01*
X98963902Y-59107173D01*
X98785273Y-59285801D01*
X98688600Y-59519190D01*
X87370000Y-59519190D01*
X87370000Y-56413386D01*
X87456431Y-56286890D01*
X87507440Y-56035000D01*
X87507440Y-54785000D01*
X87463162Y-54549683D01*
X87448751Y-54527288D01*
X87467440Y-54435000D01*
X87467440Y-53185000D01*
X87423162Y-52949683D01*
X87330000Y-52804905D01*
X87330000Y-52340005D01*
X87330001Y-52340000D01*
X87253118Y-51953490D01*
X87034178Y-51625822D01*
X86994178Y-51585822D01*
X86666510Y-51366882D01*
X86280000Y-51290000D01*
X85893490Y-51366882D01*
X85565822Y-51585822D01*
X85346882Y-51913490D01*
X85270000Y-52300000D01*
X85310000Y-52501093D01*
X85310000Y-52776974D01*
X85179698Y-52646673D01*
X84946309Y-52550000D01*
X84605750Y-52550000D01*
X84447000Y-52708750D01*
X84447000Y-53683000D01*
X84467000Y-53683000D01*
X84467000Y-53937000D01*
X84447000Y-53937000D01*
X84447000Y-54911250D01*
X84487000Y-54951250D01*
X84487000Y-55283000D01*
X84507000Y-55283000D01*
X84507000Y-55537000D01*
X84487000Y-55537000D01*
X84487000Y-56511250D01*
X84645750Y-56670000D01*
X84986309Y-56670000D01*
X85219698Y-56573327D01*
X85350000Y-56443026D01*
X85350000Y-58414755D01*
X85318273Y-58394256D01*
X85201922Y-58301819D01*
X84759809Y-58074447D01*
X83924451Y-56670000D01*
X84074250Y-56670000D01*
X84233000Y-56511250D01*
X84233000Y-55537000D01*
X84213000Y-55537000D01*
X84213000Y-55283000D01*
X84233000Y-55283000D01*
X84233000Y-54308750D01*
X84193000Y-54268750D01*
X84193000Y-53937000D01*
X84173000Y-53937000D01*
X84173000Y-53683000D01*
X84193000Y-53683000D01*
X84193000Y-52708750D01*
X84034250Y-52550000D01*
X83693691Y-52550000D01*
X83460302Y-52646673D01*
X83420000Y-52686975D01*
X83420000Y-52641095D01*
X83460001Y-52440000D01*
X83383118Y-52053489D01*
X83164178Y-51725822D01*
X82836511Y-51506882D01*
X82450000Y-51429999D01*
X82063490Y-51506882D01*
X81735822Y-51725822D01*
X81695822Y-51765822D01*
X81476882Y-52093490D01*
X81400000Y-52480000D01*
X81400000Y-52806974D01*
X81269698Y-52676673D01*
X81036309Y-52580000D01*
X80695750Y-52580000D01*
X80537000Y-52738750D01*
X80283000Y-52738750D01*
X80124250Y-52580000D01*
X79783691Y-52580000D01*
X79550302Y-52676673D01*
X79371673Y-52855301D01*
X79275000Y-53088690D01*
X77946112Y-53088690D01*
X78614802Y-52420000D01*
X80700000Y-52420000D01*
X80990839Y-52362148D01*
X81237401Y-52197401D01*
X82128506Y-51306296D01*
X82343276Y-51395477D01*
X82854481Y-51395923D01*
X83326943Y-51200705D01*
X83688735Y-50839545D01*
X83870205Y-50402518D01*
X84049995Y-50837643D01*
X84411155Y-51199435D01*
X84883276Y-51395477D01*
X85394481Y-51395923D01*
X85866943Y-51200705D01*
X86228735Y-50839545D01*
X86410205Y-50402518D01*
X86589995Y-50837643D01*
X86951155Y-51199435D01*
X87423276Y-51395477D01*
X87934481Y-51395923D01*
X88406943Y-51200705D01*
X88768735Y-50839545D01*
X88964777Y-50367424D01*
X88965223Y-49856219D01*
X88770005Y-49383757D01*
X88408845Y-49021965D01*
X87936724Y-48825923D01*
X87425519Y-48825477D01*
X86953057Y-49020695D01*
X86591265Y-49381855D01*
X86409795Y-49818882D01*
X86230005Y-49383757D01*
X85868845Y-49021965D01*
X85396724Y-48825923D01*
X84885519Y-48825477D01*
X84413057Y-49020695D01*
X84051265Y-49381855D01*
X83869795Y-49818882D01*
X83690005Y-49383757D01*
X83328845Y-49021965D01*
X82856724Y-48825923D01*
X82345519Y-48825477D01*
X81873057Y-49020695D01*
X81511265Y-49381855D01*
X81329795Y-49818882D01*
X81150005Y-49383757D01*
X80788845Y-49021965D01*
X80316724Y-48825923D01*
X79805519Y-48825477D01*
X79333057Y-49020695D01*
X78971265Y-49381855D01*
X78789795Y-49818882D01*
X78610005Y-49383757D01*
X78248845Y-49021965D01*
X77776724Y-48825923D01*
X77265519Y-48825477D01*
X76793057Y-49020695D01*
X76431265Y-49381855D01*
X76249795Y-49818882D01*
X76070005Y-49383757D01*
X75708845Y-49021965D01*
X75236724Y-48825923D01*
X74725519Y-48825477D01*
X74253057Y-49020695D01*
X73891265Y-49381855D01*
X73709795Y-49818882D01*
X73530005Y-49383757D01*
X73168845Y-49021965D01*
X72696724Y-48825923D01*
X72185519Y-48825477D01*
X71713057Y-49020695D01*
X71351265Y-49381855D01*
X71169795Y-49818882D01*
X70990005Y-49383757D01*
X70628845Y-49021965D01*
X70156724Y-48825923D01*
X69645519Y-48825477D01*
X69173057Y-49020695D01*
X68811265Y-49381855D01*
X68629795Y-49818882D01*
X68450005Y-49383757D01*
X68088845Y-49021965D01*
X67616724Y-48825923D01*
X67105519Y-48825477D01*
X66633057Y-49020695D01*
X66271265Y-49381855D01*
X66089795Y-49818882D01*
X65910005Y-49383757D01*
X65548845Y-49021965D01*
X65076724Y-48825923D01*
X64565519Y-48825477D01*
X64093057Y-49020695D01*
X63731265Y-49381855D01*
X63549795Y-49818882D01*
X63370005Y-49383757D01*
X63008845Y-49021965D01*
X62536724Y-48825923D01*
X62025519Y-48825477D01*
X61553057Y-49020695D01*
X61191265Y-49381855D01*
X61009795Y-49818882D01*
X60830005Y-49383757D01*
X60468845Y-49021965D01*
X59996724Y-48825923D01*
X59485519Y-48825477D01*
X59013057Y-49020695D01*
X58651265Y-49381855D01*
X58469795Y-49818882D01*
X58290005Y-49383757D01*
X57928845Y-49021965D01*
X57456724Y-48825923D01*
X56945519Y-48825477D01*
X56473057Y-49020695D01*
X56111265Y-49381855D01*
X55929795Y-49818882D01*
X55750005Y-49383757D01*
X55388845Y-49021965D01*
X54916724Y-48825923D01*
X54405519Y-48825477D01*
X53933057Y-49020695D01*
X53571265Y-49381855D01*
X53389795Y-49818882D01*
X53210005Y-49383757D01*
X52848845Y-49021965D01*
X52376724Y-48825923D01*
X51865519Y-48825477D01*
X51393057Y-49020695D01*
X51031265Y-49381855D01*
X50849795Y-49818882D01*
X50670005Y-49383757D01*
X50308845Y-49021965D01*
X49836724Y-48825923D01*
X49325519Y-48825477D01*
X48853057Y-49020695D01*
X48491265Y-49381855D01*
X48309795Y-49818882D01*
X48130005Y-49383757D01*
X47768845Y-49021965D01*
X47296724Y-48825923D01*
X46785519Y-48825477D01*
X46313057Y-49020695D01*
X45951265Y-49381855D01*
X45769795Y-49818882D01*
X45590005Y-49383757D01*
X45228845Y-49021965D01*
X44756724Y-48825923D01*
X44245519Y-48825477D01*
X43773057Y-49020695D01*
X43411265Y-49381855D01*
X43229795Y-49818882D01*
X43050005Y-49383757D01*
X42688845Y-49021965D01*
X42216724Y-48825923D01*
X41705519Y-48825477D01*
X41233057Y-49020695D01*
X40871265Y-49381855D01*
X40689795Y-49818882D01*
X40510005Y-49383757D01*
X40148845Y-49021965D01*
X39676724Y-48825923D01*
X39165519Y-48825477D01*
X38693057Y-49020695D01*
X38331265Y-49381855D01*
X38149795Y-49818882D01*
X37970005Y-49383757D01*
X37608845Y-49021965D01*
X37136724Y-48825923D01*
X36625519Y-48825477D01*
X36153057Y-49020695D01*
X35791265Y-49381855D01*
X35609795Y-49818882D01*
X35430005Y-49383757D01*
X35068845Y-49021965D01*
X34596724Y-48825923D01*
X34085519Y-48825477D01*
X33680000Y-48993035D01*
X33680000Y-48485500D01*
X90743242Y-48485500D01*
X90110345Y-49117293D01*
G36*
X75552599Y-53332599D02*
X75387852Y-53579161D01*
X75330000Y-53870000D01*
X75330000Y-55925198D01*
X74125198Y-57130000D01*
X68974802Y-57130000D01*
X70047401Y-56057401D01*
X70212148Y-55810839D01*
X70270000Y-55520000D01*
X70270000Y-55144802D01*
X70314802Y-55100000D01*
X71400000Y-55100000D01*
X71690839Y-55042148D01*
X71937401Y-54877401D01*
X72717401Y-54097401D01*
X72882148Y-53850839D01*
X72940000Y-53560000D01*
X72940000Y-52840000D01*
X76045198Y-52840000D01*
X75552599Y-53332599D01*
X75552599Y-53332599D01*
G37*
X75552599Y-53332599D02*
X75387852Y-53579161D01*
X75330000Y-53870000D01*
X75330000Y-55925198D01*
X74125198Y-57130000D01*
X68974802Y-57130000D01*
X70047401Y-56057401D01*
X70212148Y-55810839D01*
X70270000Y-55520000D01*
X70270000Y-55144802D01*
X70314802Y-55100000D01*
X71400000Y-55100000D01*
X71690839Y-55042148D01*
X71937401Y-54877401D01*
X72717401Y-54097401D01*
X72882148Y-53850839D01*
X72940000Y-53560000D01*
X72940000Y-52840000D01*
X76045198Y-52840000D01*
X75552599Y-53332599D01*
G36*
X68750000Y-55205198D02*
X67525198Y-56430000D01*
X67038749Y-56430000D01*
X67147401Y-56357401D01*
X67617401Y-55887401D01*
X67782148Y-55640840D01*
X67840000Y-55350000D01*
X67840000Y-55120000D01*
X68660000Y-55120000D01*
X68750000Y-55102098D01*
X68750000Y-55205198D01*
X68750000Y-55205198D01*
G37*
X68750000Y-55205198D02*
X67525198Y-56430000D01*
X67038749Y-56430000D01*
X67147401Y-56357401D01*
X67617401Y-55887401D01*
X67782148Y-55640840D01*
X67840000Y-55350000D01*
X67840000Y-55120000D01*
X68660000Y-55120000D01*
X68750000Y-55102098D01*
X68750000Y-55205198D01*
G36*
X68860000Y-52500000D02*
X68860000Y-53085198D01*
X68345198Y-53600000D01*
X67420000Y-53600000D01*
X67129161Y-53657852D01*
X66882599Y-53822599D01*
X66542599Y-54162599D01*
X66377852Y-54409161D01*
X66320000Y-54700000D01*
X66320000Y-55035198D01*
X66295198Y-55060000D01*
X59710000Y-55060000D01*
X59430000Y-55115696D01*
X59430000Y-53734802D01*
X60494802Y-52670000D01*
X68170000Y-52670000D01*
X68460839Y-52612148D01*
X68707401Y-52447401D01*
X68910952Y-52243850D01*
X68860000Y-52500000D01*
X68860000Y-52500000D01*
G37*
X68860000Y-52500000D02*
X68860000Y-53085198D01*
X68345198Y-53600000D01*
X67420000Y-53600000D01*
X67129161Y-53657852D01*
X66882599Y-53822599D01*
X66542599Y-54162599D01*
X66377852Y-54409161D01*
X66320000Y-54700000D01*
X66320000Y-55035198D01*
X66295198Y-55060000D01*
X59710000Y-55060000D01*
X59430000Y-55115696D01*
X59430000Y-53734802D01*
X60494802Y-52670000D01*
X68170000Y-52670000D01*
X68460839Y-52612148D01*
X68707401Y-52447401D01*
X68910952Y-52243850D01*
X68860000Y-52500000D01*
M02*
