M48
;DRILL file {KiCad 4.0.0-rc1-stable} date 29/02/2016 1:51:50 AM
;FORMAT={2:4/ absolute / inch / keep zeros}
FMAT,2
INCH,TZ
T1C0.014
T2C0.016
T3C0.035
T4C0.041
T5C0.079
T6C0.128
%
G90
G05
M72
T1
X019280Y-023232
X019291Y-021303
X019295Y-022461
X019295Y-022858
X019299Y-021669
X019299Y-022043
X019346Y-020957
X019626Y-020744
X020020Y-020744
X020138Y-022492
X020150Y-022079
X020161Y-021713
X020413Y-020744
X020555Y-021713
X020610Y-022091
X020807Y-020744
X020949Y-021713
X021102Y-022102
X021201Y-020744
X021343Y-021713
X021594Y-020744
X021626Y-022102
X021736Y-021713
X021988Y-020744
X022130Y-021713
X022181Y-022150
X022217Y-022575
X022382Y-020744
X022524Y-021713
X022614Y-022094
X022673Y-022465
X022776Y-020744
X022846Y-021724
X023079Y-020626
X023346Y-021709
X023728Y-021713
X023827Y-022252
X023846Y-020780
X024098Y-021713
X024276Y-020756
X024366Y-022236
X024492Y-021713
X024717Y-020768
X024823Y-022236
X024886Y-021713
X025138Y-020744
X025280Y-021713
X025370Y-022224
X025531Y-020744
X025673Y-021713
X025925Y-020744
X026067Y-021713
X026335Y-020736
X026728Y-021744
X026752Y-020744
X027047Y-021728
X027091Y-020756
X027291Y-022311
X027689Y-022138
X027701Y-021740
X027713Y-020783
X028024Y-022409
X028035Y-021713
X028130Y-020768
X028429Y-021713
X028528Y-022346
X028744Y-020776
X028823Y-021713
X028937Y-022354
X029075Y-020768
X029217Y-021713
X029268Y-023437
X029272Y-023882
X029291Y-023043
X029374Y-022268
X029433Y-024307
X029461Y-020756
X029650Y-022783
X029697Y-021756
X029843Y-024433
X029854Y-020752
X030047Y-022772
X030299Y-024449
X030382Y-021713
X030382Y-022780
X030394Y-022098
X030394Y-022421
X030657Y-024854
X030669Y-020831
X030677Y-024449
X030945Y-020843
X030996Y-033583
X031130Y-021098
X031224Y-021520
X031228Y-021843
X031232Y-022205
X031618Y-024441
X031646Y-031622
X031661Y-024866
X031925Y-031429
X031980Y-032441
X032039Y-024461
X032358Y-024945
X032492Y-024445
X032524Y-026815
X032535Y-026343
X032567Y-025835
X032598Y-025362
X032874Y-024902
X032909Y-023496
X032909Y-023980
X033130Y-031638
X033701Y-031626
X034240Y-031614
X034339Y-023378
X034339Y-024177
X034343Y-023024
X034343Y-023732
X034492Y-026232
X034504Y-024799
X034504Y-026705
X034559Y-025756
X034579Y-025291
X034681Y-031606
X034724Y-024346
X034811Y-027449
X034815Y-028130
X034827Y-027760
X034831Y-028476
X034846Y-020638
X034854Y-029650
X034913Y-027071
X034933Y-024819
X034996Y-025291
X035051Y-025780
X035075Y-026220
X035142Y-024358
X035185Y-031406
X035201Y-026772
X035327Y-020646
X035543Y-024335
X035736Y-031039
X035744Y-030638
X035791Y-027650
X035902Y-021012
X035921Y-021366
X035941Y-021744
X035957Y-023291
X035957Y-023709
X035957Y-024201
X036189Y-030398
X036193Y-027161
X036193Y-027594
X036213Y-029965
X036350Y-021752
X036366Y-021185
X036744Y-021748
X036799Y-021350
X037000Y-027157
X037016Y-026732
X037043Y-022772
X037047Y-026240
X037047Y-027622
X037047Y-030083
X037067Y-023209
X037071Y-027988
X037075Y-023618
X037075Y-024035
X037091Y-025488
X037094Y-024984
X037102Y-029591
X037106Y-024457
X037154Y-021756
X037248Y-020850
X037335Y-021276
X037406Y-022795
X037543Y-021752
X037768Y-023256
X037768Y-023650
X037768Y-024043
X037768Y-024437
X037768Y-024831
X037768Y-025224
X037768Y-025618
X037768Y-026012
X037768Y-026406
X037768Y-026799
X037768Y-027193
X037768Y-027587
X037768Y-027996
X037799Y-022795
X037937Y-021776
X037961Y-030992
X037984Y-030240
X038142Y-028374
X038142Y-028768
X038142Y-029161
X038142Y-029555
X038240Y-022780
X038319Y-021799
X038398Y-031000
X038417Y-030232
X038736Y-021787
X038756Y-022760
X038791Y-030976
X038803Y-030236
X039280Y-029154
X039299Y-023681
X039319Y-032035
X039327Y-020787
X039555Y-029154
X039575Y-023681
X039594Y-032035
X039602Y-020787
X039831Y-029154
X039850Y-023681
X039870Y-032035
X039878Y-020787
X040106Y-029154
X040126Y-023681
X040146Y-032035
X040154Y-020787
X040382Y-029154
X040402Y-023681
X040421Y-032035
X040429Y-020787
X040657Y-029154
X040677Y-023681
X040697Y-032035
X040705Y-020787
T2
X014264Y-026535
X015047Y-026949
X015224Y-024358
X016185Y-023327
X016830Y-026325
X017455Y-026145
X017508Y-023228
X017516Y-024378
X017862Y-022449
X017929Y-021161
X019244Y-025756
X019650Y-025740
X019675Y-024475
X019695Y-024190
X019878Y-025980
X019965Y-024165
X019965Y-024760
X019975Y-024475
X020094Y-031240
X020150Y-026236
X020255Y-024175
X020285Y-024470
X020425Y-022941
X020909Y-033791
X020992Y-024480
X021031Y-026594
X021917Y-030843
X022449Y-024059
X022815Y-022858
X022870Y-023768
X023638Y-033803
X024921Y-026295
X025496Y-027280
X025850Y-033957
X025961Y-022209
X026016Y-024496
X026268Y-031638
X026531Y-030295
X026685Y-031949
X027295Y-025650
X027335Y-026906
X027378Y-023642
X028795Y-030232
X028980Y-026406
X028996Y-032154
X029575Y-024579
X029602Y-030205
X030154Y-033654
X030169Y-023709
X030598Y-023709
X030909Y-025789
X030934Y-026169
X030934Y-026539
X031003Y-032356
X031024Y-023705
X031130Y-022740
X031146Y-022417
X031234Y-026164
X031259Y-026529
X031492Y-023705
X031591Y-034051
X031619Y-026529
X031624Y-025814
X031624Y-026169
X031850Y-023677
X031854Y-022890
X032118Y-022898
X032228Y-023685
X032379Y-033260
X032413Y-022898
X032461Y-020646
X033150Y-020681
X033200Y-022217
X033220Y-022687
X033398Y-024839
X033425Y-022466
X033615Y-022687
X033630Y-022252
X033925Y-024925
X033969Y-020591
X034575Y-033882
X035004Y-022382
X035012Y-021531
X035016Y-021902
X035016Y-022839
X035051Y-023224
X035055Y-023583
X035220Y-032173
X035803Y-028071
X035878Y-025447
X035878Y-025812
X035941Y-024484
X036008Y-022528
X036161Y-026740
X036198Y-025637
X036232Y-028476
X036232Y-028870
X036232Y-029236
X036240Y-029614
X036344Y-030917
X036409Y-022512
X036493Y-025457
X036493Y-025837
X036776Y-022512
X036909Y-031082
X036914Y-030787
X036919Y-030527
X037480Y-030909
X037528Y-020567
X037535Y-020161
X037575Y-019776
X037598Y-019417
X037843Y-031811
X037969Y-019409
X037976Y-019768
X037980Y-020886
X037984Y-020543
X037992Y-020185
X037992Y-021264
X038315Y-026181
X038315Y-027390
X038335Y-026764
X038378Y-025618
X038402Y-021283
X038406Y-020933
X038409Y-019689
X038409Y-020512
X038417Y-020110
X038449Y-019264
X038709Y-028133
X038740Y-021299
X038760Y-020917
X038839Y-023972
X038850Y-025587
X038862Y-020500
X038862Y-026740
X038874Y-026157
X038885Y-028855
X038909Y-033728
X038917Y-034213
X038930Y-029680
X038930Y-031495
X038930Y-032320
X038945Y-033165
X038972Y-019661
X039012Y-019236
X039083Y-027402
X039228Y-026579
X039245Y-027955
X039248Y-025378
X039260Y-026071
X039268Y-024787
X039303Y-034287
X039346Y-033748
X039374Y-019748
X039390Y-019276
X039634Y-025720
X039642Y-025260
X039670Y-033155
X039720Y-026228
X039752Y-033728
X039764Y-034280
X039831Y-019268
X039846Y-026795
X039862Y-027346
X040016Y-025720
X040039Y-025083
X040173Y-026315
X040205Y-027940
X040248Y-034256
X040291Y-033760
X040315Y-027378
X040358Y-019201
X040370Y-026787
X040445Y-025720
X040535Y-033150
X040717Y-024921
X040732Y-019720
X040740Y-028020
X040756Y-026323
X040756Y-034287
X040783Y-019220
X040783Y-027374
X040791Y-025295
X040799Y-033772
X040803Y-026803
T3
X013520Y-019729
X013524Y-029099
X014520Y-019729
X014524Y-029099
X015520Y-019729
X015524Y-029099
X016520Y-019729
X016524Y-029099
X017520Y-019729
X017524Y-029099
X018520Y-019729
X018524Y-029099
X019520Y-019729
X019524Y-029099
X020520Y-019729
X020524Y-029099
X021520Y-019729
X021524Y-029099
X022520Y-019729
X022524Y-029099
X023520Y-019729
X023524Y-029099
X024520Y-019729
X024524Y-029099
X025520Y-019729
X025524Y-029099
X026520Y-019729
X026524Y-029099
X027520Y-019729
X027524Y-029099
X028520Y-019729
X028524Y-029099
X029520Y-019729
X029524Y-029099
X030520Y-019729
X030524Y-029099
X031520Y-019729
X031524Y-029099
X032520Y-019729
X032524Y-029099
X033520Y-019729
X033524Y-029099
X034520Y-019729
X034524Y-029099
T4
X014437Y-021610
X014437Y-022610
X014437Y-023610
X016205Y-027406
X017205Y-027406
X018205Y-027406
T5
X014642Y-031878
X015823Y-033728
X017004Y-031878
T6
X016083Y-021874
X018720Y-033528
X036366Y-019933
X037720Y-033626
T0
M30
