G04 #@! TF.FileFunction,Legend,Top*
%FSLAX46Y46*%
G04 Gerber Fmt 4.6, Leading zero omitted, Abs format (unit mm)*
G04 Created by KiCad (PCBNEW 4.0.0-rc1-stable) date 29/02/2016 1:35:43 AM*
%MOMM*%
G01*
G04 APERTURE LIST*
%ADD10C,0.100000*%
%ADD11C,0.150000*%
%ADD12C,0.050000*%
G04 APERTURE END LIST*
D10*
D11*
X92150000Y-80355000D02*
X92650000Y-80355000D01*
X92650000Y-79305000D02*
X92150000Y-79305000D01*
X59047100Y-76645400D02*
G75*
G03X59047100Y-76645400I-100000J0D01*
G01*
X59497100Y-76895400D02*
X58997100Y-76895400D01*
X59497100Y-79795400D02*
X59497100Y-76895400D01*
X58997100Y-79795400D02*
X59497100Y-79795400D01*
X58997100Y-76895400D02*
X58997100Y-79795400D01*
X68020000Y-58430000D02*
G75*
G03X68020000Y-58430000I-100000J0D01*
G01*
X67670000Y-58980000D02*
X67670000Y-58480000D01*
X64770000Y-58980000D02*
X67670000Y-58980000D01*
X64770000Y-58480000D02*
X64770000Y-58980000D01*
X67670000Y-58480000D02*
X64770000Y-58480000D01*
X75025200Y-83353240D02*
G75*
G03X75025200Y-83353240I-100000J0D01*
G01*
X75175200Y-82803240D02*
X75175200Y-83303240D01*
X78075200Y-82803240D02*
X75175200Y-82803240D01*
X78075200Y-83303240D02*
X78075200Y-82803240D01*
X75175200Y-83303240D02*
X78075200Y-83303240D01*
X37765442Y-66217800D02*
G75*
G03X37765442Y-66217800I-71842J0D01*
G01*
D12*
X86541800Y-55156600D02*
X86541800Y-55690000D01*
X83112800Y-55156600D02*
X83112800Y-55690000D01*
X83112800Y-58687200D02*
X83112800Y-58179200D01*
X86541800Y-58687200D02*
X86541800Y-58153800D01*
X83112800Y-55156600D02*
X86541800Y-55156600D01*
X86541800Y-58687200D02*
X83112800Y-58687200D01*
D11*
X83550596Y-55563000D02*
G75*
G03X83550596Y-55563000I-56796J0D01*
G01*
D12*
X76807060Y-64335660D02*
X76807060Y-69250560D01*
X76819760Y-69263260D02*
X81925160Y-69263260D01*
X81925160Y-69263260D02*
X81925160Y-64170560D01*
D11*
X77221802Y-68590160D02*
G75*
G03X77221802Y-68590160I-71842J0D01*
G01*
D12*
X48602900Y-60716500D02*
X48602900Y-60032900D01*
X48602900Y-60032900D02*
X49236500Y-60032900D01*
X49236500Y-64376300D02*
X48602900Y-64376300D01*
X48602900Y-64376300D02*
X48602900Y-63666500D01*
X52857400Y-63666500D02*
X52857400Y-64249300D01*
X52857400Y-64249300D02*
X52349400Y-64249300D01*
X52857400Y-60680600D02*
X52857400Y-60071000D01*
X52857400Y-60071000D02*
X52362100Y-60071000D01*
D11*
X52687942Y-60363100D02*
G75*
G03X52687942Y-60363100I-71842J0D01*
G01*
D12*
X94854400Y-78035000D02*
X94854400Y-79190700D01*
X94854400Y-79190700D02*
X92644600Y-79190700D01*
X92644600Y-79190700D02*
X92644600Y-78035000D01*
D11*
X94102921Y-79393900D02*
G75*
G03X94102921Y-79393900I-35921J0D01*
G01*
X93563942Y-64433400D02*
G75*
G03X93563942Y-64433400I-71842J0D01*
G01*
X37770000Y-53680000D02*
X37770000Y-61180000D01*
X37770000Y-61180000D02*
X35570000Y-61180000D01*
X35570000Y-61180000D02*
X35570000Y-53680000D01*
X35570000Y-53680000D02*
X37770000Y-53680000D01*
X47450000Y-70710000D02*
X39950000Y-70710000D01*
X39950000Y-70710000D02*
X39950000Y-68510000D01*
X39950000Y-68510000D02*
X47450000Y-68510000D01*
X47450000Y-68510000D02*
X47450000Y-70710000D01*
X79550000Y-59665000D02*
X78550000Y-59665000D01*
X78550000Y-58315000D02*
X79550000Y-58315000D01*
X89445000Y-57700000D02*
X89445000Y-56700000D01*
X90795000Y-56700000D02*
X90795000Y-57700000D01*
X45029500Y-64223000D02*
X46029500Y-64223000D01*
X46029500Y-62523000D02*
X45029500Y-62523000D01*
X80202040Y-83459080D02*
X80902040Y-83459080D01*
X80902040Y-84659080D02*
X80202040Y-84659080D01*
X87439760Y-77451160D02*
X85439760Y-77451160D01*
X85439760Y-79501160D02*
X87439760Y-79501160D01*
X83203160Y-81278160D02*
X83203160Y-82278160D01*
X81853160Y-82278160D02*
X81853160Y-81278160D01*
X81878560Y-79550200D02*
X81878560Y-78550200D01*
X83228560Y-78550200D02*
X83228560Y-79550200D01*
X94735000Y-76750000D02*
X94735000Y-77250000D01*
X95685000Y-77250000D02*
X95685000Y-76750000D01*
X75950000Y-54465000D02*
X76450000Y-54465000D01*
X76450000Y-53515000D02*
X75950000Y-53515000D01*
X95475000Y-80390000D02*
X95475000Y-81390000D01*
X94125000Y-81390000D02*
X94125000Y-80390000D01*
X53550000Y-79840000D02*
X52850000Y-79840000D01*
X52850000Y-78640000D02*
X53550000Y-78640000D01*
X46090000Y-59400000D02*
X47090000Y-59400000D01*
X47090000Y-57700000D02*
X46090000Y-57700000D01*
X46000000Y-61540000D02*
X47000000Y-61540000D01*
X47000000Y-59840000D02*
X46000000Y-59840000D01*
X37510000Y-65350000D02*
X37510000Y-64350000D01*
X35810000Y-64350000D02*
X35810000Y-65350000D01*
X54330000Y-64600000D02*
X55330000Y-64600000D01*
X55330000Y-62900000D02*
X54330000Y-62900000D01*
X53700000Y-67010000D02*
X54700000Y-67010000D01*
X54700000Y-65310000D02*
X53700000Y-65310000D01*
X66050000Y-79030000D02*
X66050000Y-78030000D01*
X64350000Y-78030000D02*
X64350000Y-79030000D01*
X63060200Y-58967000D02*
X62060200Y-58967000D01*
X62060200Y-60667000D02*
X63060200Y-60667000D01*
X60316000Y-64379600D02*
X60316000Y-66379600D01*
X62366000Y-66379600D02*
X62366000Y-64379600D01*
X67810000Y-62220000D02*
X68810000Y-62220000D01*
X68810000Y-60520000D02*
X67810000Y-60520000D01*
X75144000Y-79383840D02*
X74144000Y-79383840D01*
X74144000Y-81083840D02*
X75144000Y-81083840D01*
X72189900Y-67506100D02*
X72189900Y-68206100D01*
X70989900Y-68206100D02*
X70989900Y-67506100D01*
X77000000Y-65210000D02*
X77000000Y-64210000D01*
X75300000Y-64210000D02*
X75300000Y-65210000D01*
X92455000Y-68840000D02*
X92455000Y-69340000D01*
X93405000Y-69340000D02*
X93405000Y-68840000D01*
X92370000Y-80870000D02*
X91370000Y-80870000D01*
X91370000Y-82570000D02*
X92370000Y-82570000D01*
X92575000Y-75750000D02*
X92575000Y-76250000D01*
X93525000Y-76250000D02*
X93525000Y-75750000D01*
X55650000Y-61315000D02*
X54650000Y-61315000D01*
X54650000Y-59965000D02*
X55650000Y-59965000D01*
X62288800Y-61047000D02*
X63288800Y-61047000D01*
X63288800Y-62397000D02*
X62288800Y-62397000D01*
X64920000Y-64635000D02*
X63720000Y-64635000D01*
X63720000Y-62885000D02*
X64920000Y-62885000D01*
X77925120Y-77265880D02*
X79125120Y-77265880D01*
X79125120Y-79015880D02*
X77925120Y-79015880D01*
X66930000Y-67095000D02*
X65730000Y-67095000D01*
X65730000Y-65345000D02*
X66930000Y-65345000D01*
X78439400Y-81140240D02*
X78439400Y-80140240D01*
X79789400Y-80140240D02*
X79789400Y-81140240D01*
X73545000Y-59750000D02*
X73545000Y-60950000D01*
X71795000Y-60950000D02*
X71795000Y-59750000D01*
X92720000Y-70755000D02*
X92220000Y-70755000D01*
X92220000Y-71805000D02*
X92720000Y-71805000D01*
X94656000Y-50630000D02*
G75*
G03X94656000Y-50630000I-2286000J0D01*
G01*
X98096000Y-85410000D02*
G75*
G03X98096000Y-85410000I-2286000J0D01*
G01*
X43136000Y-55560000D02*
G75*
G03X43136000Y-55560000I-2286000J0D01*
G01*
X49836000Y-85160000D02*
G75*
G03X49836000Y-85160000I-2286000J0D01*
G01*
X88960000Y-76398000D02*
X76260000Y-76398000D01*
X76260000Y-71398000D02*
X88960000Y-71398000D01*
X33080000Y-76398000D02*
X76260000Y-76398000D01*
X88960000Y-76398000D02*
X88960000Y-71398000D01*
X76260000Y-71398000D02*
X33080000Y-71398000D01*
X33080000Y-71398000D02*
X33080000Y-76398000D01*
X88950000Y-52598000D02*
X76250000Y-52598000D01*
X76250000Y-47598000D02*
X88950000Y-47598000D01*
X33070000Y-52598000D02*
X76250000Y-52598000D01*
X88950000Y-52598000D02*
X88950000Y-47598000D01*
X76250000Y-47598000D02*
X33070000Y-47598000D01*
X33070000Y-47598000D02*
X33070000Y-52598000D01*
X81250000Y-55200000D02*
X82250000Y-55200000D01*
X82250000Y-53500000D02*
X81250000Y-53500000D01*
X85820000Y-52960000D02*
X84820000Y-52960000D01*
X84820000Y-54660000D02*
X85820000Y-54660000D01*
X32989500Y-76469120D02*
X32989500Y-85470880D01*
X29489380Y-76469120D02*
X29489380Y-85470880D01*
X29489380Y-85470880D02*
X43990240Y-85470880D01*
X43990240Y-85470880D02*
X43990240Y-76469120D01*
X43990240Y-76469120D02*
X29489380Y-76469120D01*
X50685000Y-58710000D02*
X50685000Y-59210000D01*
X51635000Y-59210000D02*
X51635000Y-58710000D01*
X54730000Y-62970000D02*
X55730000Y-62970000D01*
X55730000Y-61270000D02*
X54730000Y-61270000D01*
X81540000Y-85515000D02*
X82540000Y-85515000D01*
X82540000Y-86865000D02*
X81540000Y-86865000D01*
X85100000Y-85495000D02*
X86100000Y-85495000D01*
X86100000Y-86845000D02*
X85100000Y-86845000D01*
X93510642Y-71370100D02*
G75*
G03X93510642Y-71370100I-71842J0D01*
G01*
X93578500Y-71801900D02*
X94785000Y-71801900D01*
X94785000Y-71801900D02*
X94785000Y-74481600D01*
X94785000Y-74481600D02*
X93515000Y-74481600D01*
X93515000Y-74481600D02*
X93515000Y-71789200D01*
X63265000Y-78067900D02*
X62265000Y-78067900D01*
X62265000Y-76717900D02*
X63265000Y-76717900D01*
X46175000Y-54250000D02*
X46175000Y-56250000D01*
X48225000Y-56250000D02*
X48225000Y-54250000D01*
X67360000Y-64725000D02*
X69360000Y-64725000D01*
X69360000Y-62675000D02*
X67360000Y-62675000D01*
X75430000Y-77145000D02*
X73430000Y-77145000D01*
X73430000Y-79195000D02*
X75430000Y-79195000D01*
X74605000Y-65510000D02*
X74605000Y-63510000D01*
X72555000Y-63510000D02*
X72555000Y-65510000D01*
X67035000Y-83620000D02*
X67035000Y-82620000D01*
X68385000Y-82620000D02*
X68385000Y-83620000D01*
X55490000Y-86615000D02*
X54490000Y-86615000D01*
X54490000Y-85265000D02*
X55490000Y-85265000D01*
X91623334Y-79152381D02*
X91147143Y-79152381D01*
X91147143Y-78152381D01*
X91861429Y-78152381D02*
X92480477Y-78152381D01*
X92147143Y-78533333D01*
X92290001Y-78533333D01*
X92385239Y-78580952D01*
X92432858Y-78628571D01*
X92480477Y-78723810D01*
X92480477Y-78961905D01*
X92432858Y-79057143D01*
X92385239Y-79104762D01*
X92290001Y-79152381D01*
X92004286Y-79152381D01*
X91909048Y-79104762D01*
X91861429Y-79057143D01*
X58388095Y-80142381D02*
X58388095Y-80951905D01*
X58435714Y-81047143D01*
X58483333Y-81094762D01*
X58578571Y-81142381D01*
X58769048Y-81142381D01*
X58864286Y-81094762D01*
X58911905Y-81047143D01*
X58959524Y-80951905D01*
X58959524Y-80142381D01*
X59864286Y-80475714D02*
X59864286Y-81142381D01*
X59626190Y-80094762D02*
X59388095Y-80809048D01*
X60007143Y-80809048D01*
X66474095Y-55769381D02*
X66474095Y-56578905D01*
X66521714Y-56674143D01*
X66569333Y-56721762D01*
X66664571Y-56769381D01*
X66855048Y-56769381D01*
X66950286Y-56721762D01*
X66997905Y-56674143D01*
X67045524Y-56578905D01*
X67045524Y-55769381D01*
X67997905Y-55769381D02*
X67521714Y-55769381D01*
X67474095Y-56245571D01*
X67521714Y-56197952D01*
X67616952Y-56150333D01*
X67855048Y-56150333D01*
X67950286Y-56197952D01*
X67997905Y-56245571D01*
X68045524Y-56340810D01*
X68045524Y-56578905D01*
X67997905Y-56674143D01*
X67950286Y-56721762D01*
X67855048Y-56769381D01*
X67616952Y-56769381D01*
X67521714Y-56721762D01*
X67474095Y-56674143D01*
X74538095Y-85062381D02*
X74538095Y-85871905D01*
X74585714Y-85967143D01*
X74633333Y-86014762D01*
X74728571Y-86062381D01*
X74919048Y-86062381D01*
X75014286Y-86014762D01*
X75061905Y-85967143D01*
X75109524Y-85871905D01*
X75109524Y-85062381D01*
X76014286Y-85062381D02*
X75823809Y-85062381D01*
X75728571Y-85110000D01*
X75680952Y-85157619D01*
X75585714Y-85300476D01*
X75538095Y-85490952D01*
X75538095Y-85871905D01*
X75585714Y-85967143D01*
X75633333Y-86014762D01*
X75728571Y-86062381D01*
X75919048Y-86062381D01*
X76014286Y-86014762D01*
X76061905Y-85967143D01*
X76109524Y-85871905D01*
X76109524Y-85633810D01*
X76061905Y-85538571D01*
X76014286Y-85490952D01*
X75919048Y-85443333D01*
X75728571Y-85443333D01*
X75633333Y-85490952D01*
X75585714Y-85538571D01*
X75538095Y-85633810D01*
X40589295Y-67117981D02*
X40589295Y-67927505D01*
X40636914Y-68022743D01*
X40684533Y-68070362D01*
X40779771Y-68117981D01*
X40970248Y-68117981D01*
X41065486Y-68070362D01*
X41113105Y-68022743D01*
X41160724Y-67927505D01*
X41160724Y-67117981D01*
X41541676Y-67117981D02*
X42160724Y-67117981D01*
X41827390Y-67498933D01*
X41970248Y-67498933D01*
X42065486Y-67546552D01*
X42113105Y-67594171D01*
X42160724Y-67689410D01*
X42160724Y-67927505D01*
X42113105Y-68022743D01*
X42065486Y-68070362D01*
X41970248Y-68117981D01*
X41684533Y-68117981D01*
X41589295Y-68070362D01*
X41541676Y-68022743D01*
X83538395Y-58714591D02*
X83538395Y-59524115D01*
X83586014Y-59619353D01*
X83633633Y-59666972D01*
X83728871Y-59714591D01*
X83919348Y-59714591D01*
X84014586Y-59666972D01*
X84062205Y-59619353D01*
X84109824Y-59524115D01*
X84109824Y-58714591D01*
X85109824Y-59714591D02*
X84538395Y-59714591D01*
X84824109Y-59714591D02*
X84824109Y-58714591D01*
X84728871Y-58857448D01*
X84633633Y-58952686D01*
X84538395Y-59000305D01*
X86062205Y-59714591D02*
X85490776Y-59714591D01*
X85776490Y-59714591D02*
X85776490Y-58714591D01*
X85681252Y-58857448D01*
X85586014Y-58952686D01*
X85490776Y-59000305D01*
X78562295Y-69558921D02*
X78562295Y-70368445D01*
X78609914Y-70463683D01*
X78657533Y-70511302D01*
X78752771Y-70558921D01*
X78943248Y-70558921D01*
X79038486Y-70511302D01*
X79086105Y-70463683D01*
X79133724Y-70368445D01*
X79133724Y-69558921D01*
X79514676Y-69558921D02*
X80181343Y-69558921D01*
X79752771Y-70558921D01*
X48717295Y-65187581D02*
X48717295Y-65997105D01*
X48764914Y-66092343D01*
X48812533Y-66139962D01*
X48907771Y-66187581D01*
X49098248Y-66187581D01*
X49193486Y-66139962D01*
X49241105Y-66092343D01*
X49288724Y-65997105D01*
X49288724Y-65187581D01*
X49717295Y-65282819D02*
X49764914Y-65235200D01*
X49860152Y-65187581D01*
X50098248Y-65187581D01*
X50193486Y-65235200D01*
X50241105Y-65282819D01*
X50288724Y-65378057D01*
X50288724Y-65473295D01*
X50241105Y-65616152D01*
X49669676Y-66187581D01*
X50288724Y-66187581D01*
X95241905Y-78352381D02*
X95241905Y-79161905D01*
X95289524Y-79257143D01*
X95337143Y-79304762D01*
X95432381Y-79352381D01*
X95622858Y-79352381D01*
X95718096Y-79304762D01*
X95765715Y-79257143D01*
X95813334Y-79161905D01*
X95813334Y-78352381D01*
X96813334Y-79352381D02*
X96241905Y-79352381D01*
X96527619Y-79352381D02*
X96527619Y-78352381D01*
X96432381Y-78495238D01*
X96337143Y-78590476D01*
X96241905Y-78638095D01*
X97194286Y-78447619D02*
X97241905Y-78400000D01*
X97337143Y-78352381D01*
X97575239Y-78352381D01*
X97670477Y-78400000D01*
X97718096Y-78447619D01*
X97765715Y-78542857D01*
X97765715Y-78638095D01*
X97718096Y-78780952D01*
X97146667Y-79352381D01*
X97765715Y-79352381D01*
X93597381Y-66506905D02*
X94406905Y-66506905D01*
X94502143Y-66459286D01*
X94549762Y-66411667D01*
X94597381Y-66316429D01*
X94597381Y-66125952D01*
X94549762Y-66030714D01*
X94502143Y-65983095D01*
X94406905Y-65935476D01*
X93597381Y-65935476D01*
X94025952Y-65316429D02*
X93978333Y-65411667D01*
X93930714Y-65459286D01*
X93835476Y-65506905D01*
X93787857Y-65506905D01*
X93692619Y-65459286D01*
X93645000Y-65411667D01*
X93597381Y-65316429D01*
X93597381Y-65125952D01*
X93645000Y-65030714D01*
X93692619Y-64983095D01*
X93787857Y-64935476D01*
X93835476Y-64935476D01*
X93930714Y-64983095D01*
X93978333Y-65030714D01*
X94025952Y-65125952D01*
X94025952Y-65316429D01*
X94073571Y-65411667D01*
X94121190Y-65459286D01*
X94216429Y-65506905D01*
X94406905Y-65506905D01*
X94502143Y-65459286D01*
X94549762Y-65411667D01*
X94597381Y-65316429D01*
X94597381Y-65125952D01*
X94549762Y-65030714D01*
X94502143Y-64983095D01*
X94406905Y-64935476D01*
X94216429Y-64935476D01*
X94121190Y-64983095D01*
X94073571Y-65030714D01*
X94025952Y-65125952D01*
X100565505Y-83488781D02*
X100565505Y-84298305D01*
X100613124Y-84393543D01*
X100660743Y-84441162D01*
X100755981Y-84488781D01*
X100946458Y-84488781D01*
X101041696Y-84441162D01*
X101089315Y-84393543D01*
X101136934Y-84298305D01*
X101136934Y-83488781D01*
X102136934Y-84488781D02*
X101565505Y-84488781D01*
X101851219Y-84488781D02*
X101851219Y-83488781D01*
X101755981Y-83631638D01*
X101660743Y-83726876D01*
X101565505Y-83774495D01*
X102994077Y-83822114D02*
X102994077Y-84488781D01*
X102755981Y-83441162D02*
X102517886Y-84155448D01*
X103136934Y-84155448D01*
X100625505Y-62272381D02*
X100625505Y-63081905D01*
X100673124Y-63177143D01*
X100720743Y-63224762D01*
X100815981Y-63272381D01*
X101006458Y-63272381D01*
X101101696Y-63224762D01*
X101149315Y-63177143D01*
X101196934Y-63081905D01*
X101196934Y-62272381D01*
X102196934Y-63272381D02*
X101625505Y-63272381D01*
X101911219Y-63272381D02*
X101911219Y-62272381D01*
X101815981Y-62415238D01*
X101720743Y-62510476D01*
X101625505Y-62558095D01*
X102530267Y-62272381D02*
X103149315Y-62272381D01*
X102815981Y-62653333D01*
X102958839Y-62653333D01*
X103054077Y-62700952D01*
X103101696Y-62748571D01*
X103149315Y-62843810D01*
X103149315Y-63081905D01*
X103101696Y-63177143D01*
X103054077Y-63224762D01*
X102958839Y-63272381D01*
X102673124Y-63272381D01*
X102577886Y-63224762D01*
X102530267Y-63177143D01*
X38989281Y-59895295D02*
X37989281Y-59895295D01*
X37989281Y-59514342D01*
X38036900Y-59419104D01*
X38084519Y-59371485D01*
X38179757Y-59323866D01*
X38322614Y-59323866D01*
X38417852Y-59371485D01*
X38465471Y-59419104D01*
X38513090Y-59514342D01*
X38513090Y-59895295D01*
X37989281Y-58990533D02*
X37989281Y-58371485D01*
X38370233Y-58704819D01*
X38370233Y-58561961D01*
X38417852Y-58466723D01*
X38465471Y-58419104D01*
X38560710Y-58371485D01*
X38798805Y-58371485D01*
X38894043Y-58419104D01*
X38941662Y-58466723D01*
X38989281Y-58561961D01*
X38989281Y-58847676D01*
X38941662Y-58942914D01*
X38894043Y-58990533D01*
X47821905Y-69962381D02*
X47821905Y-68962381D01*
X48202858Y-68962381D01*
X48298096Y-69010000D01*
X48345715Y-69057619D01*
X48393334Y-69152857D01*
X48393334Y-69295714D01*
X48345715Y-69390952D01*
X48298096Y-69438571D01*
X48202858Y-69486190D01*
X47821905Y-69486190D01*
X49250477Y-69295714D02*
X49250477Y-69962381D01*
X49012381Y-68914762D02*
X48774286Y-69629048D01*
X49393334Y-69629048D01*
X78507143Y-60682381D02*
X78173809Y-60206190D01*
X77935714Y-60682381D02*
X77935714Y-59682381D01*
X78316667Y-59682381D01*
X78411905Y-59730000D01*
X78459524Y-59777619D01*
X78507143Y-59872857D01*
X78507143Y-60015714D01*
X78459524Y-60110952D01*
X78411905Y-60158571D01*
X78316667Y-60206190D01*
X77935714Y-60206190D01*
X79459524Y-60682381D02*
X78888095Y-60682381D01*
X79173809Y-60682381D02*
X79173809Y-59682381D01*
X79078571Y-59825238D01*
X78983333Y-59920476D01*
X78888095Y-59968095D01*
X80078571Y-59682381D02*
X80173810Y-59682381D01*
X80269048Y-59730000D01*
X80316667Y-59777619D01*
X80364286Y-59872857D01*
X80411905Y-60063333D01*
X80411905Y-60301429D01*
X80364286Y-60491905D01*
X80316667Y-60587143D01*
X80269048Y-60634762D01*
X80173810Y-60682381D01*
X80078571Y-60682381D01*
X79983333Y-60634762D01*
X79935714Y-60587143D01*
X79888095Y-60491905D01*
X79840476Y-60301429D01*
X79840476Y-60063333D01*
X79888095Y-59872857D01*
X79935714Y-59777619D01*
X79983333Y-59730000D01*
X80078571Y-59682381D01*
X89492381Y-57902857D02*
X89016190Y-58236191D01*
X89492381Y-58474286D02*
X88492381Y-58474286D01*
X88492381Y-58093333D01*
X88540000Y-57998095D01*
X88587619Y-57950476D01*
X88682857Y-57902857D01*
X88825714Y-57902857D01*
X88920952Y-57950476D01*
X88968571Y-57998095D01*
X89016190Y-58093333D01*
X89016190Y-58474286D01*
X89492381Y-56950476D02*
X89492381Y-57521905D01*
X89492381Y-57236191D02*
X88492381Y-57236191D01*
X88635238Y-57331429D01*
X88730476Y-57426667D01*
X88778095Y-57521905D01*
X88587619Y-56569524D02*
X88540000Y-56521905D01*
X88492381Y-56426667D01*
X88492381Y-56188571D01*
X88540000Y-56093333D01*
X88587619Y-56045714D01*
X88682857Y-55998095D01*
X88778095Y-55998095D01*
X88920952Y-56045714D01*
X89492381Y-56617143D01*
X89492381Y-55998095D01*
X45362834Y-65830143D02*
X45315215Y-65877762D01*
X45172358Y-65925381D01*
X45077120Y-65925381D01*
X44934262Y-65877762D01*
X44839024Y-65782524D01*
X44791405Y-65687286D01*
X44743786Y-65496810D01*
X44743786Y-65353952D01*
X44791405Y-65163476D01*
X44839024Y-65068238D01*
X44934262Y-64973000D01*
X45077120Y-64925381D01*
X45172358Y-64925381D01*
X45315215Y-64973000D01*
X45362834Y-65020619D01*
X45934262Y-65353952D02*
X45839024Y-65306333D01*
X45791405Y-65258714D01*
X45743786Y-65163476D01*
X45743786Y-65115857D01*
X45791405Y-65020619D01*
X45839024Y-64973000D01*
X45934262Y-64925381D01*
X46124739Y-64925381D01*
X46219977Y-64973000D01*
X46267596Y-65020619D01*
X46315215Y-65115857D01*
X46315215Y-65163476D01*
X46267596Y-65258714D01*
X46219977Y-65306333D01*
X46124739Y-65353952D01*
X45934262Y-65353952D01*
X45839024Y-65401571D01*
X45791405Y-65449190D01*
X45743786Y-65544429D01*
X45743786Y-65734905D01*
X45791405Y-65830143D01*
X45839024Y-65877762D01*
X45934262Y-65925381D01*
X46124739Y-65925381D01*
X46219977Y-65877762D01*
X46267596Y-65830143D01*
X46315215Y-65734905D01*
X46315215Y-65544429D01*
X46267596Y-65449190D01*
X46219977Y-65401571D01*
X46124739Y-65353952D01*
X82917143Y-84667143D02*
X82869524Y-84714762D01*
X82726667Y-84762381D01*
X82631429Y-84762381D01*
X82488571Y-84714762D01*
X82393333Y-84619524D01*
X82345714Y-84524286D01*
X82298095Y-84333810D01*
X82298095Y-84190952D01*
X82345714Y-84000476D01*
X82393333Y-83905238D01*
X82488571Y-83810000D01*
X82631429Y-83762381D01*
X82726667Y-83762381D01*
X82869524Y-83810000D01*
X82917143Y-83857619D01*
X83869524Y-84762381D02*
X83298095Y-84762381D01*
X83583809Y-84762381D02*
X83583809Y-83762381D01*
X83488571Y-83905238D01*
X83393333Y-84000476D01*
X83298095Y-84048095D01*
X84202857Y-83762381D02*
X84869524Y-83762381D01*
X84440952Y-84762381D01*
X86007143Y-80737143D02*
X85959524Y-80784762D01*
X85816667Y-80832381D01*
X85721429Y-80832381D01*
X85578571Y-80784762D01*
X85483333Y-80689524D01*
X85435714Y-80594286D01*
X85388095Y-80403810D01*
X85388095Y-80260952D01*
X85435714Y-80070476D01*
X85483333Y-79975238D01*
X85578571Y-79880000D01*
X85721429Y-79832381D01*
X85816667Y-79832381D01*
X85959524Y-79880000D01*
X86007143Y-79927619D01*
X86388095Y-79927619D02*
X86435714Y-79880000D01*
X86530952Y-79832381D01*
X86769048Y-79832381D01*
X86864286Y-79880000D01*
X86911905Y-79927619D01*
X86959524Y-80022857D01*
X86959524Y-80118095D01*
X86911905Y-80260952D01*
X86340476Y-80832381D01*
X86959524Y-80832381D01*
X87340476Y-79927619D02*
X87388095Y-79880000D01*
X87483333Y-79832381D01*
X87721429Y-79832381D01*
X87816667Y-79880000D01*
X87864286Y-79927619D01*
X87911905Y-80022857D01*
X87911905Y-80118095D01*
X87864286Y-80260952D01*
X87292857Y-80832381D01*
X87911905Y-80832381D01*
X84568041Y-82198826D02*
X84091850Y-82532160D01*
X84568041Y-82770255D02*
X83568041Y-82770255D01*
X83568041Y-82389302D01*
X83615660Y-82294064D01*
X83663279Y-82246445D01*
X83758517Y-82198826D01*
X83901374Y-82198826D01*
X83996612Y-82246445D01*
X84044231Y-82294064D01*
X84091850Y-82389302D01*
X84091850Y-82770255D01*
X83996612Y-81627398D02*
X83948993Y-81722636D01*
X83901374Y-81770255D01*
X83806136Y-81817874D01*
X83758517Y-81817874D01*
X83663279Y-81770255D01*
X83615660Y-81722636D01*
X83568041Y-81627398D01*
X83568041Y-81436921D01*
X83615660Y-81341683D01*
X83663279Y-81294064D01*
X83758517Y-81246445D01*
X83806136Y-81246445D01*
X83901374Y-81294064D01*
X83948993Y-81341683D01*
X83996612Y-81436921D01*
X83996612Y-81627398D01*
X84044231Y-81722636D01*
X84091850Y-81770255D01*
X84187089Y-81817874D01*
X84377565Y-81817874D01*
X84472803Y-81770255D01*
X84520422Y-81722636D01*
X84568041Y-81627398D01*
X84568041Y-81436921D01*
X84520422Y-81341683D01*
X84472803Y-81294064D01*
X84377565Y-81246445D01*
X84187089Y-81246445D01*
X84091850Y-81294064D01*
X84044231Y-81341683D01*
X83996612Y-81436921D01*
X82233334Y-77762381D02*
X81900000Y-77286190D01*
X81661905Y-77762381D02*
X81661905Y-76762381D01*
X82042858Y-76762381D01*
X82138096Y-76810000D01*
X82185715Y-76857619D01*
X82233334Y-76952857D01*
X82233334Y-77095714D01*
X82185715Y-77190952D01*
X82138096Y-77238571D01*
X82042858Y-77286190D01*
X81661905Y-77286190D01*
X82709524Y-77762381D02*
X82900000Y-77762381D01*
X82995239Y-77714762D01*
X83042858Y-77667143D01*
X83138096Y-77524286D01*
X83185715Y-77333810D01*
X83185715Y-76952857D01*
X83138096Y-76857619D01*
X83090477Y-76810000D01*
X82995239Y-76762381D01*
X82804762Y-76762381D01*
X82709524Y-76810000D01*
X82661905Y-76857619D01*
X82614286Y-76952857D01*
X82614286Y-77190952D01*
X82661905Y-77286190D01*
X82709524Y-77333810D01*
X82804762Y-77381429D01*
X82995239Y-77381429D01*
X83090477Y-77333810D01*
X83138096Y-77286190D01*
X83185715Y-77190952D01*
X95307143Y-75627143D02*
X95259524Y-75674762D01*
X95116667Y-75722381D01*
X95021429Y-75722381D01*
X94878571Y-75674762D01*
X94783333Y-75579524D01*
X94735714Y-75484286D01*
X94688095Y-75293810D01*
X94688095Y-75150952D01*
X94735714Y-74960476D01*
X94783333Y-74865238D01*
X94878571Y-74770000D01*
X95021429Y-74722381D01*
X95116667Y-74722381D01*
X95259524Y-74770000D01*
X95307143Y-74817619D01*
X95640476Y-74722381D02*
X96259524Y-74722381D01*
X95926190Y-75103333D01*
X96069048Y-75103333D01*
X96164286Y-75150952D01*
X96211905Y-75198571D01*
X96259524Y-75293810D01*
X96259524Y-75531905D01*
X96211905Y-75627143D01*
X96164286Y-75674762D01*
X96069048Y-75722381D01*
X95783333Y-75722381D01*
X95688095Y-75674762D01*
X95640476Y-75627143D01*
X96640476Y-74817619D02*
X96688095Y-74770000D01*
X96783333Y-74722381D01*
X97021429Y-74722381D01*
X97116667Y-74770000D01*
X97164286Y-74817619D01*
X97211905Y-74912857D01*
X97211905Y-75008095D01*
X97164286Y-75150952D01*
X96592857Y-75722381D01*
X97211905Y-75722381D01*
X74987143Y-56097143D02*
X74939524Y-56144762D01*
X74796667Y-56192381D01*
X74701429Y-56192381D01*
X74558571Y-56144762D01*
X74463333Y-56049524D01*
X74415714Y-55954286D01*
X74368095Y-55763810D01*
X74368095Y-55620952D01*
X74415714Y-55430476D01*
X74463333Y-55335238D01*
X74558571Y-55240000D01*
X74701429Y-55192381D01*
X74796667Y-55192381D01*
X74939524Y-55240000D01*
X74987143Y-55287619D01*
X75368095Y-55287619D02*
X75415714Y-55240000D01*
X75510952Y-55192381D01*
X75749048Y-55192381D01*
X75844286Y-55240000D01*
X75891905Y-55287619D01*
X75939524Y-55382857D01*
X75939524Y-55478095D01*
X75891905Y-55620952D01*
X75320476Y-56192381D01*
X75939524Y-56192381D01*
X76891905Y-56192381D02*
X76320476Y-56192381D01*
X76606190Y-56192381D02*
X76606190Y-55192381D01*
X76510952Y-55335238D01*
X76415714Y-55430476D01*
X76320476Y-55478095D01*
X96812381Y-81862857D02*
X96336190Y-82196191D01*
X96812381Y-82434286D02*
X95812381Y-82434286D01*
X95812381Y-82053333D01*
X95860000Y-81958095D01*
X95907619Y-81910476D01*
X96002857Y-81862857D01*
X96145714Y-81862857D01*
X96240952Y-81910476D01*
X96288571Y-81958095D01*
X96336190Y-82053333D01*
X96336190Y-82434286D01*
X96812381Y-80910476D02*
X96812381Y-81481905D01*
X96812381Y-81196191D02*
X95812381Y-81196191D01*
X95955238Y-81291429D01*
X96050476Y-81386667D01*
X96098095Y-81481905D01*
X95812381Y-80577143D02*
X95812381Y-79958095D01*
X96193333Y-80291429D01*
X96193333Y-80148571D01*
X96240952Y-80053333D01*
X96288571Y-80005714D01*
X96383810Y-79958095D01*
X96621905Y-79958095D01*
X96717143Y-80005714D01*
X96764762Y-80053333D01*
X96812381Y-80148571D01*
X96812381Y-80434286D01*
X96764762Y-80529524D01*
X96717143Y-80577143D01*
X52363334Y-81077143D02*
X52315715Y-81124762D01*
X52172858Y-81172381D01*
X52077620Y-81172381D01*
X51934762Y-81124762D01*
X51839524Y-81029524D01*
X51791905Y-80934286D01*
X51744286Y-80743810D01*
X51744286Y-80600952D01*
X51791905Y-80410476D01*
X51839524Y-80315238D01*
X51934762Y-80220000D01*
X52077620Y-80172381D01*
X52172858Y-80172381D01*
X52315715Y-80220000D01*
X52363334Y-80267619D01*
X52744286Y-80267619D02*
X52791905Y-80220000D01*
X52887143Y-80172381D01*
X53125239Y-80172381D01*
X53220477Y-80220000D01*
X53268096Y-80267619D01*
X53315715Y-80362857D01*
X53315715Y-80458095D01*
X53268096Y-80600952D01*
X52696667Y-81172381D01*
X53315715Y-81172381D01*
X44317143Y-58556666D02*
X44364762Y-58604285D01*
X44412381Y-58747142D01*
X44412381Y-58842380D01*
X44364762Y-58985238D01*
X44269524Y-59080476D01*
X44174286Y-59128095D01*
X43983810Y-59175714D01*
X43840952Y-59175714D01*
X43650476Y-59128095D01*
X43555238Y-59080476D01*
X43460000Y-58985238D01*
X43412381Y-58842380D01*
X43412381Y-58747142D01*
X43460000Y-58604285D01*
X43507619Y-58556666D01*
X43745714Y-57699523D02*
X44412381Y-57699523D01*
X43364762Y-57937619D02*
X44079048Y-58175714D01*
X44079048Y-57556666D01*
X44287143Y-61026666D02*
X44334762Y-61074285D01*
X44382381Y-61217142D01*
X44382381Y-61312380D01*
X44334762Y-61455238D01*
X44239524Y-61550476D01*
X44144286Y-61598095D01*
X43953810Y-61645714D01*
X43810952Y-61645714D01*
X43620476Y-61598095D01*
X43525238Y-61550476D01*
X43430000Y-61455238D01*
X43382381Y-61312380D01*
X43382381Y-61217142D01*
X43430000Y-61074285D01*
X43477619Y-61026666D01*
X43382381Y-60121904D02*
X43382381Y-60598095D01*
X43858571Y-60645714D01*
X43810952Y-60598095D01*
X43763333Y-60502857D01*
X43763333Y-60264761D01*
X43810952Y-60169523D01*
X43858571Y-60121904D01*
X43953810Y-60074285D01*
X44191905Y-60074285D01*
X44287143Y-60121904D01*
X44334762Y-60169523D01*
X44382381Y-60264761D01*
X44382381Y-60502857D01*
X44334762Y-60598095D01*
X44287143Y-60645714D01*
X35367143Y-64936666D02*
X35414762Y-64984285D01*
X35462381Y-65127142D01*
X35462381Y-65222380D01*
X35414762Y-65365238D01*
X35319524Y-65460476D01*
X35224286Y-65508095D01*
X35033810Y-65555714D01*
X34890952Y-65555714D01*
X34700476Y-65508095D01*
X34605238Y-65460476D01*
X34510000Y-65365238D01*
X34462381Y-65222380D01*
X34462381Y-65127142D01*
X34510000Y-64984285D01*
X34557619Y-64936666D01*
X34462381Y-64079523D02*
X34462381Y-64270000D01*
X34510000Y-64365238D01*
X34557619Y-64412857D01*
X34700476Y-64508095D01*
X34890952Y-64555714D01*
X35271905Y-64555714D01*
X35367143Y-64508095D01*
X35414762Y-64460476D01*
X35462381Y-64365238D01*
X35462381Y-64174761D01*
X35414762Y-64079523D01*
X35367143Y-64031904D01*
X35271905Y-63984285D01*
X35033810Y-63984285D01*
X34938571Y-64031904D01*
X34890952Y-64079523D01*
X34843333Y-64174761D01*
X34843333Y-64365238D01*
X34890952Y-64460476D01*
X34938571Y-64508095D01*
X35033810Y-64555714D01*
X57383334Y-64507143D02*
X57335715Y-64554762D01*
X57192858Y-64602381D01*
X57097620Y-64602381D01*
X56954762Y-64554762D01*
X56859524Y-64459524D01*
X56811905Y-64364286D01*
X56764286Y-64173810D01*
X56764286Y-64030952D01*
X56811905Y-63840476D01*
X56859524Y-63745238D01*
X56954762Y-63650000D01*
X57097620Y-63602381D01*
X57192858Y-63602381D01*
X57335715Y-63650000D01*
X57383334Y-63697619D01*
X57716667Y-63602381D02*
X58383334Y-63602381D01*
X57954762Y-64602381D01*
X54633334Y-68207143D02*
X54585715Y-68254762D01*
X54442858Y-68302381D01*
X54347620Y-68302381D01*
X54204762Y-68254762D01*
X54109524Y-68159524D01*
X54061905Y-68064286D01*
X54014286Y-67873810D01*
X54014286Y-67730952D01*
X54061905Y-67540476D01*
X54109524Y-67445238D01*
X54204762Y-67350000D01*
X54347620Y-67302381D01*
X54442858Y-67302381D01*
X54585715Y-67350000D01*
X54633334Y-67397619D01*
X55109524Y-68302381D02*
X55300000Y-68302381D01*
X55395239Y-68254762D01*
X55442858Y-68207143D01*
X55538096Y-68064286D01*
X55585715Y-67873810D01*
X55585715Y-67492857D01*
X55538096Y-67397619D01*
X55490477Y-67350000D01*
X55395239Y-67302381D01*
X55204762Y-67302381D01*
X55109524Y-67350000D01*
X55061905Y-67397619D01*
X55014286Y-67492857D01*
X55014286Y-67730952D01*
X55061905Y-67826190D01*
X55109524Y-67873810D01*
X55204762Y-67921429D01*
X55395239Y-67921429D01*
X55490477Y-67873810D01*
X55538096Y-67826190D01*
X55585715Y-67730952D01*
X67657143Y-79172857D02*
X67704762Y-79220476D01*
X67752381Y-79363333D01*
X67752381Y-79458571D01*
X67704762Y-79601429D01*
X67609524Y-79696667D01*
X67514286Y-79744286D01*
X67323810Y-79791905D01*
X67180952Y-79791905D01*
X66990476Y-79744286D01*
X66895238Y-79696667D01*
X66800000Y-79601429D01*
X66752381Y-79458571D01*
X66752381Y-79363333D01*
X66800000Y-79220476D01*
X66847619Y-79172857D01*
X67752381Y-78220476D02*
X67752381Y-78791905D01*
X67752381Y-78506191D02*
X66752381Y-78506191D01*
X66895238Y-78601429D01*
X66990476Y-78696667D01*
X67038095Y-78791905D01*
X66752381Y-77601429D02*
X66752381Y-77506190D01*
X66800000Y-77410952D01*
X66847619Y-77363333D01*
X66942857Y-77315714D01*
X67133333Y-77268095D01*
X67371429Y-77268095D01*
X67561905Y-77315714D01*
X67657143Y-77363333D01*
X67704762Y-77410952D01*
X67752381Y-77506190D01*
X67752381Y-77601429D01*
X67704762Y-77696667D01*
X67657143Y-77744286D01*
X67561905Y-77791905D01*
X67371429Y-77839524D01*
X67133333Y-77839524D01*
X66942857Y-77791905D01*
X66847619Y-77744286D01*
X66800000Y-77696667D01*
X66752381Y-77601429D01*
X61187143Y-58167143D02*
X61139524Y-58214762D01*
X60996667Y-58262381D01*
X60901429Y-58262381D01*
X60758571Y-58214762D01*
X60663333Y-58119524D01*
X60615714Y-58024286D01*
X60568095Y-57833810D01*
X60568095Y-57690952D01*
X60615714Y-57500476D01*
X60663333Y-57405238D01*
X60758571Y-57310000D01*
X60901429Y-57262381D01*
X60996667Y-57262381D01*
X61139524Y-57310000D01*
X61187143Y-57357619D01*
X62139524Y-58262381D02*
X61568095Y-58262381D01*
X61853809Y-58262381D02*
X61853809Y-57262381D01*
X61758571Y-57405238D01*
X61663333Y-57500476D01*
X61568095Y-57548095D01*
X63091905Y-58262381D02*
X62520476Y-58262381D01*
X62806190Y-58262381D02*
X62806190Y-57262381D01*
X62710952Y-57405238D01*
X62615714Y-57500476D01*
X62520476Y-57548095D01*
X59717143Y-66822857D02*
X59764762Y-66870476D01*
X59812381Y-67013333D01*
X59812381Y-67108571D01*
X59764762Y-67251429D01*
X59669524Y-67346667D01*
X59574286Y-67394286D01*
X59383810Y-67441905D01*
X59240952Y-67441905D01*
X59050476Y-67394286D01*
X58955238Y-67346667D01*
X58860000Y-67251429D01*
X58812381Y-67108571D01*
X58812381Y-67013333D01*
X58860000Y-66870476D01*
X58907619Y-66822857D01*
X59812381Y-65870476D02*
X59812381Y-66441905D01*
X59812381Y-66156191D02*
X58812381Y-66156191D01*
X58955238Y-66251429D01*
X59050476Y-66346667D01*
X59098095Y-66441905D01*
X58907619Y-65489524D02*
X58860000Y-65441905D01*
X58812381Y-65346667D01*
X58812381Y-65108571D01*
X58860000Y-65013333D01*
X58907619Y-64965714D01*
X59002857Y-64918095D01*
X59098095Y-64918095D01*
X59240952Y-64965714D01*
X59812381Y-65537143D01*
X59812381Y-64918095D01*
X71117143Y-61732857D02*
X71164762Y-61780476D01*
X71212381Y-61923333D01*
X71212381Y-62018571D01*
X71164762Y-62161429D01*
X71069524Y-62256667D01*
X70974286Y-62304286D01*
X70783810Y-62351905D01*
X70640952Y-62351905D01*
X70450476Y-62304286D01*
X70355238Y-62256667D01*
X70260000Y-62161429D01*
X70212381Y-62018571D01*
X70212381Y-61923333D01*
X70260000Y-61780476D01*
X70307619Y-61732857D01*
X71212381Y-60780476D02*
X71212381Y-61351905D01*
X71212381Y-61066191D02*
X70212381Y-61066191D01*
X70355238Y-61161429D01*
X70450476Y-61256667D01*
X70498095Y-61351905D01*
X70545714Y-59923333D02*
X71212381Y-59923333D01*
X70164762Y-60161429D02*
X70879048Y-60399524D01*
X70879048Y-59780476D01*
X72987143Y-82277143D02*
X72939524Y-82324762D01*
X72796667Y-82372381D01*
X72701429Y-82372381D01*
X72558571Y-82324762D01*
X72463333Y-82229524D01*
X72415714Y-82134286D01*
X72368095Y-81943810D01*
X72368095Y-81800952D01*
X72415714Y-81610476D01*
X72463333Y-81515238D01*
X72558571Y-81420000D01*
X72701429Y-81372381D01*
X72796667Y-81372381D01*
X72939524Y-81420000D01*
X72987143Y-81467619D01*
X73939524Y-82372381D02*
X73368095Y-82372381D01*
X73653809Y-82372381D02*
X73653809Y-81372381D01*
X73558571Y-81515238D01*
X73463333Y-81610476D01*
X73368095Y-81658095D01*
X74796667Y-81372381D02*
X74606190Y-81372381D01*
X74510952Y-81420000D01*
X74463333Y-81467619D01*
X74368095Y-81610476D01*
X74320476Y-81800952D01*
X74320476Y-82181905D01*
X74368095Y-82277143D01*
X74415714Y-82324762D01*
X74510952Y-82372381D01*
X74701429Y-82372381D01*
X74796667Y-82324762D01*
X74844286Y-82277143D01*
X74891905Y-82181905D01*
X74891905Y-81943810D01*
X74844286Y-81848571D01*
X74796667Y-81800952D01*
X74701429Y-81753333D01*
X74510952Y-81753333D01*
X74415714Y-81800952D01*
X74368095Y-81848571D01*
X74320476Y-81943810D01*
X70567143Y-68962857D02*
X70614762Y-69010476D01*
X70662381Y-69153333D01*
X70662381Y-69248571D01*
X70614762Y-69391429D01*
X70519524Y-69486667D01*
X70424286Y-69534286D01*
X70233810Y-69581905D01*
X70090952Y-69581905D01*
X69900476Y-69534286D01*
X69805238Y-69486667D01*
X69710000Y-69391429D01*
X69662381Y-69248571D01*
X69662381Y-69153333D01*
X69710000Y-69010476D01*
X69757619Y-68962857D01*
X70662381Y-68010476D02*
X70662381Y-68581905D01*
X70662381Y-68296191D02*
X69662381Y-68296191D01*
X69805238Y-68391429D01*
X69900476Y-68486667D01*
X69948095Y-68581905D01*
X70090952Y-67439048D02*
X70043333Y-67534286D01*
X69995714Y-67581905D01*
X69900476Y-67629524D01*
X69852857Y-67629524D01*
X69757619Y-67581905D01*
X69710000Y-67534286D01*
X69662381Y-67439048D01*
X69662381Y-67248571D01*
X69710000Y-67153333D01*
X69757619Y-67105714D01*
X69852857Y-67058095D01*
X69900476Y-67058095D01*
X69995714Y-67105714D01*
X70043333Y-67153333D01*
X70090952Y-67248571D01*
X70090952Y-67439048D01*
X70138571Y-67534286D01*
X70186190Y-67581905D01*
X70281429Y-67629524D01*
X70471905Y-67629524D01*
X70567143Y-67581905D01*
X70614762Y-67534286D01*
X70662381Y-67439048D01*
X70662381Y-67248571D01*
X70614762Y-67153333D01*
X70567143Y-67105714D01*
X70471905Y-67058095D01*
X70281429Y-67058095D01*
X70186190Y-67105714D01*
X70138571Y-67153333D01*
X70090952Y-67248571D01*
X75390543Y-62703343D02*
X75342924Y-62750962D01*
X75200067Y-62798581D01*
X75104829Y-62798581D01*
X74961971Y-62750962D01*
X74866733Y-62655724D01*
X74819114Y-62560486D01*
X74771495Y-62370010D01*
X74771495Y-62227152D01*
X74819114Y-62036676D01*
X74866733Y-61941438D01*
X74961971Y-61846200D01*
X75104829Y-61798581D01*
X75200067Y-61798581D01*
X75342924Y-61846200D01*
X75390543Y-61893819D01*
X75771495Y-61893819D02*
X75819114Y-61846200D01*
X75914352Y-61798581D01*
X76152448Y-61798581D01*
X76247686Y-61846200D01*
X76295305Y-61893819D01*
X76342924Y-61989057D01*
X76342924Y-62084295D01*
X76295305Y-62227152D01*
X75723876Y-62798581D01*
X76342924Y-62798581D01*
X76961971Y-61798581D02*
X77057210Y-61798581D01*
X77152448Y-61846200D01*
X77200067Y-61893819D01*
X77247686Y-61989057D01*
X77295305Y-62179533D01*
X77295305Y-62417629D01*
X77247686Y-62608105D01*
X77200067Y-62703343D01*
X77152448Y-62750962D01*
X77057210Y-62798581D01*
X76961971Y-62798581D01*
X76866733Y-62750962D01*
X76819114Y-62703343D01*
X76771495Y-62608105D01*
X76723876Y-62417629D01*
X76723876Y-62179533D01*
X76771495Y-61989057D01*
X76819114Y-61893819D01*
X76866733Y-61846200D01*
X76961971Y-61798581D01*
X95107143Y-69552857D02*
X95154762Y-69600476D01*
X95202381Y-69743333D01*
X95202381Y-69838571D01*
X95154762Y-69981429D01*
X95059524Y-70076667D01*
X94964286Y-70124286D01*
X94773810Y-70171905D01*
X94630952Y-70171905D01*
X94440476Y-70124286D01*
X94345238Y-70076667D01*
X94250000Y-69981429D01*
X94202381Y-69838571D01*
X94202381Y-69743333D01*
X94250000Y-69600476D01*
X94297619Y-69552857D01*
X94297619Y-69171905D02*
X94250000Y-69124286D01*
X94202381Y-69029048D01*
X94202381Y-68790952D01*
X94250000Y-68695714D01*
X94297619Y-68648095D01*
X94392857Y-68600476D01*
X94488095Y-68600476D01*
X94630952Y-68648095D01*
X95202381Y-69219524D01*
X95202381Y-68600476D01*
X94202381Y-68267143D02*
X94202381Y-67648095D01*
X94583333Y-67981429D01*
X94583333Y-67838571D01*
X94630952Y-67743333D01*
X94678571Y-67695714D01*
X94773810Y-67648095D01*
X95011905Y-67648095D01*
X95107143Y-67695714D01*
X95154762Y-67743333D01*
X95202381Y-67838571D01*
X95202381Y-68124286D01*
X95154762Y-68219524D01*
X95107143Y-68267143D01*
X89677143Y-82702857D02*
X89724762Y-82750476D01*
X89772381Y-82893333D01*
X89772381Y-82988571D01*
X89724762Y-83131429D01*
X89629524Y-83226667D01*
X89534286Y-83274286D01*
X89343810Y-83321905D01*
X89200952Y-83321905D01*
X89010476Y-83274286D01*
X88915238Y-83226667D01*
X88820000Y-83131429D01*
X88772381Y-82988571D01*
X88772381Y-82893333D01*
X88820000Y-82750476D01*
X88867619Y-82702857D01*
X88772381Y-82369524D02*
X88772381Y-81750476D01*
X89153333Y-82083810D01*
X89153333Y-81940952D01*
X89200952Y-81845714D01*
X89248571Y-81798095D01*
X89343810Y-81750476D01*
X89581905Y-81750476D01*
X89677143Y-81798095D01*
X89724762Y-81845714D01*
X89772381Y-81940952D01*
X89772381Y-82226667D01*
X89724762Y-82321905D01*
X89677143Y-82369524D01*
X89772381Y-80798095D02*
X89772381Y-81369524D01*
X89772381Y-81083810D02*
X88772381Y-81083810D01*
X88915238Y-81179048D01*
X89010476Y-81274286D01*
X89058095Y-81369524D01*
X94417143Y-76562857D02*
X94464762Y-76610476D01*
X94512381Y-76753333D01*
X94512381Y-76848571D01*
X94464762Y-76991429D01*
X94369524Y-77086667D01*
X94274286Y-77134286D01*
X94083810Y-77181905D01*
X93940952Y-77181905D01*
X93750476Y-77134286D01*
X93655238Y-77086667D01*
X93560000Y-76991429D01*
X93512381Y-76848571D01*
X93512381Y-76753333D01*
X93560000Y-76610476D01*
X93607619Y-76562857D01*
X93512381Y-76229524D02*
X93512381Y-75610476D01*
X93893333Y-75943810D01*
X93893333Y-75800952D01*
X93940952Y-75705714D01*
X93988571Y-75658095D01*
X94083810Y-75610476D01*
X94321905Y-75610476D01*
X94417143Y-75658095D01*
X94464762Y-75705714D01*
X94512381Y-75800952D01*
X94512381Y-76086667D01*
X94464762Y-76181905D01*
X94417143Y-76229524D01*
X93512381Y-75277143D02*
X93512381Y-74658095D01*
X93893333Y-74991429D01*
X93893333Y-74848571D01*
X93940952Y-74753333D01*
X93988571Y-74705714D01*
X94083810Y-74658095D01*
X94321905Y-74658095D01*
X94417143Y-74705714D01*
X94464762Y-74753333D01*
X94512381Y-74848571D01*
X94512381Y-75134286D01*
X94464762Y-75229524D01*
X94417143Y-75277143D01*
X57666381Y-60725666D02*
X57190190Y-61059000D01*
X57666381Y-61297095D02*
X56666381Y-61297095D01*
X56666381Y-60916142D01*
X56714000Y-60820904D01*
X56761619Y-60773285D01*
X56856857Y-60725666D01*
X56999714Y-60725666D01*
X57094952Y-60773285D01*
X57142571Y-60820904D01*
X57190190Y-60916142D01*
X57190190Y-61297095D01*
X57666381Y-59773285D02*
X57666381Y-60344714D01*
X57666381Y-60059000D02*
X56666381Y-60059000D01*
X56809238Y-60154238D01*
X56904476Y-60249476D01*
X56952095Y-60344714D01*
X61022381Y-61946666D02*
X60546190Y-62280000D01*
X61022381Y-62518095D02*
X60022381Y-62518095D01*
X60022381Y-62137142D01*
X60070000Y-62041904D01*
X60117619Y-61994285D01*
X60212857Y-61946666D01*
X60355714Y-61946666D01*
X60450952Y-61994285D01*
X60498571Y-62041904D01*
X60546190Y-62137142D01*
X60546190Y-62518095D01*
X60117619Y-61565714D02*
X60070000Y-61518095D01*
X60022381Y-61422857D01*
X60022381Y-61184761D01*
X60070000Y-61089523D01*
X60117619Y-61041904D01*
X60212857Y-60994285D01*
X60308095Y-60994285D01*
X60450952Y-61041904D01*
X61022381Y-61613333D01*
X61022381Y-60994285D01*
X64963334Y-62702381D02*
X64630000Y-62226190D01*
X64391905Y-62702381D02*
X64391905Y-61702381D01*
X64772858Y-61702381D01*
X64868096Y-61750000D01*
X64915715Y-61797619D01*
X64963334Y-61892857D01*
X64963334Y-62035714D01*
X64915715Y-62130952D01*
X64868096Y-62178571D01*
X64772858Y-62226190D01*
X64391905Y-62226190D01*
X65296667Y-61702381D02*
X65915715Y-61702381D01*
X65582381Y-62083333D01*
X65725239Y-62083333D01*
X65820477Y-62130952D01*
X65868096Y-62178571D01*
X65915715Y-62273810D01*
X65915715Y-62511905D01*
X65868096Y-62607143D01*
X65820477Y-62654762D01*
X65725239Y-62702381D01*
X65439524Y-62702381D01*
X65344286Y-62654762D01*
X65296667Y-62607143D01*
X81172381Y-77926666D02*
X80696190Y-78260000D01*
X81172381Y-78498095D02*
X80172381Y-78498095D01*
X80172381Y-78117142D01*
X80220000Y-78021904D01*
X80267619Y-77974285D01*
X80362857Y-77926666D01*
X80505714Y-77926666D01*
X80600952Y-77974285D01*
X80648571Y-78021904D01*
X80696190Y-78117142D01*
X80696190Y-78498095D01*
X80505714Y-77069523D02*
X81172381Y-77069523D01*
X80124762Y-77307619D02*
X80839048Y-77545714D01*
X80839048Y-76926666D01*
X65963334Y-68372381D02*
X65630000Y-67896190D01*
X65391905Y-68372381D02*
X65391905Y-67372381D01*
X65772858Y-67372381D01*
X65868096Y-67420000D01*
X65915715Y-67467619D01*
X65963334Y-67562857D01*
X65963334Y-67705714D01*
X65915715Y-67800952D01*
X65868096Y-67848571D01*
X65772858Y-67896190D01*
X65391905Y-67896190D01*
X66868096Y-67372381D02*
X66391905Y-67372381D01*
X66344286Y-67848571D01*
X66391905Y-67800952D01*
X66487143Y-67753333D01*
X66725239Y-67753333D01*
X66820477Y-67800952D01*
X66868096Y-67848571D01*
X66915715Y-67943810D01*
X66915715Y-68181905D01*
X66868096Y-68277143D01*
X66820477Y-68324762D01*
X66725239Y-68372381D01*
X66487143Y-68372381D01*
X66391905Y-68324762D01*
X66344286Y-68277143D01*
X78102381Y-80466666D02*
X77626190Y-80800000D01*
X78102381Y-81038095D02*
X77102381Y-81038095D01*
X77102381Y-80657142D01*
X77150000Y-80561904D01*
X77197619Y-80514285D01*
X77292857Y-80466666D01*
X77435714Y-80466666D01*
X77530952Y-80514285D01*
X77578571Y-80561904D01*
X77626190Y-80657142D01*
X77626190Y-81038095D01*
X77102381Y-79609523D02*
X77102381Y-79800000D01*
X77150000Y-79895238D01*
X77197619Y-79942857D01*
X77340476Y-80038095D01*
X77530952Y-80085714D01*
X77911905Y-80085714D01*
X78007143Y-80038095D01*
X78054762Y-79990476D01*
X78102381Y-79895238D01*
X78102381Y-79704761D01*
X78054762Y-79609523D01*
X78007143Y-79561904D01*
X77911905Y-79514285D01*
X77673810Y-79514285D01*
X77578571Y-79561904D01*
X77530952Y-79609523D01*
X77483333Y-79704761D01*
X77483333Y-79895238D01*
X77530952Y-79990476D01*
X77578571Y-80038095D01*
X77673810Y-80085714D01*
X72423334Y-58542381D02*
X72090000Y-58066190D01*
X71851905Y-58542381D02*
X71851905Y-57542381D01*
X72232858Y-57542381D01*
X72328096Y-57590000D01*
X72375715Y-57637619D01*
X72423334Y-57732857D01*
X72423334Y-57875714D01*
X72375715Y-57970952D01*
X72328096Y-58018571D01*
X72232858Y-58066190D01*
X71851905Y-58066190D01*
X72756667Y-57542381D02*
X73423334Y-57542381D01*
X72994762Y-58542381D01*
X91423334Y-70622381D02*
X90947143Y-70622381D01*
X90947143Y-69622381D01*
X91709048Y-69717619D02*
X91756667Y-69670000D01*
X91851905Y-69622381D01*
X92090001Y-69622381D01*
X92185239Y-69670000D01*
X92232858Y-69717619D01*
X92280477Y-69812857D01*
X92280477Y-69908095D01*
X92232858Y-70050952D01*
X91661429Y-70622381D01*
X92280477Y-70622381D01*
X68721905Y-76062381D02*
X68721905Y-75062381D01*
X69102858Y-75062381D01*
X69198096Y-75110000D01*
X69245715Y-75157619D01*
X69293334Y-75252857D01*
X69293334Y-75395714D01*
X69245715Y-75490952D01*
X69198096Y-75538571D01*
X69102858Y-75586190D01*
X68721905Y-75586190D01*
X70245715Y-76062381D02*
X69674286Y-76062381D01*
X69960000Y-76062381D02*
X69960000Y-75062381D01*
X69864762Y-75205238D01*
X69769524Y-75300476D01*
X69674286Y-75348095D01*
X60281905Y-49122381D02*
X60281905Y-48122381D01*
X60662858Y-48122381D01*
X60758096Y-48170000D01*
X60805715Y-48217619D01*
X60853334Y-48312857D01*
X60853334Y-48455714D01*
X60805715Y-48550952D01*
X60758096Y-48598571D01*
X60662858Y-48646190D01*
X60281905Y-48646190D01*
X61234286Y-48217619D02*
X61281905Y-48170000D01*
X61377143Y-48122381D01*
X61615239Y-48122381D01*
X61710477Y-48170000D01*
X61758096Y-48217619D01*
X61805715Y-48312857D01*
X61805715Y-48408095D01*
X61758096Y-48550952D01*
X61186667Y-49122381D01*
X61805715Y-49122381D01*
X80397143Y-53007143D02*
X80349524Y-53054762D01*
X80206667Y-53102381D01*
X80111429Y-53102381D01*
X79968571Y-53054762D01*
X79873333Y-52959524D01*
X79825714Y-52864286D01*
X79778095Y-52673810D01*
X79778095Y-52530952D01*
X79825714Y-52340476D01*
X79873333Y-52245238D01*
X79968571Y-52150000D01*
X80111429Y-52102381D01*
X80206667Y-52102381D01*
X80349524Y-52150000D01*
X80397143Y-52197619D01*
X80778095Y-52197619D02*
X80825714Y-52150000D01*
X80920952Y-52102381D01*
X81159048Y-52102381D01*
X81254286Y-52150000D01*
X81301905Y-52197619D01*
X81349524Y-52292857D01*
X81349524Y-52388095D01*
X81301905Y-52530952D01*
X80730476Y-53102381D01*
X81349524Y-53102381D01*
X82206667Y-52102381D02*
X82016190Y-52102381D01*
X81920952Y-52150000D01*
X81873333Y-52197619D01*
X81778095Y-52340476D01*
X81730476Y-52530952D01*
X81730476Y-52911905D01*
X81778095Y-53007143D01*
X81825714Y-53054762D01*
X81920952Y-53102381D01*
X82111429Y-53102381D01*
X82206667Y-53054762D01*
X82254286Y-53007143D01*
X82301905Y-52911905D01*
X82301905Y-52673810D01*
X82254286Y-52578571D01*
X82206667Y-52530952D01*
X82111429Y-52483333D01*
X81920952Y-52483333D01*
X81825714Y-52530952D01*
X81778095Y-52578571D01*
X81730476Y-52673810D01*
X84677143Y-52067143D02*
X84629524Y-52114762D01*
X84486667Y-52162381D01*
X84391429Y-52162381D01*
X84248571Y-52114762D01*
X84153333Y-52019524D01*
X84105714Y-51924286D01*
X84058095Y-51733810D01*
X84058095Y-51590952D01*
X84105714Y-51400476D01*
X84153333Y-51305238D01*
X84248571Y-51210000D01*
X84391429Y-51162381D01*
X84486667Y-51162381D01*
X84629524Y-51210000D01*
X84677143Y-51257619D01*
X85058095Y-51257619D02*
X85105714Y-51210000D01*
X85200952Y-51162381D01*
X85439048Y-51162381D01*
X85534286Y-51210000D01*
X85581905Y-51257619D01*
X85629524Y-51352857D01*
X85629524Y-51448095D01*
X85581905Y-51590952D01*
X85010476Y-52162381D01*
X85629524Y-52162381D01*
X86105714Y-52162381D02*
X86296190Y-52162381D01*
X86391429Y-52114762D01*
X86439048Y-52067143D01*
X86534286Y-51924286D01*
X86581905Y-51733810D01*
X86581905Y-51352857D01*
X86534286Y-51257619D01*
X86486667Y-51210000D01*
X86391429Y-51162381D01*
X86200952Y-51162381D01*
X86105714Y-51210000D01*
X86058095Y-51257619D01*
X86010476Y-51352857D01*
X86010476Y-51590952D01*
X86058095Y-51686190D01*
X86105714Y-51733810D01*
X86200952Y-51781429D01*
X86391429Y-51781429D01*
X86486667Y-51733810D01*
X86534286Y-51686190D01*
X86581905Y-51590952D01*
X47446183Y-82184285D02*
X47493802Y-82231904D01*
X47541421Y-82374761D01*
X47541421Y-82469999D01*
X47493802Y-82612857D01*
X47398564Y-82708095D01*
X47303326Y-82755714D01*
X47112850Y-82803333D01*
X46969992Y-82803333D01*
X46779516Y-82755714D01*
X46684278Y-82708095D01*
X46589040Y-82612857D01*
X46541421Y-82469999D01*
X46541421Y-82374761D01*
X46589040Y-82231904D01*
X46636659Y-82184285D01*
X46541421Y-81565238D02*
X46541421Y-81374761D01*
X46589040Y-81279523D01*
X46684278Y-81184285D01*
X46874754Y-81136666D01*
X47208088Y-81136666D01*
X47398564Y-81184285D01*
X47493802Y-81279523D01*
X47541421Y-81374761D01*
X47541421Y-81565238D01*
X47493802Y-81660476D01*
X47398564Y-81755714D01*
X47208088Y-81803333D01*
X46874754Y-81803333D01*
X46684278Y-81755714D01*
X46589040Y-81660476D01*
X46541421Y-81565238D01*
X47541421Y-80708095D02*
X46541421Y-80708095D01*
X47541421Y-80136666D01*
X46541421Y-80136666D01*
X47541421Y-79136666D02*
X47541421Y-79708095D01*
X47541421Y-79422381D02*
X46541421Y-79422381D01*
X46684278Y-79517619D01*
X46779516Y-79612857D01*
X46827135Y-79708095D01*
X52473334Y-57857143D02*
X52425715Y-57904762D01*
X52282858Y-57952381D01*
X52187620Y-57952381D01*
X52044762Y-57904762D01*
X51949524Y-57809524D01*
X51901905Y-57714286D01*
X51854286Y-57523810D01*
X51854286Y-57380952D01*
X51901905Y-57190476D01*
X51949524Y-57095238D01*
X52044762Y-57000000D01*
X52187620Y-56952381D01*
X52282858Y-56952381D01*
X52425715Y-57000000D01*
X52473334Y-57047619D01*
X52806667Y-56952381D02*
X53425715Y-56952381D01*
X53092381Y-57333333D01*
X53235239Y-57333333D01*
X53330477Y-57380952D01*
X53378096Y-57428571D01*
X53425715Y-57523810D01*
X53425715Y-57761905D01*
X53378096Y-57857143D01*
X53330477Y-57904762D01*
X53235239Y-57952381D01*
X52949524Y-57952381D01*
X52854286Y-57904762D01*
X52806667Y-57857143D01*
X57717143Y-62657143D02*
X57669524Y-62704762D01*
X57526667Y-62752381D01*
X57431429Y-62752381D01*
X57288571Y-62704762D01*
X57193333Y-62609524D01*
X57145714Y-62514286D01*
X57098095Y-62323810D01*
X57098095Y-62180952D01*
X57145714Y-61990476D01*
X57193333Y-61895238D01*
X57288571Y-61800000D01*
X57431429Y-61752381D01*
X57526667Y-61752381D01*
X57669524Y-61800000D01*
X57717143Y-61847619D01*
X58050476Y-61752381D02*
X58669524Y-61752381D01*
X58336190Y-62133333D01*
X58479048Y-62133333D01*
X58574286Y-62180952D01*
X58621905Y-62228571D01*
X58669524Y-62323810D01*
X58669524Y-62561905D01*
X58621905Y-62657143D01*
X58574286Y-62704762D01*
X58479048Y-62752381D01*
X58193333Y-62752381D01*
X58098095Y-62704762D01*
X58050476Y-62657143D01*
X59526667Y-62085714D02*
X59526667Y-62752381D01*
X59288571Y-61704762D02*
X59050476Y-62419048D01*
X59669524Y-62419048D01*
X80352381Y-86862857D02*
X79876190Y-87196191D01*
X80352381Y-87434286D02*
X79352381Y-87434286D01*
X79352381Y-87053333D01*
X79400000Y-86958095D01*
X79447619Y-86910476D01*
X79542857Y-86862857D01*
X79685714Y-86862857D01*
X79780952Y-86910476D01*
X79828571Y-86958095D01*
X79876190Y-87053333D01*
X79876190Y-87434286D01*
X80352381Y-85910476D02*
X80352381Y-86481905D01*
X80352381Y-86196191D02*
X79352381Y-86196191D01*
X79495238Y-86291429D01*
X79590476Y-86386667D01*
X79638095Y-86481905D01*
X80352381Y-84958095D02*
X80352381Y-85529524D01*
X80352381Y-85243810D02*
X79352381Y-85243810D01*
X79495238Y-85339048D01*
X79590476Y-85434286D01*
X79638095Y-85529524D01*
X88462381Y-86862857D02*
X87986190Y-87196191D01*
X88462381Y-87434286D02*
X87462381Y-87434286D01*
X87462381Y-87053333D01*
X87510000Y-86958095D01*
X87557619Y-86910476D01*
X87652857Y-86862857D01*
X87795714Y-86862857D01*
X87890952Y-86910476D01*
X87938571Y-86958095D01*
X87986190Y-87053333D01*
X87986190Y-87434286D01*
X88462381Y-85910476D02*
X88462381Y-86481905D01*
X88462381Y-86196191D02*
X87462381Y-86196191D01*
X87605238Y-86291429D01*
X87700476Y-86386667D01*
X87748095Y-86481905D01*
X87795714Y-85053333D02*
X88462381Y-85053333D01*
X87414762Y-85291429D02*
X88129048Y-85529524D01*
X88129048Y-84910476D01*
X93701905Y-70532381D02*
X93701905Y-71341905D01*
X93749524Y-71437143D01*
X93797143Y-71484762D01*
X93892381Y-71532381D01*
X94082858Y-71532381D01*
X94178096Y-71484762D01*
X94225715Y-71437143D01*
X94273334Y-71341905D01*
X94273334Y-70532381D01*
X95273334Y-71532381D02*
X94701905Y-71532381D01*
X94987619Y-71532381D02*
X94987619Y-70532381D01*
X94892381Y-70675238D01*
X94797143Y-70770476D01*
X94701905Y-70818095D01*
X95892381Y-70532381D02*
X95987620Y-70532381D01*
X96082858Y-70580000D01*
X96130477Y-70627619D01*
X96178096Y-70722857D01*
X96225715Y-70913333D01*
X96225715Y-71151429D01*
X96178096Y-71341905D01*
X96130477Y-71437143D01*
X96082858Y-71484762D01*
X95987620Y-71532381D01*
X95892381Y-71532381D01*
X95797143Y-71484762D01*
X95749524Y-71437143D01*
X95701905Y-71341905D01*
X95654286Y-71151429D01*
X95654286Y-70913333D01*
X95701905Y-70722857D01*
X95749524Y-70627619D01*
X95797143Y-70580000D01*
X95892381Y-70532381D01*
X62513334Y-79322381D02*
X62037143Y-79322381D01*
X62037143Y-78322381D01*
X63370477Y-79322381D02*
X62799048Y-79322381D01*
X63084762Y-79322381D02*
X63084762Y-78322381D01*
X62989524Y-78465238D01*
X62894286Y-78560476D01*
X62799048Y-78608095D01*
X45257143Y-55416666D02*
X45304762Y-55464285D01*
X45352381Y-55607142D01*
X45352381Y-55702380D01*
X45304762Y-55845238D01*
X45209524Y-55940476D01*
X45114286Y-55988095D01*
X44923810Y-56035714D01*
X44780952Y-56035714D01*
X44590476Y-55988095D01*
X44495238Y-55940476D01*
X44400000Y-55845238D01*
X44352381Y-55702380D01*
X44352381Y-55607142D01*
X44400000Y-55464285D01*
X44447619Y-55416666D01*
X45352381Y-54464285D02*
X45352381Y-55035714D01*
X45352381Y-54750000D02*
X44352381Y-54750000D01*
X44495238Y-54845238D01*
X44590476Y-54940476D01*
X44638095Y-55035714D01*
X68467143Y-65847143D02*
X68419524Y-65894762D01*
X68276667Y-65942381D01*
X68181429Y-65942381D01*
X68038571Y-65894762D01*
X67943333Y-65799524D01*
X67895714Y-65704286D01*
X67848095Y-65513810D01*
X67848095Y-65370952D01*
X67895714Y-65180476D01*
X67943333Y-65085238D01*
X68038571Y-64990000D01*
X68181429Y-64942381D01*
X68276667Y-64942381D01*
X68419524Y-64990000D01*
X68467143Y-65037619D01*
X69419524Y-65942381D02*
X68848095Y-65942381D01*
X69133809Y-65942381D02*
X69133809Y-64942381D01*
X69038571Y-65085238D01*
X68943333Y-65180476D01*
X68848095Y-65228095D01*
X69752857Y-64942381D02*
X70371905Y-64942381D01*
X70038571Y-65323333D01*
X70181429Y-65323333D01*
X70276667Y-65370952D01*
X70324286Y-65418571D01*
X70371905Y-65513810D01*
X70371905Y-65751905D01*
X70324286Y-65847143D01*
X70276667Y-65894762D01*
X70181429Y-65942381D01*
X69895714Y-65942381D01*
X69800476Y-65894762D01*
X69752857Y-65847143D01*
X73787143Y-76227143D02*
X73739524Y-76274762D01*
X73596667Y-76322381D01*
X73501429Y-76322381D01*
X73358571Y-76274762D01*
X73263333Y-76179524D01*
X73215714Y-76084286D01*
X73168095Y-75893810D01*
X73168095Y-75750952D01*
X73215714Y-75560476D01*
X73263333Y-75465238D01*
X73358571Y-75370000D01*
X73501429Y-75322381D01*
X73596667Y-75322381D01*
X73739524Y-75370000D01*
X73787143Y-75417619D01*
X74739524Y-76322381D02*
X74168095Y-76322381D01*
X74453809Y-76322381D02*
X74453809Y-75322381D01*
X74358571Y-75465238D01*
X74263333Y-75560476D01*
X74168095Y-75608095D01*
X75644286Y-75322381D02*
X75168095Y-75322381D01*
X75120476Y-75798571D01*
X75168095Y-75750952D01*
X75263333Y-75703333D01*
X75501429Y-75703333D01*
X75596667Y-75750952D01*
X75644286Y-75798571D01*
X75691905Y-75893810D01*
X75691905Y-76131905D01*
X75644286Y-76227143D01*
X75596667Y-76274762D01*
X75501429Y-76322381D01*
X75263333Y-76322381D01*
X75168095Y-76274762D01*
X75120476Y-76227143D01*
X72087143Y-65012857D02*
X72134762Y-65060476D01*
X72182381Y-65203333D01*
X72182381Y-65298571D01*
X72134762Y-65441429D01*
X72039524Y-65536667D01*
X71944286Y-65584286D01*
X71753810Y-65631905D01*
X71610952Y-65631905D01*
X71420476Y-65584286D01*
X71325238Y-65536667D01*
X71230000Y-65441429D01*
X71182381Y-65298571D01*
X71182381Y-65203333D01*
X71230000Y-65060476D01*
X71277619Y-65012857D01*
X72182381Y-64060476D02*
X72182381Y-64631905D01*
X72182381Y-64346191D02*
X71182381Y-64346191D01*
X71325238Y-64441429D01*
X71420476Y-64536667D01*
X71468095Y-64631905D01*
X72182381Y-63584286D02*
X72182381Y-63393810D01*
X72134762Y-63298571D01*
X72087143Y-63250952D01*
X71944286Y-63155714D01*
X71753810Y-63108095D01*
X71372857Y-63108095D01*
X71277619Y-63155714D01*
X71230000Y-63203333D01*
X71182381Y-63298571D01*
X71182381Y-63489048D01*
X71230000Y-63584286D01*
X71277619Y-63631905D01*
X71372857Y-63679524D01*
X71610952Y-63679524D01*
X71706190Y-63631905D01*
X71753810Y-63584286D01*
X71801429Y-63489048D01*
X71801429Y-63298571D01*
X71753810Y-63203333D01*
X71706190Y-63155714D01*
X71610952Y-63108095D01*
X69802381Y-83682857D02*
X69326190Y-84016191D01*
X69802381Y-84254286D02*
X68802381Y-84254286D01*
X68802381Y-83873333D01*
X68850000Y-83778095D01*
X68897619Y-83730476D01*
X68992857Y-83682857D01*
X69135714Y-83682857D01*
X69230952Y-83730476D01*
X69278571Y-83778095D01*
X69326190Y-83873333D01*
X69326190Y-84254286D01*
X69802381Y-82730476D02*
X69802381Y-83301905D01*
X69802381Y-83016191D02*
X68802381Y-83016191D01*
X68945238Y-83111429D01*
X69040476Y-83206667D01*
X69088095Y-83301905D01*
X68802381Y-81825714D02*
X68802381Y-82301905D01*
X69278571Y-82349524D01*
X69230952Y-82301905D01*
X69183333Y-82206667D01*
X69183333Y-81968571D01*
X69230952Y-81873333D01*
X69278571Y-81825714D01*
X69373810Y-81778095D01*
X69611905Y-81778095D01*
X69707143Y-81825714D01*
X69754762Y-81873333D01*
X69802381Y-81968571D01*
X69802381Y-82206667D01*
X69754762Y-82301905D01*
X69707143Y-82349524D01*
X54317143Y-84832381D02*
X53983809Y-84356190D01*
X53745714Y-84832381D02*
X53745714Y-83832381D01*
X54126667Y-83832381D01*
X54221905Y-83880000D01*
X54269524Y-83927619D01*
X54317143Y-84022857D01*
X54317143Y-84165714D01*
X54269524Y-84260952D01*
X54221905Y-84308571D01*
X54126667Y-84356190D01*
X53745714Y-84356190D01*
X55269524Y-84832381D02*
X54698095Y-84832381D01*
X54983809Y-84832381D02*
X54983809Y-83832381D01*
X54888571Y-83975238D01*
X54793333Y-84070476D01*
X54698095Y-84118095D01*
X56126667Y-83832381D02*
X55936190Y-83832381D01*
X55840952Y-83880000D01*
X55793333Y-83927619D01*
X55698095Y-84070476D01*
X55650476Y-84260952D01*
X55650476Y-84641905D01*
X55698095Y-84737143D01*
X55745714Y-84784762D01*
X55840952Y-84832381D01*
X56031429Y-84832381D01*
X56126667Y-84784762D01*
X56174286Y-84737143D01*
X56221905Y-84641905D01*
X56221905Y-84403810D01*
X56174286Y-84308571D01*
X56126667Y-84260952D01*
X56031429Y-84213333D01*
X55840952Y-84213333D01*
X55745714Y-84260952D01*
X55698095Y-84308571D01*
X55650476Y-84403810D01*
X57791905Y-84862381D02*
X57791905Y-83862381D01*
X58030000Y-83862381D01*
X58172858Y-83910000D01*
X58268096Y-84005238D01*
X58315715Y-84100476D01*
X58363334Y-84290952D01*
X58363334Y-84433810D01*
X58315715Y-84624286D01*
X58268096Y-84719524D01*
X58172858Y-84814762D01*
X58030000Y-84862381D01*
X57791905Y-84862381D01*
X58744286Y-83957619D02*
X58791905Y-83910000D01*
X58887143Y-83862381D01*
X59125239Y-83862381D01*
X59220477Y-83910000D01*
X59268096Y-83957619D01*
X59315715Y-84052857D01*
X59315715Y-84148095D01*
X59268096Y-84290952D01*
X58696667Y-84862381D01*
X59315715Y-84862381D01*
X65561905Y-85222381D02*
X65561905Y-84222381D01*
X65800000Y-84222381D01*
X65942858Y-84270000D01*
X66038096Y-84365238D01*
X66085715Y-84460476D01*
X66133334Y-84650952D01*
X66133334Y-84793810D01*
X66085715Y-84984286D01*
X66038096Y-85079524D01*
X65942858Y-85174762D01*
X65800000Y-85222381D01*
X65561905Y-85222381D01*
X67085715Y-85222381D02*
X66514286Y-85222381D01*
X66800000Y-85222381D02*
X66800000Y-84222381D01*
X66704762Y-84365238D01*
X66609524Y-84460476D01*
X66514286Y-84508095D01*
M02*
